{"glyphs":{"0":{"ha":881,"x_min":0,"x_max":0,"o":"m 149 682 b 569 1007 186 888 336 1007 b 825 911 685 1007 769 975 b 879 660 879 847 897 764 l 817 303 b 397 -21 779 97 629 -21 b 142 75 282 -21 196 11 b 86 326 86 138 68 222 m 707 672 b 544 844 725 782 667 844 b 321 672 422 844 339 782 l 258 315 b 421 142 238 206 299 142 b 644 315 543 142 624 206 "},"1":{"ha":599,"x_min":0,"x_max":0,"o":"m 558 986 b 599 939 596 986 606 974 l 442 47 b 385 0 435 13 419 0 l 306 0 b 267 47 271 0 261 13 l 396 775 l 190 671 b 122 689 156 653 133 658 l 99 751 b 132 815 89 778 100 799 l 422 967 b 493 986 447 979 471 986 "},"2":{"ha":829,"x_min":0,"x_max":0,"o":"m 139 778 b 539 1007 228 931 361 1007 b 771 915 643 1007 719 976 b 824 683 821 854 839 776 b 693 454 807 579 772 514 b 564 378 653 425 610 399 b 371 299 518 356 453 329 b 326 283 369 299 332 286 b 306 275 324 282 317 279 b 263 253 282 267 279 263 b 210 188 235 239 214 214 l 206 163 l 669 163 b 708 115 704 163 715 150 l 696 47 b 640 0 690 13 675 0 l 43 0 b 3 47 8 0 -3 13 l 21 151 b 183 382 47 265 99 332 b 350 458 243 418 279 432 b 546 546 449 494 514 524 b 643 689 600 583 633 632 b 508 844 660 785 608 844 b 294 721 418 844 346 803 b 229 690 274 686 261 679 l 158 718 b 139 778 126 731 122 746 "},"3":{"ha":849,"x_min":0,"x_max":0,"o":"m 814 715 b 669 515 797 622 749 556 b 767 269 757 467 789 385 b 365 -21 735 86 600 -21 b 25 213 167 -21 53 57 b 65 274 19 246 31 261 l 146 300 b 200 271 179 313 193 304 b 389 142 217 181 261 142 b 589 283 504 142 571 189 b 468 422 604 376 564 422 l 324 422 b 285 469 289 422 279 432 l 296 532 b 351 579 303 569 317 579 l 469 579 b 639 710 558 579 626 631 b 507 844 654 797 607 844 b 288 718 389 844 336 808 b 222 689 269 685 254 678 l 151 715 b 132 776 124 726 117 747 b 540 1007 214 931 339 1007 b 814 715 744 1007 846 893 "},"4":{"ha":876,"x_min":0,"x_max":0,"o":"m 794 383 b 833 336 829 383 840 371 l 824 276 b 768 229 817 242 803 229 l 672 229 l 640 47 b 585 0 633 13 619 0 l 517 0 b 478 47 482 0 471 13 l 510 229 l 51 229 b 13 276 14 229 6 242 l 21 326 b 47 383 25 351 35 371 l 610 956 b 682 989 632 978 656 989 l 758 989 b 797 942 796 989 804 976 l 699 383 m 603 756 l 235 383 l 536 383 "},"5":{"ha":828,"x_min":0,"x_max":0,"o":"m 792 986 b 831 939 826 986 838 974 l 818 871 b 763 824 813 836 797 824 l 360 824 l 304 619 l 469 619 b 708 528 579 619 658 589 b 758 296 758 465 775 389 b 631 68 743 203 700 126 b 353 -21 560 8 468 -21 b 17 206 156 -21 43 54 b 57 267 11 239 22 254 l 138 293 b 192 264 171 306 185 299 b 381 142 208 181 264 142 b 575 306 481 142 557 201 b 436 458 592 401 536 458 l 144 458 b 106 514 106 458 96 474 l 218 918 b 306 986 233 969 254 986 "},"6":{"ha":879,"x_min":0,"x_max":0,"o":"m 304 588 b 524 614 372 606 444 614 b 825 285 761 614 861 504 b 399 -21 790 83 636 -21 b 89 354 160 -21 50 125 l 143 657 b 579 1007 182 883 335 1007 b 900 788 763 1007 869 933 b 860 726 907 756 894 742 l 781 700 b 725 729 746 688 735 694 b 550 844 707 806 649 844 b 315 646 415 844 338 778 m 261 340 b 426 142 238 211 294 142 b 654 297 558 142 635 193 b 483 451 672 401 624 451 b 275 419 393 451 324 440 "},"7":{"ha":747,"x_min":0,"x_max":0,"o":"m 804 986 b 843 939 839 986 850 974 l 835 890 b 808 824 831 867 821 844 l 319 42 b 225 0 297 7 285 0 l 147 0 b 132 47 118 0 113 15 l 622 824 l 176 824 b 136 871 142 824 131 836 l 149 939 b 204 986 156 974 169 986 "},"8":{"ha":869,"x_min":0,"x_max":0,"o":"m 169 738 b 561 1007 201 911 344 1007 b 857 732 783 1007 889 904 b 751 560 844 654 789 586 b 681 517 732 546 708 532 b 806 258 779 468 829 393 b 381 -21 774 72 632 -21 b 50 247 119 -21 21 76 b 264 492 68 353 140 435 b 169 738 181 546 149 628 m 689 726 b 535 856 704 811 647 856 b 342 726 421 856 357 813 b 483 582 326 643 376 611 l 538 568 b 689 726 625 603 676 656 m 626 267 b 581 376 636 318 619 354 b 438 424 542 397 500 408 b 400 432 421 428 408 431 b 231 265 301 400 244 344 b 407 131 215 176 267 131 b 626 267 547 131 610 178 "},"9":{"ha":882,"x_min":0,"x_max":0,"o":"m 638 399 b 418 372 569 381 497 372 b 117 701 178 372 82 489 b 543 1007 151 903 306 1007 b 851 632 782 1007 892 861 l 799 329 b 363 -21 758 101 607 -21 b 42 199 179 -21 72 53 b 82 260 35 231 47 244 l 161 286 b 217 257 196 299 207 292 b 392 142 235 181 293 142 b 626 340 526 142 604 208 m 681 646 b 515 844 704 775 647 844 b 288 689 383 844 307 793 b 458 535 269 585 318 535 b 667 567 549 535 618 546 "}," ":{"ha":310,"x_min":0,"x_max":0,"o":""},"!":{"ha":335,"x_min":0,"x_max":0,"o":"m 326 1028 b 361 985 358 1028 368 1017 l 226 325 b 176 283 217 292 208 283 l 132 283 b 97 325 100 283 92 293 l 194 985 b 246 1028 199 1014 215 1028 m 140 181 b 214 92 207 181 225 158 l 211 79 b 107 -10 199 11 174 -10 l 96 -10 b 24 79 29 -10 11 11 l 25 92 b 131 181 36 158 63 181 "},"\"":{"ha":483,"x_min":0,"x_max":0,"o":"m 250 667 b 203 631 243 635 235 631 l 157 631 b 124 667 124 631 118 635 l 175 949 b 219 986 179 981 186 986 l 285 986 b 318 949 318 986 325 981 m 442 667 b 394 631 435 635 428 631 l 350 631 b 317 667 317 631 311 635 l 367 949 b 413 986 371 981 379 986 l 476 986 b 510 949 510 986 517 981 "},"#":{"ha":992,"x_min":0,"x_max":0,"o":"m 968 697 b 993 656 1001 697 1008 685 l 963 589 b 899 550 950 563 929 550 l 788 550 l 707 382 l 821 382 b 846 340 851 382 860 368 l 814 274 b 750 235 801 247 781 235 l 638 235 l 547 43 b 485 0 532 14 511 0 l 415 0 b 393 43 385 0 378 14 l 482 235 l 315 235 l 225 43 b 161 0 210 14 189 0 l 93 0 b 69 43 63 0 54 14 l 160 235 l 50 235 b 25 276 17 235 10 244 l 57 343 b 121 382 72 372 88 382 l 231 382 l 310 550 l 199 550 b 175 592 165 550 158 563 l 206 658 b 268 697 218 685 239 697 l 381 697 l 468 885 b 531 926 482 913 503 926 l 600 926 b 622 885 632 926 638 917 l 535 697 l 703 697 l 790 885 b 853 926 804 913 825 926 l 922 926 b 944 885 954 926 961 917 l 857 697 m 465 550 l 385 382 l 553 382 l 632 550 "},"$":{"ha":818,"x_min":0,"x_max":0,"o":"m 575 1075 b 611 1032 607 1075 615 1064 l 599 964 b 813 771 706 947 778 883 b 772 703 822 738 811 719 l 706 675 b 644 700 671 660 656 667 b 486 804 621 771 581 804 b 293 690 368 804 306 769 b 374 597 283 639 326 607 b 471 582 397 592 429 586 b 758 292 622 567 799 524 b 432 26 731 135 625 54 l 419 -46 b 369 -89 414 -79 403 -89 l 294 -89 b 258 -46 263 -89 253 -78 l 271 25 b 31 239 135 43 54 114 b 74 303 24 269 39 290 l 146 328 b 207 297 183 340 200 332 b 372 181 222 219 278 181 b 588 303 500 181 572 221 b 508 401 597 358 556 390 b 408 415 485 407 451 411 b 160 511 313 424 221 447 b 119 704 125 550 104 619 b 436 964 146 854 251 940 l 449 1032 b 499 1075 453 1061 469 1075 "},"%":{"ha":1138,"x_min":0,"x_max":0,"o":"m 115 803 b 381 1008 138 931 232 1008 b 575 801 529 1008 597 931 l 557 701 b 292 499 535 574 440 499 b 97 703 143 499 75 575 m 1067 986 b 1082 940 1099 986 1104 964 l 261 42 b 161 0 228 4 217 0 l 107 0 b 92 47 74 0 68 21 l 913 947 b 1006 986 942 982 954 986 m 440 794 b 358 879 449 851 421 879 b 249 794 293 879 257 851 l 233 711 b 314 626 224 654 250 626 b 425 711 378 626 415 654 m 611 282 b 878 488 633 411 729 488 b 1072 281 1026 488 1094 410 l 1054 181 b 788 -22 1032 54 936 -22 b 593 183 639 -22 571 56 m 936 274 b 856 358 946 331 919 358 b 744 274 792 358 754 331 l 731 192 b 811 106 719 135 746 106 b 922 192 875 106 913 135 "},"&":{"ha":933,"x_min":0,"x_max":0,"o":"m 228 758 b 331 936 240 829 275 888 b 542 1007 386 983 457 1007 b 714 936 614 1007 671 983 b 758 761 756 888 771 829 b 528 510 736 644 667 572 l 514 503 l 651 329 l 754 413 b 811 413 775 432 794 432 l 856 357 b 844 306 868 340 865 324 l 738 217 l 874 42 b 847 0 894 14 885 0 l 747 0 b 689 25 721 0 701 8 l 617 115 b 449 8 551 63 494 26 b 299 -21 403 -11 353 -21 b 99 63 211 -21 144 7 b 53 275 53 117 38 188 b 283 547 74 392 150 482 b 228 758 233 613 215 683 m 607 764 b 517 867 617 819 578 867 b 379 751 444 867 390 817 b 429 614 372 703 385 671 l 483 640 b 607 764 560 674 596 704 m 368 436 b 217 272 279 396 229 342 b 333 132 201 190 250 132 b 531 229 400 132 447 161 "},"'":{"ha":290,"x_min":0,"x_max":0,"o":"m 250 667 b 203 631 243 635 235 631 l 157 631 b 124 667 124 631 118 635 l 175 949 b 219 986 179 981 186 986 l 285 986 b 318 949 318 986 325 981 "},"(":{"ha":401,"x_min":0,"x_max":0,"o":"m 175 847 b 432 1188 207 1025 292 1126 b 486 1161 460 1200 478 1190 l 504 1092 b 471 1033 511 1060 506 1050 b 335 850 394 999 351 946 l 206 115 b 276 -68 189 19 214 -33 b 290 -126 306 -86 311 -97 l 250 -175 b 188 -201 226 -207 217 -212 b 50 139 67 -140 18 -39 "},")":{"ha":400,"x_min":0,"x_max":0,"o":"m 204 1161 b 267 1188 232 1193 235 1197 b 404 847 388 1126 436 1025 l 279 139 b 22 -201 247 -39 163 -142 b -32 -175 -6 -214 -24 -204 l -50 -104 b -15 -46 -57 -75 -49 -62 b 121 138 63 -11 104 39 l 251 872 b 179 1056 268 971 244 1021 b 165 1113 151 1074 144 1085 "},"*":{"ha":500,"x_min":0,"x_max":0,"o":"m 376 935 b 394 908 397 935 403 926 l 357 788 l 478 840 b 508 826 494 849 504 844 l 515 782 b 489 751 517 763 508 753 l 367 729 l 433 642 b 425 606 446 629 443 617 l 382 578 b 349 586 364 568 353 571 l 310 690 l 235 586 b 196 576 224 571 211 567 l 164 606 b 167 642 149 615 150 628 l 267 729 l 151 751 b 138 782 133 754 128 764 l 160 826 b 197 840 169 844 182 849 l 297 788 l 303 908 b 329 935 301 926 311 935 "},"+":{"ha":751,"x_min":0,"x_max":0,"o":"m 681 531 b 719 483 715 531 726 518 l 710 426 b 654 379 703 392 689 379 l 449 379 l 413 174 b 357 126 406 139 392 126 l 300 126 b 261 174 265 126 256 139 l 299 379 l 93 379 b 54 426 58 379 47 392 l 64 483 b 119 531 71 518 85 531 l 325 531 l 360 735 b 415 782 367 769 381 782 l 472 782 b 511 735 507 782 518 769 l 475 531 "},",":{"ha":300,"x_min":0,"x_max":0,"o":"m 96 -126 b 43 -169 86 -158 75 -169 l 13 -169 b -17 -137 -14 -169 -21 -164 l 25 121 b 82 171 29 160 43 171 l 143 171 b 188 121 185 171 200 154 "},"-":{"ha":572,"x_min":0,"x_max":0,"o":"m 456 446 b 494 399 490 446 501 433 l 485 338 b 429 290 478 303 464 290 l 110 290 b 71 338 72 290 64 303 l 81 399 b 136 446 88 433 101 446 "},".":{"ha":314,"x_min":0,"x_max":0,"o":"m 133 181 b 206 92 200 181 217 158 l 204 79 b 99 -10 192 11 167 -10 l 89 -10 b 15 79 21 -10 3 11 l 18 92 b 122 181 29 158 56 181 "},"/":{"ha":618,"x_min":0,"x_max":0,"o":"m 144 -44 b 82 -83 131 -71 110 -83 l 3 -83 b -19 -44 -26 -83 -33 -71 l 526 949 b 590 988 540 975 561 988 l 668 988 b 690 949 697 988 704 975 "},":":{"ha":357,"x_min":0,"x_max":0,"o":"m 219 586 b 292 497 286 586 303 565 l 290 485 b 185 396 278 418 253 396 l 175 396 b 101 485 107 396 89 418 l 104 497 b 208 586 115 564 142 586 m 171 282 b 244 193 239 282 256 261 l 242 181 b 138 92 229 114 204 92 l 126 92 b 54 181 60 92 42 114 l 56 193 b 161 282 67 261 93 282 "},";":{"ha":353,"x_min":0,"x_max":0,"o":"m 226 689 b 300 600 293 689 310 668 l 297 588 b 192 499 285 521 260 499 l 182 499 b 108 588 114 499 96 519 l 111 600 b 217 689 122 668 149 689 m 93 -126 b 33 -169 75 -160 63 -169 l 3 -169 b -22 -137 -24 -169 -28 -164 l 58 121 b 125 171 71 160 86 171 l 186 171 b 221 121 228 171 239 154 "},"<":{"ha":672,"x_min":0,"x_max":0,"o":"m 615 789 b 660 753 656 807 667 796 l 649 693 b 592 615 639 643 631 632 l 254 458 l 251 451 l 535 296 b 565 219 568 278 572 271 l 554 153 b 497 117 546 111 526 99 l 76 372 b 47 431 49 388 42 399 l 56 475 b 104 535 61 507 72 518 "},"=":{"ha":819,"x_min":0,"x_max":0,"o":"m 738 669 b 776 621 772 669 783 658 l 767 560 b 710 513 760 525 744 513 l 149 513 b 111 560 114 513 104 522 l 121 621 b 176 669 128 658 142 669 m 689 394 b 728 347 726 394 735 382 l 718 286 b 663 239 711 251 697 239 l 101 239 b 63 286 64 239 56 251 l 72 347 b 128 394 79 382 93 394 "},">":{"ha":674,"x_min":0,"x_max":0,"o":"m 140 754 b 196 789 150 797 163 807 l 618 535 b 646 476 646 519 651 508 l 638 432 b 590 372 635 406 619 386 l 78 118 b 33 154 38 100 28 111 l 44 224 b 101 300 54 272 64 283 l 440 457 l 442 465 l 160 619 b 128 697 125 638 118 643 "},"?":{"ha":792,"x_min":0,"x_max":0,"o":"m 115 803 b 506 1026 200 949 315 1026 b 746 942 611 1026 692 999 b 806 733 800 885 821 815 b 740 574 794 667 765 607 b 686 521 728 556 710 539 b 574 450 635 481 633 481 b 522 422 546 435 529 426 b 414 301 460 388 424 356 b 361 257 407 267 394 257 l 307 257 b 269 301 274 257 263 268 b 443 533 290 419 347 476 b 500 565 442 533 497 563 b 525 581 503 567 511 572 b 572 618 551 597 551 600 b 610 667 593 635 597 647 b 632 732 622 686 628 708 b 485 874 649 817 596 874 b 256 744 386 874 310 831 b 190 714 233 707 222 701 l 135 743 b 115 803 103 760 99 769 m 326 181 b 400 92 393 181 411 158 l 397 79 b 293 -10 386 13 360 -10 l 283 -10 b 210 79 215 -10 197 11 l 213 92 b 317 181 222 158 249 181 "},"@":{"ha":1253,"x_min":0,"x_max":0,"o":"m 114 458 b 331 860 143 628 215 761 b 774 1007 446 958 593 1007 b 1165 860 956 1007 1086 958 b 1240 458 1244 761 1269 626 l 1222 354 b 1117 136 1207 261 1171 189 b 933 57 1063 83 1001 57 b 822 110 860 61 851 71 b 569 72 743 85 660 72 b 365 306 407 72 339 150 l 401 506 b 688 739 429 661 525 739 b 938 697 790 739 874 725 b 971 632 971 685 978 669 l 901 231 b 956 175 894 192 921 175 b 1097 351 1017 175 1075 228 l 1115 461 b 753 894 1165 744 1042 894 b 240 461 471 894 289 733 l 221 351 b 582 -71 172 78 299 -71 b 892 -36 663 -71 765 -60 b 911 -51 910 -32 915 -36 l 901 -112 b 869 -149 897 -135 890 -143 b 564 -183 765 -172 663 -183 b 96 354 201 -183 35 15 m 818 600 b 685 615 783 610 739 615 b 535 501 599 615 549 578 l 501 308 b 611 196 486 231 521 196 b 763 217 665 196 717 203 l 828 582 b 818 600 829 589 826 596 "},"A":{"ha":911,"x_min":0,"x_max":0,"o":"m 858 46 b 819 0 865 15 851 0 l 754 0 b 675 42 694 0 679 8 l 642 221 l 258 221 l 161 42 b 68 0 144 8 128 0 l -1 0 b -25 46 -35 0 -43 15 l 482 949 b 546 988 499 981 513 988 l 619 988 b 672 950 653 988 667 979 m 564 657 b 560 822 549 733 560 807 l 561 826 l 553 826 b 492 658 556 829 533 739 l 333 364 l 618 364 "},"B":{"ha":903,"x_min":0,"x_max":0,"o":"m 635 986 b 872 718 811 986 901 878 b 732 517 856 625 808 557 l 731 511 b 829 263 814 478 850 386 b 469 0 797 92 658 0 l 75 0 b 36 47 40 0 31 13 l 193 939 b 249 986 200 974 214 986 m 692 701 b 586 824 706 783 671 824 l 347 824 l 304 579 l 542 579 b 692 701 626 579 676 619 m 649 290 b 539 421 664 378 628 421 l 276 421 l 231 163 l 493 163 b 649 290 583 163 635 206 "},"C":{"ha":883,"x_min":0,"x_max":0,"o":"m 139 654 b 596 1007 179 878 342 1007 b 924 771 789 1007 897 928 b 886 711 929 736 921 722 l 817 688 b 761 717 779 675 768 682 b 571 844 744 801 681 844 b 314 647 426 844 335 775 l 260 340 b 447 142 236 213 303 142 b 682 271 557 142 636 185 b 749 300 703 306 717 313 l 824 271 b 842 210 856 260 860 244 b 422 -21 760 56 621 -21 b 86 350 171 -21 47 124 "},"D":{"ha":925,"x_min":0,"x_max":0,"o":"m 561 986 b 897 606 815 986 938 838 l 853 353 b 396 0 813 125 653 0 l 75 0 b 36 47 40 0 31 13 l 193 939 b 249 986 200 974 214 986 m 726 621 b 533 824 750 753 682 824 l 347 824 l 231 163 l 417 163 b 682 365 563 163 658 233 "},"E":{"ha":804,"x_min":0,"x_max":0,"o":"m 801 986 b 842 939 839 986 849 974 l 829 871 b 774 824 824 836 808 824 l 347 824 l 306 581 l 665 581 b 704 533 700 581 710 568 l 692 465 b 635 418 685 431 669 418 l 275 418 l 231 163 l 672 163 b 711 115 707 163 718 150 l 699 47 b 643 0 693 13 678 0 l 75 0 b 36 47 40 0 31 13 l 193 939 b 249 986 200 974 214 986 "},"F":{"ha":788,"x_min":0,"x_max":0,"o":"m 801 986 b 842 939 839 986 849 974 l 829 871 b 774 824 824 836 808 824 l 347 824 l 303 568 l 661 568 b 700 521 696 568 706 556 l 688 453 b 632 406 682 418 669 406 l 274 406 l 211 47 b 156 0 204 13 190 0 l 75 0 b 36 47 40 0 31 13 l 193 939 b 249 986 200 974 214 986 "},"G":{"ha":917,"x_min":0,"x_max":0,"o":"m 865 540 b 904 493 900 540 910 528 l 869 294 b 418 -21 835 99 669 -21 b 86 354 167 -21 47 126 l 139 658 b 597 1007 179 885 342 1007 b 925 772 788 1007 897 929 b 889 713 932 739 924 724 l 815 688 b 760 717 778 675 767 682 b 569 844 743 801 679 844 b 313 647 426 844 335 775 l 258 340 b 446 142 235 213 301 142 b 700 306 585 142 682 210 l 713 378 l 503 378 b 464 426 468 378 458 389 l 476 493 b 532 540 483 531 497 540 "},"H":{"ha":956,"x_min":0,"x_max":0,"o":"m 914 986 b 954 939 951 986 961 974 l 796 47 b 740 0 790 13 775 0 l 661 0 b 622 47 626 0 617 13 l 688 418 l 275 418 l 211 47 b 156 0 204 13 190 0 l 75 0 b 36 47 40 0 31 13 l 193 939 b 249 986 200 974 214 986 l 329 986 b 368 939 364 986 375 974 l 306 581 l 717 581 l 779 939 b 835 986 786 974 800 986 "},"I":{"ha":369,"x_min":0,"x_max":0,"o":"m 193 939 b 249 986 200 974 214 986 l 329 986 b 368 939 364 986 375 974 l 211 47 b 156 0 204 13 190 0 l 75 0 b 36 47 40 0 31 13 "},"J":{"ha":799,"x_min":0,"x_max":0,"o":"m 765 986 b 803 940 800 986 810 974 l 692 306 b 292 -21 654 88 521 -21 b -11 211 113 -21 13 57 b 26 272 -18 244 -8 260 l 100 297 b 156 267 135 308 146 301 b 310 142 168 182 215 142 b 521 324 429 142 500 203 l 629 940 b 683 986 636 974 650 986 "},"K":{"ha":871,"x_min":0,"x_max":0,"o":"m 786 47 b 753 0 796 15 785 0 l 674 0 b 588 42 614 0 599 7 l 497 324 b 349 421 471 400 443 421 l 276 421 l 211 47 b 156 0 204 13 190 0 l 75 0 b 36 47 40 0 31 13 l 193 939 b 249 986 200 974 214 986 l 329 986 b 368 939 364 986 375 974 l 304 579 l 360 579 l 379 579 l 722 947 b 824 986 751 981 768 986 l 913 986 b 928 940 944 986 950 964 l 542 540 b 669 386 607 513 642 465 "},"L":{"ha":729,"x_min":0,"x_max":0,"o":"m 329 986 b 368 939 364 986 375 974 l 231 163 l 629 163 b 668 115 664 163 675 150 l 657 47 b 601 0 650 13 636 0 l 75 0 b 36 47 40 0 31 13 l 193 939 b 249 986 200 974 214 986 "},"M":{"ha":1129,"x_min":0,"x_max":0,"o":"m 1088 986 b 1126 939 1122 986 1133 974 l 969 47 b 914 0 964 13 949 0 l 843 0 b 804 47 808 0 797 13 l 879 471 b 961 747 893 551 921 643 l 951 747 b 792 493 906 661 853 576 l 614 253 b 553 219 596 231 576 219 l 517 219 b 469 253 489 219 479 225 l 374 494 b 310 747 344 565 324 649 l 300 747 b 282 469 303 646 297 554 l 207 47 b 151 0 201 13 186 0 l 75 0 b 36 47 40 0 31 13 l 193 939 b 249 986 200 974 214 986 l 308 986 b 369 950 347 986 358 979 l 567 433 l 947 949 b 1017 986 968 981 979 986 "},"N":{"ha":969,"x_min":0,"x_max":0,"o":"m 928 986 b 967 939 963 986 974 974 l 810 47 b 754 0 806 15 786 0 l 675 0 b 633 24 654 0 640 8 l 383 526 b 313 760 340 611 311 764 l 304 760 b 285 483 304 763 304 600 l 208 47 b 153 0 204 15 185 0 l 75 0 b 36 47 40 0 31 13 l 193 939 b 249 986 200 974 214 986 l 322 986 b 368 964 343 986 358 979 l 617 464 b 674 310 640 415 663 350 b 692 228 683 269 690 229 l 700 228 b 718 508 700 226 699 383 l 794 939 b 850 986 801 974 815 986 "},"O":{"ha":931,"x_min":0,"x_max":0,"o":"m 140 656 b 594 1007 179 879 340 1007 b 929 632 846 1007 968 860 l 876 328 b 424 -21 838 104 678 -21 b 86 351 172 -21 47 124 m 760 646 b 571 844 781 775 714 844 b 314 646 428 844 336 774 l 260 340 b 447 142 236 213 304 142 b 704 340 590 142 682 211 "},"P":{"ha":879,"x_min":0,"x_max":0,"o":"m 618 986 b 840 893 717 986 792 956 b 885 649 889 831 903 750 b 504 343 851 453 708 343 l 263 343 l 211 47 b 156 0 204 13 190 0 l 75 0 b 36 47 40 0 31 13 l 193 939 b 249 986 200 974 214 986 m 517 506 b 707 664 618 506 689 564 b 572 824 725 764 674 824 l 347 824 l 292 506 "},"Q":{"ha":953,"x_min":0,"x_max":0,"o":"m 140 656 b 594 1007 179 879 340 1007 b 929 632 846 1007 968 860 l 876 328 b 772 107 861 239 826 165 l 835 15 b 817 -53 850 -8 844 -32 l 757 -96 b 692 -90 728 -118 710 -117 l 622 14 b 424 -21 568 -10 501 -21 b 86 351 172 -21 47 124 m 726 794 b 571 844 694 828 642 844 b 397 793 500 844 442 828 b 314 646 353 758 325 710 l 260 340 b 447 142 236 213 304 142 b 704 340 590 142 682 211 l 760 646 b 726 794 769 711 758 760 "},"R":{"ha":904,"x_min":0,"x_max":0,"o":"m 633 986 b 889 669 826 986 926 863 b 660 400 867 532 790 442 b 693 340 672 388 683 367 l 794 47 b 763 0 806 21 794 0 l 682 0 b 594 42 621 0 604 8 l 521 278 b 478 357 508 318 494 344 b 382 375 460 369 428 375 l 269 375 l 211 47 b 156 0 204 13 190 0 l 75 0 b 36 47 40 0 31 13 l 193 939 b 249 986 200 974 214 986 m 708 681 b 589 824 726 771 682 824 l 347 824 l 297 538 l 539 538 b 708 681 633 538 693 588 "},"S":{"ha":871,"x_min":0,"x_max":0,"o":"m 117 728 b 542 1007 150 907 293 1007 b 864 792 726 1007 819 929 b 829 733 875 760 867 749 l 751 700 b 694 724 718 688 706 692 b 515 840 668 800 619 840 b 292 714 381 840 307 799 b 349 615 285 665 303 633 b 508 581 394 597 435 588 b 807 264 740 554 839 449 b 369 -21 772 74 626 -21 b 18 211 168 -21 50 57 b 58 272 13 246 24 261 l 139 300 b 193 271 174 311 183 304 b 388 142 214 185 279 142 b 633 286 533 142 615 190 b 436 415 649 371 575 400 b 242 464 360 422 307 433 b 163 518 208 479 182 497 b 117 728 124 561 100 635 "},"T":{"ha":782,"x_min":0,"x_max":0,"o":"m 821 986 b 860 939 856 986 867 974 l 847 871 b 792 824 842 836 826 824 l 553 824 l 415 47 b 360 0 410 13 394 0 l 281 0 b 242 47 246 0 236 13 l 379 824 l 139 824 b 100 871 104 824 94 836 l 113 939 b 168 986 119 974 133 986 "},"U":{"ha":956,"x_min":0,"x_max":0,"o":"m 281 338 b 460 142 258 211 319 142 b 708 338 600 142 686 211 l 814 939 b 869 986 821 974 835 986 l 949 986 b 989 939 983 986 994 974 l 879 322 b 435 -21 840 100 689 -21 b 163 83 310 -21 219 14 b 108 356 106 153 88 243 l 213 939 b 268 986 218 974 233 986 l 347 986 b 386 939 382 986 393 974 "},"V":{"ha":885,"x_min":0,"x_max":0,"o":"m 947 986 b 971 940 979 986 988 971 l 479 39 b 414 0 463 7 447 0 l 340 0 b 289 38 307 0 293 8 l 114 940 b 154 986 108 971 122 986 l 224 986 b 299 944 278 986 293 978 l 397 353 b 408 206 406 294 408 204 l 417 206 b 478 351 435 261 456 310 l 788 944 b 876 986 804 979 819 986 "},"W":{"ha":1247,"x_min":0,"x_max":0,"o":"m 1290 986 b 1313 940 1324 986 1328 972 l 932 39 b 865 0 917 7 900 0 l 783 0 b 732 38 750 0 733 13 l 683 589 b 689 746 679 640 682 693 l 679 746 b 629 590 669 700 653 647 l 385 39 b 318 0 369 7 353 0 l 240 0 b 189 38 206 0 190 8 l 121 940 b 160 986 117 974 126 986 l 253 986 b 310 944 296 986 308 978 l 335 426 b 325 240 336 375 333 313 l 333 240 b 393 426 344 299 364 361 l 625 940 b 694 982 638 968 660 982 l 765 982 b 821 940 803 982 819 974 l 867 426 b 864 240 872 369 871 308 l 872 240 b 928 425 879 282 899 343 l 1132 944 b 1201 986 1143 978 1161 986 "},"X":{"ha":885,"x_min":0,"x_max":0,"o":"m 929 986 b 944 942 961 986 967 964 l 569 503 l 800 49 b 768 0 817 25 801 0 l 675 0 b 590 42 618 0 607 4 l 435 367 l 175 42 b 75 0 143 4 131 0 l -21 0 b -36 49 -54 0 -60 22 l 351 503 l 133 942 b 164 986 118 964 132 986 l 256 986 b 342 947 310 986 319 981 l 486 640 l 738 947 b 831 986 771 981 781 986 "},"Y":{"ha":889,"x_min":0,"x_max":0,"o":"m 956 986 b 971 939 988 986 992 965 l 535 389 l 475 47 b 419 0 468 13 454 0 l 339 0 b 300 47 304 0 294 13 l 361 392 l 118 939 b 151 986 107 967 118 986 l 244 986 b 329 944 304 986 314 983 l 481 569 l 764 944 b 864 986 792 983 804 986 "},"Z":{"ha":813,"x_min":0,"x_max":0,"o":"m 817 986 b 856 939 854 986 863 974 l 844 872 b 821 822 840 851 833 835 l 221 163 l 681 163 b 719 115 718 163 726 150 l 708 47 b 653 0 701 13 688 0 l 25 0 b -14 47 -10 0 -21 13 l -3 115 b 22 164 1 133 10 150 l 621 824 l 176 824 b 138 871 142 824 132 836 l 150 939 b 206 986 157 974 171 986 "},"[":{"ha":418,"x_min":0,"x_max":0,"o":"m 490 1189 b 525 1147 525 1189 531 1185 l 514 1086 b 465 1046 508 1051 503 1046 l 357 1046 l 161 -58 l 271 -58 b 306 -100 306 -58 311 -65 l 294 -161 b 244 -203 288 -196 282 -203 l 25 -203 b -10 -160 -10 -203 -17 -197 l 221 1146 b 271 1189 226 1181 233 1189 "},"\\":{"ha":606,"x_min":0,"x_max":0,"o":"m 135 947 b 169 986 131 975 138 986 l 243 986 b 293 947 275 986 286 976 l 488 -44 b 453 -83 492 -72 485 -83 l 381 -83 b 329 -44 347 -83 336 -74 "},"]":{"ha":419,"x_min":0,"x_max":0,"o":"m 431 1189 b 467 1146 465 1189 472 1183 l 236 -160 b 185 -203 229 -194 222 -203 l -35 -203 b -68 -161 -69 -203 -75 -196 l -57 -100 b -8 -58 -51 -65 -43 -58 l 101 -58 l 296 1046 l 186 1046 b 153 1086 151 1046 146 1051 l 163 1147 b 211 1189 169 1182 176 1189 "},"^":{"ha":813,"x_min":0,"x_max":0,"o":"m 606 1125 b 657 1088 638 1125 642 1113 l 861 772 b 829 722 882 739 871 722 l 758 722 b 681 760 708 722 703 726 l 556 964 l 549 964 l 351 760 b 260 722 318 726 310 722 l 197 722 b 181 772 153 722 147 739 l 494 1088 b 561 1125 521 1114 531 1125 "},"_":{"ha":689,"x_min":0,"x_max":0,"o":"m 542 0 b 581 -47 576 0 586 -12 l 569 -108 b 514 -156 564 -143 549 -156 l -18 -156 b -58 -108 -53 -156 -64 -143 l -47 -47 b 8 0 -42 -12 -26 0 "},"`":{"ha":357,"x_min":0,"x_max":0,"o":"m 179 1011 b 258 1014 201 1033 228 1035 l 442 892 b 435 846 457 882 456 867 l 413 821 b 358 818 400 808 382 808 l 133 919 b 136 968 110 932 113 942 "},"a":{"ha":747,"x_min":0,"x_max":0,"o":"m 90 468 b 450 740 122 657 235 740 b 694 697 556 740 638 726 b 732 621 735 676 739 665 l 633 65 b 582 13 628 33 617 22 b 301 -21 490 -10 397 -21 b 56 279 108 -21 22 97 m 549 578 b 436 593 515 588 478 593 b 246 447 324 593 264 551 l 214 267 b 340 126 199 174 240 126 b 486 144 386 126 435 132 l 560 560 b 549 578 563 568 558 574 "},"b":{"ha":751,"x_min":0,"x_max":0,"o":"m 310 1028 b 344 985 342 1028 350 1017 l 297 717 b 468 740 369 732 426 740 b 706 450 661 740 739 632 l 671 261 b 310 -21 639 74 519 -21 b 65 24 211 -21 131 -6 b 28 100 25 44 21 56 l 183 985 b 235 1028 188 1014 206 1028 m 546 460 b 419 597 561 551 518 597 b 272 572 374 597 324 589 l 200 158 b 207 143 199 151 200 146 b 322 126 238 132 276 126 b 514 278 432 126 496 176 "},"c":{"ha":711,"x_min":0,"x_max":0,"o":"m 89 465 b 449 740 121 649 240 740 b 711 558 606 740 693 668 b 675 496 717 524 708 507 l 619 478 b 564 507 582 465 571 472 b 425 599 551 568 504 599 b 249 461 325 599 267 553 l 213 257 b 340 121 197 167 239 121 b 508 217 417 121 472 153 b 575 244 526 250 542 256 l 633 225 b 651 163 665 213 672 197 b 317 -21 583 40 471 -21 b 56 274 110 -21 22 92 "},"d":{"ha":750,"x_min":0,"x_max":0,"o":"m 90 465 b 428 740 122 649 235 740 b 589 722 472 740 526 735 l 636 985 b 686 1028 640 1014 657 1028 l 763 1028 b 797 985 794 1028 803 1017 l 642 100 b 574 24 635 56 622 42 b 306 -21 489 -6 399 -21 b 57 275 106 -21 24 92 m 564 575 b 433 593 511 588 468 593 b 247 446 322 593 265 550 l 215 265 b 346 126 199 172 242 126 b 478 142 394 126 439 132 b 490 157 483 144 488 150 "},"e":{"ha":738,"x_min":0,"x_max":0,"o":"m 89 458 b 463 740 122 640 256 740 b 679 669 557 740 629 717 b 732 482 729 621 747 558 b 392 289 708 349 596 289 b 221 306 342 289 285 294 l 213 257 b 347 118 197 167 243 118 b 526 190 426 118 486 142 b 600 207 556 222 571 228 l 643 179 b 647 108 669 161 671 138 b 322 -21 579 22 471 -21 b 96 68 214 -21 139 8 b 58 293 53 126 40 201 m 576 500 b 439 604 589 567 540 604 b 249 458 338 604 267 549 l 243 429 b 414 413 308 418 365 413 b 576 500 510 413 564 442 "},"f":{"ha":510,"x_min":0,"x_max":0,"o":"m 569 1028 b 606 983 603 1028 611 1017 l 594 928 b 543 885 589 894 576 885 b 360 733 422 885 378 840 l 358 719 l 517 719 b 551 678 549 719 557 710 l 540 614 b 492 571 535 582 524 571 l 332 571 l 239 43 b 188 0 233 11 221 0 l 114 0 b 78 43 81 0 72 11 l 171 571 l 88 571 b 51 614 56 571 46 582 l 63 678 b 114 719 69 710 82 719 l 197 719 l 199 733 b 547 1028 233 928 340 1024 "},"g":{"ha":751,"x_min":0,"x_max":0,"o":"m 88 468 b 449 740 121 657 233 740 b 693 697 554 740 636 726 b 731 621 733 676 738 665 l 615 -31 b 264 -326 581 -228 464 -326 b -1 -190 126 -326 38 -281 b 28 -121 -17 -161 -7 -137 l 81 -94 b 149 -111 118 -78 132 -82 b 281 -182 169 -158 214 -182 b 454 -32 378 -182 436 -132 l 467 38 b 303 13 401 21 347 13 b 60 313 110 13 26 131 m 550 578 b 435 593 513 588 475 593 b 244 444 325 593 263 543 l 218 297 b 344 160 203 206 244 160 b 492 179 386 160 435 167 l 558 561 b 550 578 560 568 557 574 "},"h":{"ha":769,"x_min":0,"x_max":0,"o":"m 311 1028 b 344 985 343 1028 351 1017 l 299 721 b 468 740 325 733 381 740 b 706 451 661 740 738 633 l 635 43 b 583 0 631 14 613 0 l 508 0 b 474 43 476 0 468 11 l 546 457 b 419 593 563 547 521 593 b 272 572 349 593 300 586 l 179 43 b 129 0 175 14 158 0 l 53 0 b 18 43 21 0 13 11 l 183 985 b 235 1028 190 1017 203 1028 "},"i":{"ha":321,"x_min":0,"x_max":0,"o":"m 271 989 b 339 906 336 989 351 968 l 338 893 b 239 808 326 828 301 808 l 228 808 b 160 893 165 808 147 831 l 161 906 b 261 989 174 968 196 989 m 256 719 b 290 678 288 719 296 710 l 179 43 b 129 0 175 14 158 0 l 53 0 b 18 43 21 0 13 11 l 129 678 b 181 719 135 710 147 719 "},"j":{"ha":322,"x_min":0,"x_max":0,"o":"m 271 989 b 339 906 336 989 351 968 l 338 893 b 239 808 326 828 301 808 l 228 808 b 160 893 165 808 147 831 l 161 906 b 261 989 174 968 196 989 m 256 719 b 290 678 288 719 296 710 l 169 -10 b -201 -319 132 -217 8 -319 b -239 -275 -235 -319 -244 -308 l -228 -214 b -175 -169 -222 -181 -208 -169 b 10 -6 -62 -169 -8 -112 l 129 678 b 182 719 135 710 149 719 "},"k":{"ha":724,"x_min":0,"x_max":0,"o":"m 632 51 b 596 0 644 14 636 0 l 528 0 b 460 39 479 0 471 6 l 406 231 b 308 299 393 279 365 299 l 225 299 l 179 44 b 126 0 174 11 161 0 l 56 0 b 18 44 21 0 13 11 l 183 983 b 238 1028 190 1017 203 1028 l 308 1028 b 344 983 343 1028 351 1017 l 250 442 l 311 442 l 321 442 l 553 688 b 642 719 581 717 590 719 l 711 719 b 728 669 756 719 761 703 l 474 408 b 553 294 508 390 535 351 "},"l":{"ha":328,"x_min":0,"x_max":0,"o":"m 185 43 b 133 0 178 11 165 0 l 58 0 b 24 43 25 0 17 11 l 189 985 b 240 1028 194 1017 207 1028 l 315 1028 b 350 985 347 1028 356 1017 "},"m":{"ha":1147,"x_min":0,"x_max":0,"o":"m 608 693 b 861 740 699 725 782 740 b 1083 453 1044 740 1115 635 l 1011 43 b 961 0 1007 14 990 0 l 885 0 b 850 43 853 0 844 11 l 924 458 b 813 593 940 549 903 593 b 674 568 769 593 724 585 b 669 464 678 539 676 504 l 596 43 b 544 0 592 14 574 0 l 469 0 b 435 43 438 0 429 11 l 507 458 b 396 593 524 554 486 593 b 281 576 356 593 317 588 b 267 560 275 574 271 568 l 176 43 b 126 0 172 14 156 0 l 50 0 b 15 43 18 0 10 11 l 115 614 b 183 693 125 658 138 675 b 443 740 265 725 353 740 b 608 693 517 740 571 725 "},"n":{"ha":767,"x_min":0,"x_max":0,"o":"m 183 693 b 464 740 268 725 361 740 b 703 449 657 740 735 632 l 632 43 b 581 0 625 11 613 0 l 504 0 b 471 43 472 0 464 11 l 543 457 b 417 593 560 547 518 593 b 279 575 371 593 325 588 b 267 561 275 574 271 568 l 176 43 b 126 0 172 14 156 0 l 50 0 b 15 43 18 0 10 11 l 115 614 b 183 693 125 658 138 675 "},"o":{"ha":754,"x_min":0,"x_max":0,"o":"m 88 467 b 454 740 119 640 250 740 b 726 454 660 740 756 631 l 690 249 b 325 -21 658 75 532 -21 b 51 261 121 -21 22 88 m 567 463 b 431 594 582 547 532 594 b 249 463 329 594 264 547 l 213 257 b 347 125 197 174 246 125 b 531 257 449 125 515 174 "},"p":{"ha":751,"x_min":0,"x_max":0,"o":"m 186 700 b 463 740 263 726 356 740 b 704 449 657 740 738 632 l 669 260 b 313 -21 638 72 519 -21 b 171 4 278 -21 231 -12 l 124 -262 b 72 -306 119 -292 101 -306 l -3 -306 b -37 -262 -35 -306 -43 -294 l 118 621 b 186 700 128 665 140 682 m 544 456 b 414 593 560 547 517 593 b 285 578 365 593 322 588 b 268 560 276 575 271 569 l 196 147 b 325 126 247 133 290 126 b 513 275 431 126 493 176 "},"q":{"ha":751,"x_min":0,"x_max":0,"o":"m 451 740 b 696 697 557 740 639 726 b 733 621 736 676 740 665 l 578 -262 b 526 -306 574 -292 556 -306 l 451 -306 b 417 -262 419 -306 411 -294 l 464 6 b 293 -21 396 -12 339 -21 b 56 268 100 -21 22 89 l 89 458 b 451 740 122 649 239 740 m 215 263 b 342 126 200 174 243 126 b 489 147 379 126 429 133 l 561 560 b 550 578 564 568 560 574 b 438 593 517 588 479 593 b 247 443 328 593 265 543 "},"r":{"ha":490,"x_min":0,"x_max":0,"o":"m 450 740 l 496 740 b 532 697 528 740 538 731 l 521 636 b 471 593 517 607 500 593 l 421 593 b 285 576 369 593 324 588 b 268 560 278 575 272 569 l 178 43 b 126 0 174 14 156 0 l 51 0 b 17 43 19 0 11 11 l 118 619 b 185 699 128 664 140 681 b 450 740 257 724 346 738 "},"s":{"ha":697,"x_min":0,"x_max":0,"o":"m 79 526 b 403 740 103 661 214 740 b 671 592 549 740 638 690 b 640 529 681 563 669 542 l 579 506 b 524 526 546 493 539 497 b 382 596 504 572 457 596 b 238 521 296 596 247 571 b 385 435 226 460 267 446 b 626 200 561 417 654 356 b 289 -21 603 61 483 -21 b 7 147 125 -21 31 35 b 46 206 1 175 14 194 l 113 225 b 164 199 144 235 151 231 b 308 122 181 147 229 122 b 469 204 406 122 460 150 b 318 293 481 265 440 281 b 139 347 240 300 192 314 b 79 526 86 379 64 442 "},"t":{"ha":535,"x_min":0,"x_max":0,"o":"m 353 886 b 388 844 385 886 393 876 l 365 719 l 525 719 b 558 678 557 719 565 710 l 549 614 b 499 571 544 585 528 571 l 340 571 l 290 292 b 301 163 279 226 283 183 b 419 132 319 142 358 132 b 456 89 453 132 461 122 l 444 25 b 393 -19 438 -8 426 -18 b 157 42 275 -24 197 -3 b 129 286 117 86 107 168 l 179 571 l 83 571 b 47 614 51 571 42 582 l 58 678 b 110 719 64 710 76 719 l 204 719 l 226 844 b 276 886 232 876 244 886 "},"u":{"ha":767,"x_min":0,"x_max":0,"o":"m 725 719 b 760 678 757 719 765 710 l 660 106 b 592 28 650 61 638 46 b 311 -21 504 -4 411 -21 b 72 269 118 -21 40 88 l 143 678 b 194 719 149 710 161 719 l 269 719 b 304 678 301 719 310 710 l 232 264 b 358 126 215 172 257 126 b 489 143 407 126 451 132 b 508 167 500 147 507 154 l 599 678 b 649 719 604 710 617 719 "},"v":{"ha":713,"x_min":0,"x_max":0,"o":"m 718 719 b 743 671 758 719 765 710 l 376 38 b 311 -1 358 8 343 -1 l 265 -1 b 213 38 236 -1 218 11 l 68 669 b 114 719 61 708 71 719 l 165 719 b 233 676 215 719 229 711 l 304 343 b 317 194 315 285 317 193 l 324 194 b 388 342 324 199 353 278 l 574 676 b 660 719 596 711 608 719 "},"w":{"ha":1017,"x_min":0,"x_max":0,"o":"m 1010 719 b 1036 669 1050 719 1054 710 l 744 38 b 679 -1 735 11 713 -1 l 626 -1 b 574 38 592 -1 575 8 l 535 393 b 533 536 529 453 533 539 l 529 536 b 476 393 529 538 501 453 l 313 38 b 247 -1 300 11 279 -1 l 201 -1 b 150 38 168 -1 151 8 l 76 669 b 121 719 71 710 81 719 l 171 719 b 240 676 225 719 240 711 l 264 365 b 258 196 267 313 258 194 l 264 196 l 274 226 b 324 367 285 267 306 328 l 469 671 b 549 715 488 710 499 715 l 578 715 b 640 672 628 715 636 710 l 679 367 b 681 196 688 306 681 193 l 686 196 b 740 367 686 196 711 294 l 872 676 b 957 719 888 711 906 719 "},"x":{"ha":703,"x_min":0,"x_max":0,"o":"m 688 719 b 708 669 729 719 736 703 l 446 371 l 614 50 b 572 0 631 17 617 0 l 515 0 b 444 36 469 0 460 4 l 333 254 l 153 36 b 67 0 126 4 113 0 l -7 0 b -29 50 -57 0 -61 17 l 249 369 l 88 669 b 131 719 72 703 86 719 l 185 719 b 257 683 233 719 244 713 l 360 488 l 529 683 b 610 719 556 715 565 719 "},"y":{"ha":769,"x_min":0,"x_max":0,"o":"m 722 719 b 757 678 754 719 763 710 l 633 -24 b 275 -326 599 -225 479 -326 b 15 -190 140 -326 54 -281 b 43 -121 0 -161 10 -137 l 97 -94 b 164 -111 135 -78 149 -82 b 297 -182 185 -158 229 -182 b 471 -32 394 -182 453 -132 l 482 33 b 314 14 422 21 367 14 b 76 306 121 14 44 124 l 140 678 b 192 719 147 710 160 719 l 268 719 b 301 678 300 719 308 710 l 235 299 b 363 161 219 207 263 161 b 508 181 410 161 458 168 l 596 678 b 646 719 601 710 614 719 "},"z":{"ha":650,"x_min":0,"x_max":0,"o":"m 526 146 b 561 103 558 146 567 135 l 551 43 b 500 0 544 11 532 0 l 14 0 b -19 43 -18 0 -26 11 l -10 103 b 13 146 -6 121 1 136 l 428 574 l 122 574 b 88 617 90 574 82 585 l 97 678 b 149 719 104 710 117 719 l 621 719 b 656 678 653 719 661 710 l 646 617 b 621 571 642 599 633 583 l 203 146 "},"{":{"ha":485,"x_min":0,"x_max":0,"o":"m 557 1189 b 593 1146 589 1189 599 1178 l 582 1086 b 532 1043 578 1057 561 1043 l 467 1043 b 411 994 436 1043 418 1026 l 354 665 b 224 489 340 586 297 526 b 290 314 285 463 307 404 l 233 -10 b 272 -58 231 -42 243 -58 l 338 -58 b 374 -101 369 -58 378 -69 l 363 -161 b 311 -204 358 -190 340 -204 l 243 -204 b 81 -19 100 -204 57 -149 l 135 290 b 64 407 150 368 126 407 l 54 407 b 26 450 32 407 22 421 l 40 529 b 82 571 46 557 60 571 l 93 571 b 206 688 154 571 192 610 l 261 1003 b 486 1189 283 1132 346 1189 "},"|":{"ha":328,"x_min":0,"x_max":0,"o":"m 338 1189 b 374 1146 369 1189 379 1178 l 143 -161 b 92 -204 139 -190 121 -204 l 24 -204 b -11 -161 -8 -204 -17 -193 l 219 1146 b 269 1189 224 1175 240 1189 "},"}":{"ha":485,"x_min":0,"x_max":0,"o":"m 282 1189 b 440 1003 421 1189 464 1132 l 385 688 b 456 571 371 610 394 571 l 467 571 b 494 529 490 571 499 557 l 481 450 b 438 407 475 418 464 407 l 428 407 b 315 290 367 407 329 368 l 261 -19 b 33 -204 238 -151 176 -204 l -36 -204 b -69 -161 -68 -204 -76 -193 l -60 -101 b -10 -58 -56 -72 -39 -58 l 56 -58 b 110 -10 88 -58 106 -42 l 167 314 b 296 490 185 404 228 464 b 229 665 238 528 215 586 l 288 994 b 250 1043 293 1024 279 1043 l 185 1043 b 150 1086 153 1043 143 1054 l 160 1146 b 210 1189 167 1179 178 1189 "},"~":{"ha":769,"x_min":0,"x_max":0,"o":"m 132 482 b 314 549 189 526 250 549 b 435 525 353 549 393 540 b 531 501 476 510 508 501 b 622 533 560 501 590 513 b 683 531 651 556 665 554 l 721 490 b 708 424 739 467 735 444 b 525 356 649 378 588 356 b 406 381 488 356 447 364 b 310 404 364 396 332 404 b 219 372 278 404 247 393 b 157 374 188 349 178 350 l 121 415 b 132 482 100 439 104 461 "},"¡":{"ha":322,"x_min":0,"x_max":0,"o":"m 183 539 b 110 628 117 539 99 561 l 113 640 b 217 729 124 707 150 729 l 226 729 b 300 640 294 729 313 708 l 297 628 b 193 539 288 561 261 539 m -3 -308 b -37 -267 -35 -308 -44 -299 l 97 393 b 147 436 107 426 115 436 l 192 436 b 226 393 224 436 232 425 l 129 -267 b 78 -308 125 -294 108 -308 "},"¢":{"ha":739,"x_min":0,"x_max":0,"o":"m 642 226 b 660 164 674 214 681 199 b 408 -12 606 67 521 8 l 397 -74 b 346 -117 392 -106 379 -117 l 271 -117 b 236 -74 239 -117 231 -106 l 246 -15 b 63 275 94 7 35 114 l 96 467 b 378 733 125 624 213 707 l 390 804 b 442 847 394 833 413 847 l 517 847 b 551 804 550 847 557 838 l 539 733 b 721 554 643 715 704 656 b 683 494 726 519 718 507 l 622 476 b 567 506 588 464 574 472 b 433 599 554 568 510 599 b 257 463 332 599 272 553 l 221 257 b 349 121 206 167 247 121 b 517 217 425 121 481 153 b 582 244 535 250 550 256 "},"£":{"ha":890,"x_min":0,"x_max":0,"o":"m 233 729 b 351 929 247 810 286 876 b 600 1007 415 981 499 1007 b 899 793 768 1007 868 936 b 863 733 906 763 893 743 l 789 708 b 735 738 754 697 746 703 b 582 844 711 814 667 844 b 411 708 492 844 426 786 l 383 544 l 686 544 b 725 497 721 544 731 532 l 715 442 b 658 393 708 404 693 393 l 356 393 l 339 297 b 244 153 329 233 297 185 l 243 144 b 460 163 315 157 388 163 l 743 163 b 782 115 778 163 789 150 l 769 47 b 714 0 764 13 749 0 l 35 0 b -1 47 1 0 -7 13 l 11 117 b 44 156 17 143 28 156 l 54 156 b 157 296 108 169 142 217 l 174 393 l 111 393 b 74 442 76 393 67 404 l 82 497 b 139 544 89 532 104 544 l 200 544 "},"¤":{"ha":851,"x_min":0,"x_max":0,"o":"m 346 739 b 511 783 400 768 456 783 b 661 739 568 783 618 768 l 739 807 b 800 807 765 829 782 829 l 844 754 b 835 693 863 735 858 714 l 757 626 b 776 468 779 578 786 525 b 707 310 767 411 744 358 l 763 243 b 753 182 779 222 776 201 l 690 129 b 631 129 667 107 649 107 l 574 197 b 411 153 522 168 468 153 b 260 197 353 153 303 168 l 179 128 b 119 128 156 107 136 107 l 74 182 b 83 242 57 203 60 222 l 165 311 b 146 468 143 357 136 410 b 215 624 156 528 179 579 l 157 693 b 167 754 140 714 143 733 l 228 807 b 289 807 254 829 268 829 m 631 468 b 490 638 647 564 586 638 b 363 589 443 638 400 621 b 290 468 324 557 300 517 b 431 297 274 374 336 297 b 561 347 479 297 522 314 b 631 468 599 381 622 421 "},"¥":{"ha":919,"x_min":0,"x_max":0,"o":"m 950 986 b 965 939 983 986 988 965 l 628 515 l 736 515 b 771 474 768 515 776 503 l 764 432 b 715 390 757 400 744 390 l 543 390 l 529 310 l 700 310 b 735 268 729 310 739 300 l 726 226 b 678 185 722 194 710 185 l 507 185 l 483 47 b 428 0 478 13 463 0 l 349 0 b 310 47 314 0 303 13 l 333 185 l 163 185 b 128 226 131 185 124 194 l 138 268 b 186 310 142 300 154 310 l 356 310 l 371 390 l 200 390 b 165 432 168 390 160 403 l 172 474 b 221 515 179 506 192 515 l 331 515 l 142 939 b 174 986 129 971 139 986 l 254 986 b 339 944 314 986 326 983 l 489 574 l 768 944 b 867 986 794 983 807 986 "},"¦":{"ha":339,"x_min":0,"x_max":0,"o":"m 344 1189 b 379 1146 376 1189 385 1178 l 289 642 b 240 599 285 610 272 599 l 171 599 b 136 642 139 599 131 610 l 225 1146 b 275 1189 232 1179 243 1189 m 203 388 b 238 344 235 388 243 376 l 149 -160 b 99 -203 144 -189 128 -203 l 29 -203 b -6 -160 -3 -203 -11 -192 l 83 344 b 133 388 90 378 101 388 "},"§":{"ha":842,"x_min":0,"x_max":0,"o":"m 150 739 b 540 1008 178 906 314 1008 b 824 801 688 1008 782 939 b 790 738 835 767 825 753 l 725 711 b 664 736 690 696 675 701 b 511 843 643 807 593 843 b 324 728 400 843 338 804 b 367 650 318 690 331 665 b 485 621 403 633 425 631 b 681 572 581 606 646 590 b 772 363 760 533 790 464 b 647 176 757 285 715 222 b 710 -36 708 136 729 65 b 315 -304 682 -203 544 -304 b -12 -89 133 -304 14 -226 b 31 -25 -19 -57 -4 -36 l 104 0 b 164 -31 142 13 157 4 b 332 -142 178 -104 233 -142 b 536 -26 456 -142 524 -103 b 496 51 543 11 532 38 b 374 76 460 65 433 69 b 163 118 271 88 200 101 b 60 331 75 156 42 226 b 210 529 75 415 125 482 b 150 739 153 569 132 640 m 419 457 b 388 463 418 457 407 458 b 343 469 368 465 353 468 b 242 353 285 443 251 404 b 289 264 235 308 249 279 b 425 238 329 247 358 243 b 457 235 426 238 436 236 b 501 229 476 233 492 231 b 594 346 556 258 586 297 b 515 440 604 397 560 429 b 419 457 493 446 461 451 "},"¨":{"ha":610,"x_min":0,"x_max":0,"o":"m 285 985 b 344 913 340 985 354 967 l 342 900 b 256 828 332 844 311 828 l 247 828 b 186 900 192 828 176 846 l 189 913 b 275 985 199 967 219 985 m 563 985 b 622 913 618 985 632 968 l 619 900 b 535 828 610 844 590 828 l 525 828 b 464 900 469 828 454 846 l 467 913 b 553 985 476 967 497 985 "},"©":{"ha":1108,"x_min":0,"x_max":0,"o":"m 106 488 b 689 986 147 761 417 992 b 1018 842 828 986 938 938 b 1101 488 1097 746 1125 628 b 899 133 1078 347 1011 229 b 521 -11 786 38 660 -11 b 190 135 381 -11 271 38 b 106 488 110 232 82 350 m 1006 488 b 942 775 1026 601 1004 697 b 676 890 878 851 789 890 b 369 775 563 890 460 851 b 201 488 278 697 222 601 b 268 200 181 374 203 278 b 535 83 332 122 421 83 b 840 201 647 83 749 122 b 1006 488 931 279 986 375 m 406 560 b 649 751 426 678 515 751 b 828 626 756 751 815 710 b 799 582 832 600 825 592 l 758 568 b 721 590 732 558 722 564 b 631 647 711 633 688 647 b 514 560 564 647 525 618 l 489 411 b 574 321 478 354 508 321 b 682 381 625 321 661 340 b 731 403 696 404 713 411 l 765 389 b 779 344 786 381 790 365 b 556 218 732 260 657 218 b 379 411 422 218 358 293 "},"ª":{"ha":496,"x_min":0,"x_max":0,"o":"m 164 856 b 347 931 210 906 271 931 b 494 758 465 931 515 874 l 464 581 b 408 514 457 542 446 529 b 267 493 374 500 326 493 b 111 628 135 493 96 546 b 315 753 128 715 178 753 b 371 750 333 753 353 751 l 374 769 b 326 828 381 810 369 828 b 250 793 304 828 279 817 b 207 786 235 783 221 782 l 176 804 b 164 856 150 817 146 835 m 354 663 b 293 665 332 664 311 665 b 229 625 256 665 233 651 b 278 588 224 597 238 588 b 335 592 304 588 324 589 b 344 606 340 596 343 600 "},"«":{"ha":814,"x_min":0,"x_max":0,"o":"m 718 179 b 708 125 732 161 729 143 l 656 79 b 601 79 629 61 618 61 l 389 338 b 397 392 374 356 376 374 l 703 653 b 757 653 725 671 743 671 l 796 603 b 786 550 810 588 807 569 l 567 363 m 389 179 b 381 125 404 161 401 143 l 328 79 b 274 79 307 61 289 61 l 60 338 b 69 392 46 356 49 374 l 374 653 b 428 653 394 671 413 671 l 467 603 b 457 550 482 586 478 568 l 239 363 "},"¬":{"ha":813,"x_min":0,"x_max":0,"o":"m 717 571 b 753 528 749 571 758 560 l 701 236 b 651 193 694 203 683 193 l 576 193 b 540 236 544 193 535 204 l 574 419 l 115 419 b 81 463 83 419 75 431 l 92 528 b 142 571 99 561 110 571 "},"®":{"ha":649,"x_min":0,"x_max":0,"o":"m 174 526 b 126 717 129 579 114 643 b 239 907 139 790 176 854 b 443 986 300 960 368 986 b 619 907 517 986 575 960 b 665 717 663 854 678 790 b 554 526 653 642 615 578 b 350 447 493 474 425 447 b 174 526 276 447 217 474 m 189 717 b 224 569 179 660 190 610 b 361 507 257 528 303 507 b 519 568 419 507 472 528 b 606 717 567 608 596 658 b 571 864 615 774 604 824 b 436 925 538 904 493 925 b 275 865 376 925 322 906 b 189 717 228 825 199 775 m 439 851 b 525 760 499 851 535 817 b 454 678 517 717 493 689 l 488 606 b 469 582 496 590 490 582 l 444 582 b 419 596 433 582 425 586 l 390 671 l 346 671 l 333 597 b 314 582 332 588 326 582 l 285 582 b 271 597 272 582 269 586 l 313 835 b 333 851 314 846 321 851 m 356 728 l 419 728 b 458 761 443 728 456 739 b 431 792 463 779 451 792 l 367 792 "},"¯":{"ha":489,"x_min":0,"x_max":0,"o":"m 518 968 b 551 928 550 968 557 960 l 544 892 b 497 851 540 860 529 851 l 176 851 b 143 892 143 851 138 860 l 149 928 b 196 968 154 960 167 968 "},"°":{"ha":549,"x_min":0,"x_max":0,"o":"m 576 771 b 486 611 567 708 538 656 b 317 543 435 565 379 543 b 165 610 254 543 203 565 b 122 772 128 654 113 708 b 213 933 132 836 161 890 b 383 997 263 976 319 997 b 535 932 446 997 497 975 b 576 771 572 889 586 835 m 250 769 b 332 671 240 715 276 671 b 450 769 386 671 440 715 b 368 871 460 824 422 871 b 250 769 313 871 260 825 "},"±":{"ha":822,"x_min":0,"x_max":0,"o":"m 733 618 b 772 571 768 618 778 606 l 764 528 b 710 481 757 490 744 481 l 501 481 l 482 372 b 425 325 475 338 460 325 l 374 325 b 335 372 339 325 329 338 l 356 481 l 149 481 b 108 528 111 481 101 493 l 117 571 b 172 618 122 606 138 618 l 379 618 l 399 732 b 454 779 406 767 419 779 l 506 779 b 544 732 540 779 551 767 l 525 618 m 674 279 b 713 232 708 279 718 267 l 704 189 b 650 142 697 151 685 142 l 89 142 b 49 189 51 142 42 154 l 57 232 b 113 279 63 267 78 279 "},"²":{"ha":500,"x_min":0,"x_max":0,"o":"m 158 1001 b 388 1138 210 1092 286 1138 b 554 958 511 1138 571 1058 b 369 772 539 860 488 810 l 289 750 b 233 713 254 740 236 728 l 229 701 l 460 701 b 493 660 488 701 499 688 l 486 618 b 438 578 481 589 469 578 l 121 578 b 85 618 92 578 81 589 l 93 661 b 242 844 110 761 146 810 l 324 874 b 385 901 358 886 365 889 b 414 953 404 914 410 929 b 363 1008 419 986 401 1008 b 278 957 331 1008 301 992 b 214 926 256 922 249 915 l 178 942 b 158 1001 146 953 140 968 "},"³":{"ha":510,"x_min":0,"x_max":0,"o":"m 151 1001 b 388 1138 199 1092 278 1138 b 553 975 506 1138 568 1074 b 475 865 544 924 518 888 b 525 719 519 833 536 785 b 292 567 507 618 429 567 b 99 700 179 567 114 611 b 132 760 93 735 103 750 l 174 772 b 229 743 207 783 222 776 b 313 688 235 706 263 688 b 394 740 361 688 389 706 b 349 793 401 775 386 793 l 296 793 b 261 835 261 793 256 800 l 269 869 b 321 915 276 910 282 915 l 363 915 b 425 964 397 915 418 932 b 372 1017 431 999 413 1017 b 268 964 321 1017 286 999 b 194 935 246 925 233 919 l 169 944 b 151 1001 142 957 136 968 "},"´":{"ha":357,"x_min":0,"x_max":0,"o":"m 351 1014 b 429 1011 389 1033 415 1032 l 457 968 b 443 919 472 944 468 929 l 183 818 b 129 821 154 808 136 810 l 115 846 b 126 892 99 871 103 878 "},"µ":{"ha":775,"x_min":0,"x_max":0,"o":"m 711 719 b 746 678 743 719 751 710 l 646 106 b 579 28 639 61 624 46 b 344 -21 501 -4 424 -21 b 181 44 269 -21 215 1 l 126 -262 b 75 -306 122 -292 104 -306 l 0 -306 b -35 -262 -32 -306 -40 -294 l 131 678 b 181 719 136 710 149 719 l 257 719 b 292 678 289 719 297 710 l 219 263 b 346 126 203 172 244 126 b 478 144 393 126 438 132 b 496 165 486 146 492 153 l 585 678 b 636 719 590 710 603 719 "},"¶":{"ha":796,"x_min":0,"x_max":0,"o":"m 781 986 b 817 943 813 986 822 975 l 636 -81 b 585 -124 629 -112 617 -124 l 521 -124 b 486 -81 488 -124 481 -114 l 644 825 l 565 825 l 406 -81 b 354 -124 400 -112 388 -124 l 290 -124 b 257 -81 258 -124 250 -112 l 343 408 b 158 496 261 410 200 439 b 118 708 117 553 103 624 b 454 986 147 879 281 986 "},"·":{"ha":351,"x_min":0,"x_max":0,"o":"m 201 490 b 275 401 268 490 286 468 l 272 389 b 168 300 260 321 235 300 l 157 300 b 85 389 90 300 72 321 l 86 401 b 192 490 97 468 124 490 "},"¸":{"ha":349,"x_min":0,"x_max":0,"o":"m 122 -90 b 139 -89 126 -90 133 -89 b 239 -217 222 -89 261 -143 b 31 -346 215 -306 131 -346 b -67 -322 -8 -346 -40 -337 b -85 -283 -82 -315 -87 -303 l -78 -242 b -53 -225 -76 -222 -68 -217 b 26 -249 -25 -240 1 -249 b 108 -199 75 -249 101 -232 b 51 -157 114 -172 92 -157 b 17 -158 36 -157 24 -157 b 3 -125 -7 -160 -12 -149 l 78 0 l 172 0 "},"¹":{"ha":388,"x_min":0,"x_max":0,"o":"m 406 1126 b 449 1079 440 1126 454 1113 l 368 625 b 313 578 363 590 350 578 l 272 578 b 233 625 235 578 226 590 l 292 956 l 210 914 b 146 931 178 899 157 904 l 131 964 b 164 1029 121 990 132 1013 l 326 1113 b 383 1126 342 1122 361 1126 "},"º":{"ha":504,"x_min":0,"x_max":0,"o":"m 139 769 b 354 931 157 876 229 931 b 514 753 478 931 535 860 l 496 656 b 278 494 478 549 404 494 b 119 671 157 494 99 564 m 388 767 b 336 818 393 799 375 818 b 265 767 296 818 272 801 l 247 658 b 299 607 242 624 258 607 b 369 658 339 607 363 624 "},"»":{"ha":818,"x_min":0,"x_max":0,"o":"m 119 556 b 129 608 106 574 108 592 l 185 657 b 239 657 207 675 225 675 l 457 392 b 447 338 474 371 471 358 l 144 81 b 90 81 124 63 106 63 l 47 131 b 57 185 32 149 36 167 l 275 368 m 449 556 b 458 608 433 575 436 593 l 518 653 b 571 653 539 669 557 669 l 785 392 b 776 338 801 371 799 358 l 476 83 b 422 83 458 65 440 65 l 376 131 b 386 185 361 149 364 167 l 601 368 "},"¼":{"ha":1189,"x_min":0,"x_max":0,"o":"m 406 994 b 450 947 443 994 456 981 l 369 492 b 314 444 363 457 349 444 l 272 444 b 233 492 238 444 228 457 l 293 824 l 210 782 b 146 799 179 767 158 772 l 132 832 b 165 896 122 858 133 879 l 326 981 b 385 994 343 990 363 994 m 1033 986 b 1057 940 1067 986 1074 964 l 396 42 b 303 0 368 4 358 0 l 249 0 b 225 47 215 0 207 21 l 886 947 b 974 986 913 981 922 986 m 1083 228 b 1118 192 1118 228 1124 221 l 1111 153 b 1064 115 1106 121 1099 115 l 1038 115 l 1025 39 b 979 0 1018 7 1008 0 l 926 0 b 897 39 897 0 892 7 l 910 115 l 675 115 b 643 157 643 115 636 124 l 647 190 b 669 233 651 208 660 224 l 956 525 b 1015 549 971 540 992 549 l 1074 549 b 1107 507 1108 549 1114 544 l 1058 228 m 957 381 l 806 228 l 931 228 "},"½":{"ha":1235,"x_min":0,"x_max":0,"o":"m 406 994 b 450 947 443 994 456 981 l 369 492 b 314 444 363 457 349 444 l 272 444 b 233 492 238 444 228 457 l 293 824 l 210 782 b 146 799 179 767 158 772 l 132 832 b 165 896 122 858 133 879 l 326 981 b 385 994 343 990 363 994 m 1022 986 b 1044 940 1054 986 1061 964 l 383 42 b 292 0 357 4 347 0 l 236 0 b 213 47 203 0 194 21 l 875 947 b 961 986 901 981 911 986 m 793 425 b 1024 560 844 515 922 560 b 1190 381 1147 560 1207 481 b 1006 196 1174 282 1122 231 l 925 174 b 868 136 890 164 872 151 l 865 124 l 1094 124 b 1128 82 1126 124 1135 111 l 1121 40 b 1074 0 1117 14 1101 0 l 757 0 b 721 42 725 0 715 10 l 728 83 b 878 267 746 183 782 232 l 960 297 b 1050 375 1018 318 1035 324 b 999 432 1056 408 1038 432 b 914 379 964 432 935 414 b 849 350 892 344 882 339 l 813 364 b 793 425 783 375 778 396 "},"¾":{"ha":1238,"x_min":0,"x_max":0,"o":"m 136 871 b 372 1006 185 961 263 1006 b 538 844 490 1006 553 943 b 460 733 529 794 503 757 b 510 588 504 701 521 653 b 276 435 492 486 414 435 b 83 568 164 435 99 479 b 117 628 78 603 88 618 l 158 642 b 214 613 192 653 207 646 b 297 557 219 575 247 557 b 379 608 344 557 372 574 b 333 663 385 644 369 663 l 281 663 b 246 704 246 663 240 667 l 253 739 b 306 783 263 779 265 783 l 346 783 b 410 833 382 783 403 800 b 357 886 415 868 397 886 b 253 833 306 886 271 868 b 179 804 231 793 218 789 l 154 814 b 136 871 125 825 119 838 m 1076 986 b 1099 940 1108 986 1117 964 l 439 42 b 346 0 411 4 401 0 l 290 0 b 267 47 257 0 249 21 l 929 947 b 1015 986 956 981 965 986 m 1126 228 b 1161 190 1161 228 1167 219 l 1154 151 b 1107 114 1149 119 1142 114 l 1081 114 l 1068 38 b 1022 -1 1063 6 1051 -1 l 969 -1 b 940 38 940 -1 935 6 l 953 114 l 718 114 b 686 156 686 114 679 122 l 690 189 b 713 232 694 207 703 222 l 999 524 b 1058 547 1014 539 1035 547 l 1117 547 b 1150 506 1151 547 1157 543 l 1101 228 m 1000 381 l 849 228 l 974 228 "},"¿":{"ha":785,"x_min":0,"x_max":0,"o":"m 465 538 b 393 626 399 538 382 560 l 394 639 b 500 728 407 707 432 728 l 510 728 b 583 639 578 728 594 707 l 581 626 b 476 538 569 560 543 538 m 676 -85 b 288 -308 593 -231 478 -308 b 47 -224 182 -308 101 -281 b -12 -15 -7 -167 -28 -97 b 54 146 -1 51 29 111 b 107 199 67 163 83 181 b 218 269 156 238 160 238 b 269 296 244 283 263 292 b 378 417 335 333 368 363 b 432 461 385 451 399 461 l 486 461 b 524 417 519 461 531 450 b 349 185 503 299 444 242 b 293 154 342 181 303 158 b 268 139 289 151 281 146 b 221 101 243 122 240 117 b 160 -14 190 72 168 36 b 308 -156 144 -99 197 -156 b 536 -26 408 -156 485 -112 b 601 4 560 11 572 17 l 658 -25 b 676 -85 690 -42 694 -51 "},"À":{"ha":911,"x_min":0,"x_max":0,"o":"m 510 1250 b 588 1253 531 1271 556 1271 l 771 1132 b 767 1086 789 1122 788 1107 l 743 1061 b 689 1058 731 1049 713 1049 l 464 1158 b 465 1207 438 1169 439 1181 m 858 46 b 819 0 865 15 851 0 l 754 0 b 675 42 694 0 679 8 l 642 221 l 258 221 l 161 42 b 68 0 144 8 128 0 l -1 0 b -25 46 -35 0 -43 15 l 482 949 b 546 988 499 981 513 988 l 619 988 b 672 950 653 988 667 979 m 564 657 b 560 822 549 733 560 807 l 561 826 l 553 826 b 492 658 556 829 533 739 l 333 364 l 618 364 "},"Á":{"ha":911,"x_min":0,"x_max":0,"o":"m 678 1256 b 756 1253 715 1275 740 1274 l 783 1208 b 769 1161 800 1185 797 1172 l 510 1060 b 456 1061 481 1050 463 1050 l 442 1088 b 451 1132 428 1108 431 1122 m 858 46 b 819 0 865 15 851 0 l 754 0 b 675 42 694 0 679 8 l 642 221 l 258 221 l 161 42 b 68 0 144 8 128 0 l -1 0 b -25 46 -35 0 -43 15 l 482 949 b 546 988 499 981 513 988 l 619 988 b 672 950 653 988 667 979 m 564 657 b 560 822 549 733 560 807 l 561 826 l 553 826 b 492 658 556 829 533 739 l 333 364 l 618 364 "},"Â":{"ha":911,"x_min":0,"x_max":0,"o":"m 644 1263 b 714 1225 679 1263 688 1260 l 832 1089 b 806 1054 847 1065 839 1054 l 749 1054 b 683 1079 717 1054 696 1063 l 619 1158 l 521 1079 b 451 1054 494 1057 489 1054 l 388 1054 b 374 1089 354 1054 351 1071 l 539 1225 b 628 1263 578 1260 588 1263 m 858 46 b 819 0 865 15 851 0 l 754 0 b 675 42 694 0 679 8 l 642 221 l 258 221 l 161 42 b 68 0 144 8 128 0 l -1 0 b -25 46 -35 0 -43 15 l 482 949 b 546 988 499 981 513 988 l 619 988 b 672 950 653 988 667 979 m 564 657 b 560 822 549 733 560 807 l 561 826 l 553 826 b 492 658 556 829 533 739 l 333 364 l 618 364 "},"Ã":{"ha":911,"x_min":0,"x_max":0,"o":"m 808 1243 b 831 1217 826 1243 835 1235 b 686 1063 813 1106 769 1063 b 593 1103 654 1063 624 1076 b 521 1142 563 1129 539 1142 b 479 1089 499 1142 485 1124 b 449 1063 475 1071 465 1063 l 403 1063 b 382 1089 385 1063 378 1071 b 524 1243 400 1200 446 1243 b 622 1204 558 1243 592 1231 b 693 1164 653 1178 676 1164 b 735 1217 714 1164 728 1182 b 764 1243 738 1235 747 1243 m 858 46 b 819 0 865 15 851 0 l 754 0 b 675 42 694 0 679 8 l 642 221 l 258 221 l 161 42 b 68 0 144 8 128 0 l -1 0 b -25 46 -35 0 -43 15 l 482 949 b 546 988 499 981 513 988 l 619 988 b 672 950 653 988 667 979 m 564 657 b 560 822 549 733 560 807 l 561 826 l 553 826 b 492 658 556 829 533 739 l 333 364 l 618 364 "},"Ä":{"ha":911,"x_min":0,"x_max":0,"o":"m 492 1233 b 553 1161 547 1233 563 1215 l 550 1147 b 464 1075 540 1093 519 1075 l 454 1075 b 396 1147 399 1075 386 1092 l 397 1161 b 482 1233 407 1215 426 1233 m 769 1233 b 831 1161 825 1233 840 1215 l 828 1147 b 742 1075 818 1093 797 1075 l 733 1075 b 672 1147 676 1075 663 1093 l 675 1161 b 761 1233 685 1215 706 1233 m 858 46 b 819 0 865 15 851 0 l 754 0 b 675 42 694 0 679 8 l 642 221 l 258 221 l 161 42 b 68 0 144 8 128 0 l -1 0 b -25 46 -35 0 -43 15 l 482 949 b 546 988 499 981 513 988 l 619 988 b 672 950 653 988 667 979 m 564 657 b 560 822 549 733 560 807 l 561 826 l 553 826 b 492 658 556 829 533 739 l 333 364 l 618 364 "},"Å":{"ha":913,"x_min":0,"x_max":0,"o":"m 418 1067 b 629 1240 435 1168 522 1240 b 774 1065 731 1240 792 1167 b 676 928 764 1003 731 957 l 858 46 b 819 0 865 15 851 0 l 754 0 b 675 42 694 0 679 8 l 642 221 l 258 221 l 161 42 b 68 0 144 8 128 0 l -1 0 b -25 46 -35 0 -43 15 l 469 926 b 418 1067 425 956 408 1003 m 676 1065 b 613 1146 686 1114 661 1146 b 515 1065 563 1146 522 1115 b 583 986 506 1019 533 986 b 676 1065 629 986 669 1019 m 564 657 b 560 822 549 733 560 807 l 561 826 l 553 826 b 492 658 556 829 533 739 l 333 364 l 618 364 "},"Æ":{"ha":1192,"x_min":0,"x_max":0,"o":"m 1085 163 b 1124 115 1119 163 1131 150 l 1111 47 b 1056 0 1106 13 1090 0 l 592 0 b 553 47 557 0 546 13 l 581 207 l 289 207 l 160 42 b 65 0 136 8 121 0 l -14 0 b -36 46 -47 0 -54 15 l 678 947 b 742 986 701 979 713 986 l 1214 986 b 1253 939 1249 986 1260 974 l 1242 871 b 1186 824 1238 839 1218 824 l 853 824 l 811 581 l 1076 581 b 1117 533 1111 581 1122 568 l 1104 465 b 1047 418 1097 431 1082 418 l 781 418 l 736 163 m 668 706 l 400 350 l 606 350 "},"Ç":{"ha":883,"x_min":0,"x_max":0,"o":"m 594 1007 b 922 771 788 1007 896 928 b 885 711 928 736 919 722 l 815 688 b 760 717 778 675 767 682 b 569 844 743 801 679 844 b 313 647 425 844 333 775 l 258 340 b 446 142 235 213 301 142 b 681 271 556 142 635 185 b 747 300 701 306 715 313 l 822 271 b 840 210 854 260 858 244 b 490 -17 768 75 651 -1 l 449 -90 l 465 -90 b 565 -217 549 -90 588 -144 b 357 -346 542 -306 457 -346 b 260 -322 317 -346 283 -337 b 243 -283 244 -315 239 -301 l 250 -242 b 274 -225 251 -224 260 -218 b 353 -249 301 -240 328 -249 b 435 -200 401 -249 428 -232 b 378 -157 440 -172 421 -157 b 343 -160 369 -157 358 -158 b 329 -125 321 -160 317 -149 l 393 -19 b 85 350 160 -10 47 132 l 138 654 b 594 1007 178 878 340 1007 "},"È":{"ha":804,"x_min":0,"x_max":0,"o":"m 453 1250 b 532 1253 474 1271 500 1272 l 715 1132 b 710 1086 732 1122 731 1107 l 686 1061 b 632 1058 675 1049 657 1049 l 407 1158 b 410 1207 383 1169 383 1181 m 801 986 b 842 939 839 986 849 974 l 829 871 b 774 824 824 836 808 824 l 347 824 l 306 581 l 665 581 b 704 533 700 581 710 568 l 692 465 b 635 418 685 431 669 418 l 275 418 l 231 163 l 672 163 b 711 115 707 163 718 150 l 699 47 b 643 0 693 13 678 0 l 75 0 b 36 47 40 0 31 13 l 193 939 b 249 986 200 974 214 986 "},"É":{"ha":804,"x_min":0,"x_max":0,"o":"m 621 1256 b 700 1253 658 1275 685 1274 l 726 1208 b 713 1161 744 1185 742 1172 l 454 1060 b 400 1061 425 1050 407 1050 l 385 1088 b 394 1132 372 1108 375 1122 m 801 986 b 842 939 839 986 849 974 l 829 871 b 774 824 824 836 808 824 l 347 824 l 306 581 l 665 581 b 704 533 700 581 710 568 l 692 465 b 635 418 685 431 669 418 l 275 418 l 231 163 l 672 163 b 711 115 707 163 718 150 l 699 47 b 643 0 693 13 678 0 l 75 0 b 36 47 40 0 31 13 l 193 939 b 249 986 200 974 214 986 "},"Ê":{"ha":804,"x_min":0,"x_max":0,"o":"m 589 1263 b 658 1225 622 1263 632 1260 l 776 1089 b 750 1054 792 1071 783 1054 l 692 1054 b 628 1079 660 1054 639 1063 l 563 1158 l 464 1079 b 394 1054 440 1057 432 1054 l 332 1054 b 318 1089 297 1054 296 1071 l 482 1225 b 571 1263 521 1260 531 1263 m 801 986 b 842 939 839 986 849 974 l 829 871 b 774 824 824 836 808 824 l 347 824 l 306 581 l 665 581 b 704 533 700 581 710 568 l 692 465 b 635 418 685 431 669 418 l 275 418 l 231 163 l 672 163 b 711 115 707 163 718 150 l 699 47 b 643 0 693 13 678 0 l 75 0 b 36 47 40 0 31 13 l 193 939 b 249 986 200 974 214 986 "},"Ë":{"ha":804,"x_min":0,"x_max":0,"o":"m 435 1233 b 496 1161 490 1233 506 1215 l 494 1147 b 407 1075 485 1093 463 1075 l 397 1075 b 339 1147 343 1075 329 1093 l 342 1161 b 426 1233 351 1215 371 1233 m 714 1233 b 774 1161 769 1233 783 1215 l 771 1147 b 686 1075 761 1093 740 1075 l 676 1075 b 617 1147 621 1075 607 1093 l 618 1161 b 704 1233 628 1215 649 1233 m 801 986 b 842 939 839 986 849 974 l 829 871 b 774 824 824 836 808 824 l 347 824 l 306 581 l 665 581 b 704 533 700 581 710 568 l 692 465 b 635 418 685 431 669 418 l 275 418 l 231 163 l 672 163 b 711 115 707 163 718 150 l 699 47 b 643 0 693 13 678 0 l 75 0 b 36 47 40 0 31 13 l 193 939 b 249 986 200 974 214 986 "},"Ì":{"ha":369,"x_min":0,"x_max":0,"o":"m 217 1250 b 294 1253 238 1271 263 1272 l 478 1132 b 474 1086 499 1119 496 1110 l 450 1061 b 396 1058 438 1049 419 1049 l 171 1158 b 172 1207 144 1169 146 1181 m 193 939 b 249 986 200 974 214 986 l 329 986 b 368 939 364 986 375 974 l 211 47 b 156 0 204 13 190 0 l 75 0 b 36 47 40 0 31 13 "},"Í":{"ha":369,"x_min":0,"x_max":0,"o":"m 385 1256 b 463 1253 422 1275 447 1274 l 490 1208 b 476 1161 507 1185 504 1172 l 217 1060 b 163 1061 188 1050 169 1050 l 149 1088 b 158 1132 135 1108 138 1122 m 193 939 b 249 986 200 974 214 986 l 329 986 b 368 939 364 986 375 974 l 211 47 b 156 0 204 13 190 0 l 75 0 b 36 47 40 0 31 13 "},"Î":{"ha":369,"x_min":0,"x_max":0,"o":"m 351 1263 b 421 1225 385 1263 394 1260 l 539 1089 b 513 1054 554 1065 546 1054 l 456 1054 b 390 1079 418 1054 407 1058 l 325 1158 l 228 1079 b 158 1054 201 1057 196 1054 l 94 1054 b 81 1089 60 1054 58 1071 l 244 1225 b 335 1263 285 1260 294 1263 m 193 939 b 249 986 200 974 214 986 l 329 986 b 368 939 364 986 375 974 l 211 47 b 156 0 204 13 190 0 l 75 0 b 36 47 40 0 31 13 "},"Ï":{"ha":369,"x_min":0,"x_max":0,"o":"m 199 1233 b 260 1161 254 1233 269 1215 l 257 1147 b 171 1075 247 1093 226 1075 l 161 1075 b 101 1147 106 1075 92 1093 l 104 1161 b 189 1233 114 1215 133 1233 m 476 1233 b 538 1161 532 1233 547 1215 l 535 1147 b 449 1075 525 1093 504 1075 l 439 1075 b 379 1147 383 1075 369 1093 l 382 1161 b 468 1233 392 1215 413 1233 m 193 939 b 249 986 200 974 214 986 l 329 986 b 368 939 364 986 375 974 l 211 47 b 156 0 204 13 190 0 l 75 0 b 36 47 40 0 31 13 "},"Ð":{"ha":947,"x_min":0,"x_max":0,"o":"m 579 986 b 858 882 706 986 799 951 b 915 604 917 813 936 719 l 871 351 b 406 0 831 124 671 0 l 93 0 b 54 47 58 0 49 13 l 126 453 l 44 453 b 21 483 22 453 17 460 l 31 535 b 64 565 35 556 46 565 l 146 565 l 211 939 b 267 986 218 974 232 986 m 743 621 b 551 824 767 756 703 824 l 365 824 l 321 565 l 506 565 b 526 535 526 565 531 558 l 518 483 b 485 453 514 460 507 453 l 300 453 l 249 163 l 435 163 b 699 365 581 163 675 233 "},"Ñ":{"ha":969,"x_min":0,"x_max":0,"o":"m 815 1243 b 838 1217 833 1243 842 1235 b 693 1063 819 1106 775 1063 b 528 1142 617 1063 575 1142 b 486 1089 506 1142 492 1124 b 456 1063 482 1071 472 1063 l 410 1063 b 389 1089 392 1063 385 1071 b 531 1243 407 1200 453 1243 b 629 1204 565 1243 599 1231 b 700 1164 660 1178 683 1164 b 742 1217 721 1164 735 1182 b 771 1243 744 1235 754 1243 m 928 986 b 967 939 963 986 974 974 l 810 47 b 754 0 806 15 786 0 l 675 0 b 633 24 654 0 640 8 l 383 526 b 313 760 340 611 311 764 l 304 760 b 285 483 304 763 304 600 l 208 47 b 153 0 204 15 185 0 l 75 0 b 36 47 40 0 31 13 l 193 939 b 249 986 200 974 214 986 l 322 986 b 368 964 343 986 358 979 l 617 464 b 674 310 640 415 663 350 b 692 228 683 269 690 229 l 700 228 b 718 508 700 226 699 383 l 794 939 b 850 986 801 974 815 986 "},"Ò":{"ha":931,"x_min":0,"x_max":0,"o":"m 525 1264 b 604 1267 546 1285 572 1286 l 788 1146 b 782 1100 804 1136 803 1121 l 758 1075 b 706 1072 747 1063 729 1063 l 479 1172 b 482 1221 456 1183 456 1194 m 140 656 b 594 1007 179 879 340 1007 b 929 632 846 1007 968 860 l 876 328 b 424 -21 838 104 678 -21 b 86 351 172 -21 47 124 m 760 646 b 571 844 781 775 714 844 b 314 646 428 844 336 774 l 260 340 b 447 142 236 213 304 142 b 704 340 590 142 682 211 "},"Ó":{"ha":931,"x_min":0,"x_max":0,"o":"m 693 1269 b 772 1267 731 1289 757 1288 l 800 1222 b 785 1175 817 1199 814 1186 l 526 1074 b 472 1075 497 1064 479 1064 l 457 1101 b 467 1146 444 1122 447 1136 m 140 656 b 594 1007 179 879 340 1007 b 929 632 846 1007 968 860 l 876 328 b 424 -21 838 104 678 -21 b 86 351 172 -21 47 124 m 760 646 b 571 844 781 775 714 844 b 314 646 428 844 336 774 l 260 340 b 447 142 236 213 304 142 b 704 340 590 142 682 211 "},"Ô":{"ha":931,"x_min":0,"x_max":0,"o":"m 661 1276 b 731 1239 694 1276 704 1274 l 849 1103 b 822 1068 864 1079 856 1068 l 765 1068 b 700 1093 733 1068 711 1076 l 635 1172 l 536 1093 b 467 1068 513 1071 504 1068 l 404 1068 b 390 1103 369 1068 368 1085 l 554 1239 b 644 1276 594 1274 601 1276 m 140 656 b 594 1007 179 879 340 1007 b 929 632 846 1007 968 860 l 876 328 b 424 -21 838 104 678 -21 b 86 351 172 -21 47 124 m 760 646 b 571 844 781 775 714 844 b 314 646 428 844 336 774 l 260 340 b 447 142 236 213 304 142 b 704 340 590 142 682 211 "},"Õ":{"ha":931,"x_min":0,"x_max":0,"o":"m 825 1257 b 847 1231 843 1257 850 1249 b 703 1076 826 1119 785 1076 b 538 1156 626 1076 585 1156 b 496 1103 515 1156 501 1138 b 465 1076 492 1085 482 1076 l 419 1076 b 399 1103 401 1076 394 1085 b 540 1257 417 1214 463 1257 b 708 1178 625 1257 664 1178 b 750 1231 731 1178 744 1196 b 781 1257 754 1249 764 1257 m 140 656 b 594 1007 179 879 340 1007 b 929 632 846 1007 968 860 l 876 328 b 424 -21 838 104 678 -21 b 86 351 172 -21 47 124 m 760 646 b 571 844 781 775 714 844 b 314 646 428 844 336 774 l 260 340 b 447 142 236 213 304 142 b 704 340 590 142 682 211 "},"Ö":{"ha":931,"x_min":0,"x_max":0,"o":"m 508 1247 b 569 1175 564 1247 579 1229 l 567 1161 b 479 1089 557 1107 536 1089 l 471 1089 b 411 1161 415 1089 401 1107 l 414 1175 b 499 1247 424 1229 443 1247 m 786 1247 b 846 1175 842 1247 856 1229 l 844 1161 b 758 1089 835 1107 814 1089 l 749 1089 b 689 1161 693 1089 679 1107 l 692 1175 b 776 1247 701 1229 721 1247 m 140 656 b 594 1007 179 879 340 1007 b 929 632 846 1007 968 860 l 876 328 b 424 -21 838 104 678 -21 b 86 351 172 -21 47 124 m 760 646 b 571 844 781 775 714 844 b 314 646 428 844 336 774 l 260 340 b 447 142 236 213 304 142 b 704 340 590 142 682 211 "},"×":{"ha":708,"x_min":0,"x_max":0,"o":"m 628 283 b 615 218 644 260 640 239 l 572 181 b 507 181 543 157 528 157 l 368 349 l 174 182 b 108 182 147 161 126 161 l 78 221 b 89 285 60 242 63 263 l 285 451 l 147 618 b 158 682 131 642 135 663 l 203 719 b 267 719 229 742 250 742 l 406 553 l 601 721 b 667 721 633 744 646 744 l 699 683 b 686 618 715 661 711 639 l 489 451 "},"Ø":{"ha":932,"x_min":0,"x_max":0,"o":"m 994 1046 b 1000 1031 1004 1046 1006 1040 l 875 878 b 913 632 918 813 931 731 l 860 328 b 407 -21 821 104 661 -21 b 188 33 314 -21 242 -3 l 126 -40 b 93 -54 119 -50 108 -54 l 3 -54 b -1 -39 -8 -54 -10 -49 l 113 103 b 69 351 67 167 53 250 l 124 656 b 578 1007 163 879 324 1007 b 803 947 671 1007 746 988 l 871 1032 b 901 1046 879 1042 889 1046 m 690 810 b 554 844 657 833 611 844 b 297 646 411 844 319 774 l 243 340 b 247 267 238 311 239 288 m 743 646 b 740 711 747 669 746 692 l 300 174 b 431 142 332 153 376 142 b 688 340 574 142 665 211 "},"Ù":{"ha":956,"x_min":0,"x_max":0,"o":"m 535 1250 b 614 1253 556 1271 582 1272 l 797 1132 b 792 1086 814 1122 813 1107 l 768 1061 b 715 1058 757 1049 739 1049 l 489 1158 b 492 1207 465 1169 465 1181 m 281 338 b 460 142 258 211 319 142 b 708 338 600 142 686 211 l 814 939 b 869 986 821 974 835 986 l 949 986 b 989 939 983 986 994 974 l 879 322 b 435 -21 840 100 689 -21 b 163 83 310 -21 219 14 b 108 356 106 153 88 243 l 213 939 b 268 986 218 974 233 986 l 347 986 b 386 939 382 986 393 974 "},"Ú":{"ha":956,"x_min":0,"x_max":0,"o":"m 703 1256 b 782 1253 740 1275 767 1274 l 810 1208 b 794 1161 826 1185 824 1172 l 536 1060 b 482 1061 507 1050 489 1050 l 467 1088 b 476 1132 454 1108 457 1122 m 281 338 b 460 142 258 211 319 142 b 708 338 600 142 686 211 l 814 939 b 869 986 821 974 835 986 l 949 986 b 989 939 983 986 994 974 l 879 322 b 435 -21 840 100 689 -21 b 163 83 310 -21 219 14 b 108 356 106 153 88 243 l 213 939 b 268 986 218 974 233 986 l 347 986 b 386 939 382 986 393 974 "},"Û":{"ha":956,"x_min":0,"x_max":0,"o":"m 671 1263 b 740 1225 704 1263 714 1260 l 858 1089 b 832 1054 874 1065 865 1054 l 775 1054 b 710 1079 743 1054 721 1063 l 644 1158 l 546 1079 b 476 1054 522 1057 514 1054 l 414 1054 b 400 1089 379 1054 378 1071 l 564 1225 b 654 1263 604 1260 611 1263 m 281 338 b 460 142 258 211 319 142 b 708 338 600 142 686 211 l 814 939 b 869 986 821 974 835 986 l 949 986 b 989 939 983 986 994 974 l 879 322 b 435 -21 840 100 689 -21 b 163 83 310 -21 219 14 b 108 356 106 153 88 243 l 213 939 b 268 986 218 974 233 986 l 347 986 b 386 939 382 986 393 974 "},"Ü":{"ha":956,"x_min":0,"x_max":0,"o":"m 518 1233 b 579 1161 574 1233 589 1215 l 576 1147 b 489 1075 567 1093 546 1075 l 481 1075 b 421 1147 425 1075 411 1093 l 424 1161 b 508 1233 433 1215 453 1233 m 796 1233 b 856 1161 851 1233 865 1215 l 854 1147 b 768 1075 844 1093 824 1075 l 758 1075 b 699 1147 703 1075 689 1093 l 701 1161 b 786 1233 711 1215 731 1233 m 281 338 b 460 142 258 211 319 142 b 708 338 600 142 686 211 l 814 939 b 869 986 821 974 835 986 l 949 986 b 989 939 983 986 994 974 l 879 322 b 435 -21 840 100 689 -21 b 163 83 310 -21 219 14 b 108 356 106 153 88 243 l 213 939 b 268 986 218 974 233 986 l 347 986 b 386 939 382 986 393 974 "},"Ý":{"ha":889,"x_min":0,"x_max":0,"o":"m 651 1256 b 731 1253 689 1275 715 1274 l 758 1208 b 743 1161 775 1185 772 1172 l 485 1060 b 431 1061 456 1050 438 1050 l 417 1088 b 426 1132 403 1108 406 1122 m 956 986 b 971 939 988 986 992 965 l 535 389 l 475 47 b 419 0 468 13 454 0 l 339 0 b 300 47 304 0 294 13 l 361 392 l 118 939 b 151 986 107 967 118 986 l 244 986 b 329 944 304 986 314 983 l 481 569 l 764 944 b 864 986 792 983 804 986 "},"Þ":{"ha":874,"x_min":0,"x_max":0,"o":"m 578 835 b 808 739 681 835 757 803 b 856 486 858 675 874 590 b 458 164 821 281 669 164 l 231 164 l 211 47 b 156 0 204 13 190 0 l 75 0 b 36 47 40 0 31 13 l 193 939 b 249 986 200 974 214 986 l 329 986 b 368 939 364 986 375 974 l 350 835 m 471 326 b 676 499 578 326 660 397 b 532 672 694 603 639 672 l 321 672 l 260 326 "},"ß":{"ha":765,"x_min":0,"x_max":0,"o":"m 142 740 b 490 1042 175 924 300 1042 b 742 743 686 1042 774 922 b 604 543 724 650 678 583 l 604 539 b 700 286 690 503 722 418 b 350 0 667 103 539 0 l 278 0 b 239 47 243 0 233 13 l 251 115 b 307 163 258 150 272 163 l 361 163 b 526 307 453 163 508 211 b 415 450 542 396 500 450 l 358 450 b 319 497 324 450 314 463 l 331 560 b 388 607 338 594 350 607 l 428 607 b 571 740 504 607 558 661 b 461 879 588 833 551 879 b 300 735 376 879 317 824 l 179 47 b 124 0 174 13 158 0 l 58 0 b 18 47 24 0 13 13 "},"à":{"ha":747,"x_min":0,"x_max":0,"o":"m 392 1010 b 471 1013 414 1031 440 1031 l 653 889 b 647 844 669 879 668 865 l 624 819 b 571 817 613 807 594 807 l 346 918 b 349 967 322 931 325 940 m 90 468 b 450 740 122 657 235 740 b 694 697 556 740 638 726 b 732 621 735 676 739 665 l 633 65 b 582 13 628 33 617 22 b 301 -21 490 -10 397 -21 b 56 279 108 -21 22 97 m 549 578 b 436 593 515 588 478 593 b 246 447 324 593 264 551 l 214 267 b 340 126 199 174 240 126 b 486 144 386 126 435 132 l 560 560 b 549 578 563 568 558 574 "},"á":{"ha":747,"x_min":0,"x_max":0,"o":"m 558 1013 b 638 1010 597 1031 624 1031 l 665 965 b 650 918 682 940 682 929 l 392 817 b 338 819 363 807 344 807 l 322 844 b 333 889 310 865 313 879 m 90 468 b 450 740 122 657 235 740 b 694 697 556 740 638 726 b 732 621 735 676 739 665 l 633 65 b 582 13 628 33 617 22 b 301 -21 490 -10 397 -21 b 56 279 108 -21 22 97 m 549 578 b 436 593 515 588 478 593 b 246 447 324 593 264 551 l 214 267 b 340 126 199 174 240 126 b 486 144 386 126 435 132 l 560 560 b 549 578 563 568 558 574 "},"â":{"ha":747,"x_min":0,"x_max":0,"o":"m 526 1018 b 597 981 560 1018 569 1015 l 713 844 b 686 810 729 826 721 810 l 632 810 b 568 833 600 810 579 818 l 501 914 l 406 833 b 336 810 379 811 371 810 l 269 810 b 254 844 236 810 231 821 l 421 981 b 508 1018 460 1015 468 1018 m 90 468 b 450 740 122 657 235 740 b 694 697 556 740 638 726 b 732 621 735 676 739 665 l 633 65 b 582 13 628 33 617 22 b 301 -21 490 -10 397 -21 b 56 279 108 -21 22 97 m 549 578 b 436 593 515 588 478 593 b 246 447 324 593 264 551 l 214 267 b 340 126 199 174 240 126 b 486 144 386 126 435 132 l 560 560 b 549 578 563 568 558 574 "},"ã":{"ha":747,"x_min":0,"x_max":0,"o":"m 692 1006 b 713 979 710 1006 717 997 b 569 824 694 867 651 824 b 475 864 538 824 506 838 b 403 904 444 890 421 904 b 361 851 382 904 368 886 b 332 824 358 833 349 824 l 286 824 b 264 851 268 824 261 833 b 406 1006 282 963 328 1006 b 575 926 500 1006 519 926 b 617 979 597 926 611 944 b 647 1006 621 997 631 1006 m 90 468 b 450 740 122 657 235 740 b 694 697 556 740 638 726 b 732 621 735 676 739 665 l 633 65 b 582 13 628 33 617 22 b 301 -21 490 -10 397 -21 b 56 279 108 -21 22 97 m 549 578 b 436 593 515 588 478 593 b 246 447 324 593 264 551 l 214 267 b 340 126 199 174 240 126 b 486 144 386 126 435 132 l 560 560 b 549 578 563 568 558 574 "},"ä":{"ha":747,"x_min":0,"x_max":0,"o":"m 374 985 b 433 913 429 985 443 967 l 431 900 b 346 828 421 844 401 828 l 336 828 b 275 900 281 828 265 846 l 278 913 b 364 985 288 967 308 985 m 651 985 b 711 913 707 985 721 967 l 708 900 b 624 828 699 844 679 828 l 614 828 b 553 900 558 828 543 846 l 556 913 b 642 985 565 967 586 985 m 90 468 b 450 740 122 657 235 740 b 694 697 556 740 638 726 b 732 621 735 676 739 665 l 633 65 b 582 13 628 33 617 22 b 301 -21 490 -10 397 -21 b 56 279 108 -21 22 97 m 549 578 b 436 593 515 588 478 593 b 246 447 324 593 264 551 l 214 267 b 340 126 199 174 240 126 b 486 144 386 126 435 132 l 560 560 b 549 578 563 568 558 574 "},"å":{"ha":747,"x_min":0,"x_max":0,"o":"m 349 940 b 528 1089 364 1028 438 1089 b 650 940 615 1089 665 1028 b 476 794 635 853 564 794 b 349 940 388 794 333 856 m 569 940 b 514 1010 576 981 554 1010 b 429 940 471 1010 439 983 b 489 872 424 900 446 872 b 569 940 529 872 564 900 m 90 468 b 450 740 122 657 235 740 b 694 697 556 740 638 726 b 732 621 735 676 739 665 l 633 65 b 582 13 628 33 617 22 b 301 -21 490 -10 397 -21 b 56 279 108 -21 22 97 m 549 578 b 436 593 515 588 478 593 b 246 447 324 593 264 551 l 214 267 b 340 126 199 174 240 126 b 486 144 386 126 435 132 l 560 560 b 549 578 563 568 558 574 "},"æ":{"ha":1082,"x_min":0,"x_max":0,"o":"m 599 646 b 825 740 653 708 729 740 b 1074 492 1008 740 1103 647 b 753 289 1050 358 936 289 b 600 306 718 289 667 294 l 592 257 b 710 118 575 167 617 118 b 869 192 778 118 832 143 b 936 208 893 221 908 226 l 979 179 b 981 108 1003 161 1004 138 b 685 -21 918 22 819 -21 b 510 33 608 -21 550 -3 b 276 -21 444 -3 367 -21 b 28 215 75 -21 0 64 b 360 428 54 360 156 428 b 475 421 394 428 461 421 l 481 457 b 482 547 488 496 489 514 b 383 597 475 581 440 597 b 244 532 326 597 279 575 b 182 513 218 503 211 500 l 131 536 b 117 597 101 549 97 568 b 413 740 185 693 283 740 b 599 646 517 740 565 707 m 917 500 b 801 604 929 567 890 604 b 628 463 708 604 640 553 l 621 428 b 775 413 675 418 726 413 b 917 500 858 413 906 442 m 451 293 b 319 299 378 297 333 299 b 188 204 243 299 199 267 b 283 113 175 139 204 113 b 442 144 328 113 381 124 b 444 250 438 174 439 210 "},"ç":{"ha":711,"x_min":0,"x_max":0,"o":"m 88 465 b 446 740 119 649 239 740 b 710 558 603 740 692 668 b 674 496 715 526 703 506 l 618 478 b 563 507 581 465 569 472 b 424 599 550 568 503 599 b 247 461 324 599 265 553 l 211 257 b 339 121 196 167 238 121 b 507 217 415 121 471 153 b 572 244 525 250 540 256 l 632 225 b 650 163 664 213 671 197 b 371 -17 590 56 497 -4 l 331 -90 b 347 -89 335 -90 343 -89 b 447 -217 431 -89 469 -143 b 239 -346 424 -306 339 -346 b 142 -322 201 -346 169 -337 b 124 -283 126 -315 121 -303 l 131 -242 b 156 -225 132 -222 140 -217 b 235 -249 183 -240 210 -249 b 317 -199 283 -249 310 -232 b 260 -157 322 -172 300 -157 b 225 -158 244 -157 232 -157 b 211 -125 201 -160 196 -149 l 275 -19 b 53 274 97 -4 24 103 "},"è":{"ha":738,"x_min":0,"x_max":0,"o":"m 386 1010 b 465 1013 408 1031 435 1032 l 647 889 b 642 844 664 879 663 865 l 618 819 b 565 817 607 807 589 807 l 340 918 b 343 967 317 931 319 940 m 89 458 b 463 740 122 640 256 740 b 679 669 557 740 629 717 b 732 482 729 621 747 558 b 392 289 708 349 596 289 b 221 306 342 289 285 294 l 213 257 b 347 118 197 167 243 118 b 526 190 426 118 486 142 b 600 207 556 222 571 228 l 643 179 b 647 108 669 161 671 138 b 322 -21 579 22 471 -21 b 96 68 214 -21 139 8 b 58 293 53 126 40 201 m 576 500 b 439 604 589 567 540 604 b 249 458 338 604 267 549 l 243 429 b 414 413 308 418 365 413 b 576 500 510 413 564 442 "},"é":{"ha":738,"x_min":0,"x_max":0,"o":"m 553 1013 b 632 1010 592 1031 618 1031 l 660 965 b 644 918 676 940 676 929 l 386 817 b 332 819 357 807 339 807 l 317 844 b 328 889 304 865 307 879 m 89 458 b 463 740 122 640 256 740 b 679 669 557 740 629 717 b 732 482 729 621 747 558 b 392 289 708 349 596 289 b 221 306 342 289 285 294 l 213 257 b 347 118 197 167 243 118 b 526 190 426 118 486 142 b 600 207 556 222 571 228 l 643 179 b 647 108 669 161 671 138 b 322 -21 579 22 471 -21 b 96 68 214 -21 139 8 b 58 293 53 126 40 201 m 576 500 b 439 604 589 567 540 604 b 249 458 338 604 267 549 l 243 429 b 414 413 308 418 365 413 b 576 500 510 413 564 442 "},"ê":{"ha":738,"x_min":0,"x_max":0,"o":"m 264 810 b 249 844 231 810 225 821 l 415 981 b 503 1018 454 1015 463 1018 l 521 1018 b 592 981 554 1018 564 1015 l 707 844 b 682 810 724 826 715 810 l 626 810 b 563 833 594 810 574 818 l 497 914 l 400 833 b 331 810 374 811 365 810 m 463 740 b 679 669 557 740 629 717 b 732 482 729 621 747 558 b 392 289 708 349 596 289 b 221 306 342 289 285 294 l 213 257 b 347 118 197 167 243 118 b 526 190 426 118 486 142 b 600 207 556 222 571 228 l 643 179 b 647 108 669 161 671 138 b 322 -21 579 22 471 -21 b 96 68 214 -21 139 8 b 58 293 53 126 40 201 l 89 458 b 463 740 122 640 256 740 m 576 500 b 439 604 589 567 540 604 b 249 458 338 604 267 549 l 243 429 b 414 413 308 418 365 413 b 576 500 510 413 564 442 "},"ë":{"ha":738,"x_min":0,"x_max":0,"o":"m 368 985 b 428 913 424 985 438 967 l 425 900 b 340 828 415 844 396 828 l 331 828 b 271 900 275 828 260 846 l 272 913 b 358 985 282 967 303 985 m 646 985 b 706 913 701 985 715 967 l 703 900 b 618 828 693 844 674 828 l 608 828 b 547 900 553 828 538 846 l 550 913 b 636 985 560 967 581 985 m 89 458 b 463 740 122 640 256 740 b 679 669 557 740 629 717 b 732 482 729 621 747 558 b 392 289 708 349 596 289 b 221 306 342 289 285 294 l 213 257 b 347 118 197 167 243 118 b 526 190 426 118 486 142 b 600 207 556 222 571 228 l 643 179 b 647 108 669 161 671 138 b 322 -21 579 22 471 -21 b 96 68 214 -21 139 8 b 58 293 53 126 40 201 m 576 500 b 439 604 589 567 540 604 b 249 458 338 604 267 549 l 243 429 b 414 413 308 418 365 413 b 576 500 510 413 564 442 "},"ì":{"ha":321,"x_min":0,"x_max":0,"o":"m 147 1007 b 222 1014 172 1032 197 1035 l 372 885 b 367 839 389 869 389 861 l 347 818 b 293 817 335 806 317 804 l 107 922 b 110 969 83 935 83 943 m 256 719 b 290 678 288 719 296 710 l 179 43 b 129 0 175 14 158 0 l 53 0 b 18 43 21 0 13 11 l 129 678 b 181 719 135 710 147 719 "},"í":{"ha":321,"x_min":0,"x_max":0,"o":"m 300 1011 b 378 1010 338 1035 363 1033 l 406 965 b 390 918 422 940 422 929 l 164 817 b 110 818 136 804 118 806 l 94 844 b 106 889 82 863 86 878 m 256 719 b 290 678 288 719 296 710 l 179 43 b 129 0 175 14 158 0 l 53 0 b 18 43 21 0 13 11 l 129 678 b 181 719 135 710 147 719 "},"î":{"ha":321,"x_min":0,"x_max":0,"o":"m 431 844 b 404 810 446 821 438 810 l 349 810 b 292 840 321 810 301 819 l 251 903 l 179 833 b 111 810 158 811 149 810 l 49 810 b 35 844 15 810 14 826 l 169 975 b 257 1011 203 1008 214 1011 l 272 1011 b 342 975 307 1011 318 1013 m 256 719 b 290 678 288 719 296 710 l 179 43 b 129 0 175 14 158 0 l 53 0 b 18 43 21 0 13 11 l 129 678 b 181 719 135 710 147 719 "},"ï":{"ha":321,"x_min":0,"x_max":0,"o":"m 150 989 b 210 917 206 989 219 971 l 207 904 b 122 832 197 849 178 832 l 113 832 b 53 904 57 832 43 850 l 56 917 b 140 989 65 971 85 989 m 389 989 b 449 917 444 989 458 971 l 446 904 b 361 832 436 849 417 832 l 351 832 b 290 904 296 832 281 850 l 293 917 b 379 989 303 971 324 989 m 256 719 b 290 678 288 719 296 710 l 179 43 b 129 0 175 14 158 0 l 53 0 b 18 43 21 0 13 11 l 129 678 b 181 719 135 710 147 719 "},"ð":{"ha":769,"x_min":0,"x_max":0,"o":"m 678 1039 b 710 1040 689 1049 700 1050 l 747 1007 b 746 976 758 999 758 989 l 690 926 b 744 551 756 851 774 726 l 693 261 b 324 -21 660 83 531 -21 b 54 275 118 -21 22 96 l 82 433 b 415 701 111 606 239 701 b 603 624 507 701 569 675 b 567 808 613 708 601 771 l 501 747 b 469 746 490 738 479 736 l 433 774 b 438 806 424 782 425 793 l 492 857 b 314 885 451 875 392 885 b 275 926 281 885 271 893 l 286 989 b 336 1032 292 1022 303 1032 b 617 981 457 1032 551 1015 m 558 419 b 425 556 574 510 529 556 b 243 419 318 556 258 510 l 214 261 b 349 125 199 174 244 125 b 531 261 453 125 513 171 "},"ñ":{"ha":767,"x_min":0,"x_max":0,"o":"m 661 1006 b 683 979 679 1006 688 997 b 540 824 665 867 622 824 b 374 904 464 824 421 904 b 332 851 353 904 339 886 b 301 824 328 833 317 824 l 257 824 b 235 851 238 824 231 833 b 376 1006 253 963 299 1006 b 475 967 411 1006 443 993 b 546 926 506 940 529 926 b 588 979 567 926 581 944 b 618 1006 590 997 600 1006 m 183 693 b 464 740 268 725 361 740 b 703 449 657 740 735 632 l 632 43 b 581 0 625 11 613 0 l 504 0 b 471 43 472 0 464 11 l 543 457 b 417 593 560 547 518 593 b 279 575 371 593 325 588 b 267 561 275 574 271 568 l 176 43 b 126 0 172 14 156 0 l 50 0 b 15 43 18 0 10 11 l 115 614 b 183 693 125 658 138 675 "},"ò":{"ha":754,"x_min":0,"x_max":0,"o":"m 383 1010 b 463 1011 407 1032 433 1032 l 644 889 b 639 843 663 876 661 867 l 615 819 b 563 817 606 807 588 807 l 338 918 b 340 965 314 931 317 939 m 88 467 b 454 740 119 640 250 740 b 726 454 660 740 756 631 l 690 249 b 325 -21 658 75 532 -21 b 51 261 121 -21 22 88 m 567 463 b 431 594 582 547 532 594 b 249 463 329 594 264 547 l 213 257 b 347 125 197 174 246 125 b 531 257 449 125 515 174 "},"ó":{"ha":754,"x_min":0,"x_max":0,"o":"m 550 1011 b 629 1010 589 1032 615 1031 l 657 965 b 642 918 672 942 674 926 l 383 817 b 329 818 354 806 336 806 l 314 844 b 325 889 301 865 304 879 m 88 467 b 454 740 119 640 250 740 b 726 454 660 740 756 631 l 690 249 b 325 -21 658 75 532 -21 b 51 261 121 -21 22 88 m 567 463 b 431 594 582 547 532 594 b 249 463 329 594 264 547 l 213 257 b 347 125 197 174 246 125 b 531 257 449 125 515 174 "},"ô":{"ha":754,"x_min":0,"x_max":0,"o":"m 261 810 b 246 844 228 810 222 821 l 413 981 b 500 1017 450 1014 457 1017 l 518 1017 b 589 981 553 1017 561 1014 l 704 844 b 679 810 721 826 713 810 l 624 810 b 560 833 592 810 571 818 l 494 914 l 397 833 b 328 810 371 811 363 810 m 454 740 b 726 454 660 740 756 631 l 690 249 b 325 -21 658 75 532 -21 b 51 261 121 -21 22 88 l 88 467 b 454 740 119 640 250 740 m 567 463 b 431 594 582 547 532 594 b 249 463 329 594 264 547 l 213 257 b 347 125 197 174 246 125 b 531 257 449 125 515 174 "},"õ":{"ha":754,"x_min":0,"x_max":0,"o":"m 683 1006 b 704 979 701 1006 708 997 b 561 824 686 867 643 824 b 467 864 529 824 497 838 b 394 903 436 890 413 903 b 353 850 374 903 360 885 b 324 824 350 832 340 824 l 278 824 b 256 850 260 824 253 832 b 397 1006 274 961 319 1006 b 567 926 492 1006 511 926 b 608 979 589 926 603 944 b 639 1006 613 997 622 1006 m 88 467 b 454 740 119 640 250 740 b 726 454 660 740 756 631 l 690 249 b 325 -21 658 75 532 -21 b 51 261 121 -21 22 88 m 567 463 b 431 594 582 547 532 594 b 249 463 329 594 264 547 l 213 257 b 347 125 197 174 246 125 b 531 257 449 125 515 174 "},"ö":{"ha":754,"x_min":0,"x_max":0,"o":"m 365 985 b 425 913 421 985 435 967 l 422 900 b 338 828 413 844 393 828 l 328 828 b 268 900 272 828 257 846 l 269 913 b 356 985 279 967 300 985 m 643 985 b 703 913 699 985 713 967 l 700 900 b 615 828 690 844 671 828 l 606 828 b 544 900 550 828 535 846 l 547 913 b 633 985 557 967 578 985 m 88 467 b 454 740 119 640 250 740 b 726 454 660 740 756 631 l 690 249 b 325 -21 658 75 532 -21 b 51 261 121 -21 22 88 m 567 463 b 431 594 582 547 532 594 b 249 463 329 594 264 547 l 213 257 b 347 125 197 174 246 125 b 531 257 449 125 515 174 "},"÷":{"ha":765,"x_min":0,"x_max":0,"o":"m 460 804 b 533 715 526 804 544 782 l 531 703 b 426 614 519 636 493 614 l 415 614 b 343 703 349 614 332 635 l 344 715 b 450 804 357 782 382 804 m 686 529 b 726 482 724 529 732 517 l 715 421 b 660 374 711 389 692 374 l 99 374 b 60 421 64 374 54 386 l 71 482 b 126 529 76 517 89 529 m 369 290 b 443 201 438 290 454 269 l 440 189 b 336 100 429 122 404 100 l 326 100 b 253 189 258 100 240 122 l 256 201 b 360 290 267 268 293 290 "},"ø":{"ha":754,"x_min":0,"x_max":0,"o":"m 747 767 b 753 751 758 767 760 761 l 674 656 b 717 454 717 607 732 539 l 681 249 b 315 -21 649 75 522 -21 b 154 11 250 -21 197 -10 l 115 -35 b 83 -49 107 -44 96 -49 l 21 -49 b 17 -33 10 -49 8 -43 l 89 56 b 42 261 43 108 26 176 l 78 467 b 444 740 110 640 239 740 b 614 704 514 740 571 728 l 654 753 b 683 767 661 763 671 767 m 510 576 b 421 594 489 589 458 594 b 239 463 319 594 254 547 l 203 257 b 207 203 199 238 200 219 m 257 140 b 338 125 279 131 306 125 b 521 257 439 125 506 174 l 556 457 b 551 503 558 474 557 489 "},"ù":{"ha":767,"x_min":0,"x_max":0,"o":"m 390 1010 b 469 1011 414 1032 440 1032 l 651 889 b 646 843 669 876 668 867 l 622 819 b 569 817 613 807 594 807 l 344 918 b 347 965 321 931 324 939 m 725 719 b 760 678 757 719 765 710 l 660 106 b 592 28 650 61 638 46 b 311 -21 504 -4 411 -21 b 72 269 118 -21 40 88 l 143 678 b 194 719 149 710 161 719 l 269 719 b 304 678 301 719 310 710 l 232 264 b 358 126 215 172 257 126 b 489 143 407 126 451 132 b 508 167 500 147 507 154 l 599 678 b 649 719 604 710 617 719 "},"ú":{"ha":767,"x_min":0,"x_max":0,"o":"m 557 1011 b 636 1010 596 1032 622 1031 l 664 965 b 649 918 679 942 681 926 l 390 817 b 336 818 361 806 343 806 l 321 844 b 332 889 308 865 311 879 m 725 719 b 760 678 757 719 765 710 l 660 106 b 592 28 650 61 638 46 b 311 -21 504 -4 411 -21 b 72 269 118 -21 40 88 l 143 678 b 194 719 149 710 161 719 l 269 719 b 304 678 301 719 310 710 l 232 264 b 358 126 215 172 257 126 b 489 143 407 126 451 132 b 508 167 500 147 507 154 l 599 678 b 649 719 604 710 617 719 "},"û":{"ha":767,"x_min":0,"x_max":0,"o":"m 525 1017 b 596 981 560 1017 568 1014 l 711 844 b 686 810 728 826 719 810 l 631 810 b 567 833 599 810 578 818 l 501 914 l 404 833 b 335 810 378 811 369 810 l 268 810 b 253 844 235 810 229 821 l 419 981 b 507 1017 457 1014 464 1017 m 725 719 b 760 678 757 719 765 710 l 660 106 b 592 28 650 61 638 46 b 311 -21 504 -4 411 -21 b 72 269 118 -21 40 88 l 143 678 b 194 719 149 710 161 719 l 269 719 b 304 678 301 719 310 710 l 232 264 b 358 126 215 172 257 126 b 489 143 407 126 451 132 b 508 167 500 147 507 154 l 599 678 b 649 719 604 710 617 719 "},"ü":{"ha":767,"x_min":0,"x_max":0,"o":"m 372 985 b 432 913 428 985 442 967 l 429 900 b 344 828 419 844 400 828 l 335 828 b 275 900 279 828 264 846 l 276 913 b 363 985 286 967 307 985 m 650 985 b 710 913 706 985 719 967 l 707 900 b 622 828 697 844 678 828 l 613 828 b 551 900 557 828 542 846 l 554 913 b 640 985 564 967 585 985 m 725 719 b 760 678 757 719 765 710 l 660 106 b 592 28 650 61 638 46 b 311 -21 504 -4 411 -21 b 72 269 118 -21 40 88 l 143 678 b 194 719 149 710 161 719 l 269 719 b 304 678 301 719 310 710 l 232 264 b 358 126 215 172 257 126 b 489 143 407 126 451 132 b 508 167 500 147 507 154 l 599 678 b 649 719 604 710 617 719 "},"ý":{"ha":769,"x_min":0,"x_max":0,"o":"m 556 1011 b 633 1010 593 1032 618 1031 l 661 965 b 646 918 676 942 678 926 l 388 817 b 333 818 358 806 340 806 l 319 844 b 329 889 306 865 308 879 m 722 719 b 757 678 754 719 763 710 l 633 -24 b 275 -326 599 -225 479 -326 b 15 -190 140 -326 54 -281 b 43 -121 0 -161 10 -137 l 97 -94 b 164 -111 135 -78 149 -82 b 297 -182 185 -158 229 -182 b 471 -32 394 -182 453 -132 l 482 33 b 314 14 422 21 367 14 b 76 306 121 14 44 124 l 140 678 b 192 719 147 710 160 719 l 268 719 b 301 678 300 719 308 710 l 235 299 b 363 161 219 207 263 161 b 508 181 410 161 458 168 l 596 678 b 646 719 601 710 614 719 "},"þ":{"ha":756,"x_min":0,"x_max":0,"o":"m 185 983 b 235 1026 189 1013 206 1026 l 311 1026 b 346 983 343 1026 351 1015 l 300 721 b 465 739 358 733 414 739 b 707 451 661 739 740 633 l 674 263 b 315 -21 642 74 522 -21 b 174 4 281 -21 233 -12 l 126 -262 b 76 -306 122 -292 106 -306 l 0 -306 b -35 -262 -32 -306 -40 -294 m 546 453 b 417 592 563 543 517 592 b 274 571 379 592 331 585 l 200 147 b 328 126 249 133 290 126 b 515 274 435 126 497 175 "},"ÿ":{"ha":769,"x_min":0,"x_max":0,"o":"m 369 985 b 429 913 425 985 439 967 l 426 900 b 342 828 417 844 397 828 l 332 828 b 272 900 276 828 263 846 l 275 913 b 360 985 285 967 304 985 m 647 985 b 707 913 703 985 717 967 l 704 900 b 619 828 694 844 675 828 l 611 828 b 549 900 554 828 539 846 l 551 913 b 639 985 561 967 582 985 m 722 719 b 757 678 754 719 763 710 l 633 -24 b 275 -326 599 -225 479 -326 b 15 -190 140 -326 54 -281 b 43 -121 0 -161 10 -137 l 97 -94 b 164 -111 135 -78 149 -82 b 297 -182 185 -158 229 -182 b 471 -32 394 -182 453 -132 l 482 33 b 314 14 422 21 367 14 b 76 306 121 14 44 124 l 140 678 b 192 719 147 710 160 719 l 268 719 b 301 678 300 719 308 710 l 235 299 b 363 161 219 207 263 161 b 508 181 410 161 458 168 l 596 678 b 646 719 601 710 614 719 "},"Ā":{"ha":911,"x_min":0,"x_max":0,"o":"m 783 1208 b 817 1168 815 1208 822 1200 l 810 1133 b 763 1093 804 1101 794 1093 l 442 1093 b 407 1133 408 1093 401 1101 l 414 1168 b 461 1208 418 1194 435 1208 m 858 46 b 819 0 865 15 851 0 l 754 0 b 675 42 694 0 679 8 l 642 221 l 258 221 l 161 42 b 68 0 144 8 128 0 l -1 0 b -25 46 -35 0 -43 15 l 482 949 b 546 988 499 981 513 988 l 619 988 b 672 950 653 988 667 979 m 564 657 b 560 822 549 733 560 807 l 561 826 l 553 826 b 492 658 556 829 533 739 l 333 364 l 618 364 "},"ā":{"ha":747,"x_min":0,"x_max":0,"o":"m 664 965 b 697 925 696 965 703 957 l 692 890 b 644 850 686 858 676 850 l 322 850 b 289 890 290 850 285 858 l 294 925 b 343 965 301 957 314 965 m 90 468 b 450 740 122 657 235 740 b 694 697 556 740 638 726 b 732 621 735 676 739 665 l 633 65 b 582 13 628 33 617 22 b 301 -21 490 -10 397 -21 b 56 279 108 -21 22 97 m 549 578 b 436 593 515 588 478 593 b 246 447 324 593 264 551 l 214 267 b 340 126 199 174 240 126 b 486 144 386 126 435 132 l 560 560 b 549 578 563 568 558 574 "},"Ă":{"ha":911,"x_min":0,"x_max":0,"o":"m 836 1199 b 596 1056 788 1108 701 1056 b 407 1199 492 1056 419 1108 b 432 1238 404 1217 413 1231 l 492 1258 b 531 1244 515 1265 526 1263 b 615 1172 538 1196 567 1172 b 726 1244 665 1172 703 1196 b 765 1260 736 1261 749 1267 l 824 1238 b 836 1199 844 1228 847 1219 m 858 46 b 819 0 865 15 851 0 l 754 0 b 675 42 694 0 679 8 l 642 221 l 258 221 l 161 42 b 68 0 144 8 128 0 l -1 0 b -25 46 -35 0 -43 15 l 482 949 b 546 988 499 981 513 988 l 619 988 b 672 950 653 988 667 979 m 564 657 b 560 822 549 733 560 807 l 561 826 l 553 826 b 492 658 556 829 533 739 l 333 364 l 618 364 "},"ă":{"ha":747,"x_min":0,"x_max":0,"o":"m 718 953 b 483 811 668 858 590 811 b 289 953 378 811 301 864 b 315 993 285 975 292 986 l 368 1011 b 408 997 390 1018 404 1014 b 497 926 415 950 446 926 b 608 1000 546 926 582 951 b 647 1015 617 1015 629 1019 l 706 993 b 718 953 724 985 728 971 m 90 468 b 450 740 122 657 235 740 b 694 697 556 740 638 726 b 732 621 735 676 739 665 l 633 65 b 582 13 628 33 617 22 b 301 -21 490 -10 397 -21 b 56 279 108 -21 22 97 m 549 578 b 436 593 515 588 478 593 b 246 447 324 593 264 551 l 214 267 b 340 126 199 174 240 126 b 486 144 386 126 435 132 l 560 560 b 549 578 563 568 558 574 "},"Ą":{"ha":911,"x_min":0,"x_max":0,"o":"m 619 988 b 672 950 653 988 667 979 l 858 46 b 850 8 863 29 860 17 b 719 -190 760 -75 715 -153 b 750 -222 722 -211 732 -222 b 790 -208 765 -222 778 -218 b 815 -215 804 -200 813 -203 l 828 -271 b 821 -300 832 -283 829 -293 b 679 -340 789 -326 742 -340 b 571 -242 618 -340 572 -303 b 733 1 568 -164 622 -83 b 674 43 690 3 679 14 l 642 221 l 258 221 l 161 42 b 68 0 144 8 128 0 l -1 0 b -25 46 -35 0 -43 15 l 482 949 b 546 988 499 981 513 988 m 564 657 b 560 822 549 733 560 807 l 561 826 l 553 826 b 492 658 556 829 533 739 l 333 364 l 618 364 "},"ą":{"ha":749,"x_min":0,"x_max":0,"o":"m 90 468 b 450 740 122 657 235 740 b 694 697 556 740 638 726 b 732 621 735 676 739 665 l 633 65 b 618 31 631 50 625 38 b 482 -190 525 -60 478 -151 b 513 -222 485 -211 494 -222 b 551 -208 526 -222 539 -218 b 578 -215 567 -200 575 -203 l 590 -271 b 583 -300 594 -283 592 -293 b 442 -340 551 -326 504 -340 b 332 -242 379 -340 333 -303 b 483 -7 331 -165 381 -86 b 301 -21 425 -17 364 -21 b 56 279 108 -21 22 97 m 549 578 b 436 593 515 588 478 593 b 246 447 324 593 264 551 l 214 267 b 340 126 199 174 240 126 b 486 144 386 126 435 132 l 560 560 b 549 578 563 568 558 574 "},"Ć":{"ha":883,"x_min":0,"x_max":0,"o":"m 697 1256 b 776 1253 735 1275 761 1274 l 803 1208 b 789 1161 819 1185 817 1172 l 529 1060 b 476 1061 500 1050 483 1050 l 461 1088 b 471 1132 449 1108 451 1122 m 139 654 b 596 1007 179 878 342 1007 b 924 771 789 1007 897 928 b 886 711 929 736 921 722 l 817 688 b 761 717 779 675 768 682 b 571 844 744 801 681 844 b 314 647 426 844 335 775 l 260 340 b 447 142 236 213 303 142 b 682 271 557 142 636 185 b 749 300 703 306 717 313 l 824 271 b 842 210 856 260 860 244 b 422 -21 760 56 621 -21 b 86 350 171 -21 47 124 "},"ć":{"ha":711,"x_min":0,"x_max":0,"o":"m 529 1011 b 608 1010 568 1032 594 1031 l 635 965 b 621 918 653 942 650 928 l 363 817 b 308 818 333 806 315 806 l 293 844 b 304 889 281 865 283 879 m 89 465 b 449 740 121 649 240 740 b 711 558 606 740 693 668 b 675 496 717 524 708 507 l 619 478 b 564 507 582 465 571 472 b 425 599 551 568 504 599 b 249 461 325 599 267 553 l 213 257 b 340 121 197 167 239 121 b 508 217 417 121 472 153 b 575 244 526 250 542 256 l 633 225 b 651 163 665 213 672 197 b 317 -21 583 40 471 -21 b 56 274 110 -21 22 92 "},"Ĉ":{"ha":883,"x_min":0,"x_max":0,"o":"m 664 1263 b 735 1225 699 1263 707 1260 l 851 1089 b 825 1054 868 1071 858 1054 l 768 1054 b 704 1079 736 1054 715 1063 l 639 1158 l 540 1079 b 471 1054 517 1057 508 1054 l 408 1054 b 393 1089 374 1054 371 1071 l 558 1225 b 647 1263 597 1260 607 1263 m 139 654 b 596 1007 179 878 342 1007 b 924 771 789 1007 897 928 b 886 711 929 736 921 722 l 817 688 b 761 717 779 675 768 682 b 571 844 744 801 681 844 b 314 647 426 844 335 775 l 260 340 b 447 142 236 213 303 142 b 682 271 557 142 636 185 b 749 300 703 306 717 313 l 824 271 b 842 210 856 260 860 244 b 422 -21 760 56 621 -21 b 86 350 171 -21 47 124 "},"ĉ":{"ha":711,"x_min":0,"x_max":0,"o":"m 240 810 b 225 844 207 810 203 826 l 390 981 b 479 1017 429 1014 436 1017 l 496 1017 b 567 981 531 1017 539 1014 l 683 844 b 657 810 700 826 692 810 l 603 810 b 539 833 571 810 550 818 l 472 914 l 376 833 b 306 810 350 811 343 810 m 711 558 b 675 496 717 524 708 507 l 619 478 b 564 507 582 465 571 472 b 425 599 551 568 504 599 b 249 461 325 599 267 553 l 213 257 b 340 121 197 167 239 121 b 508 217 417 121 472 153 b 575 244 526 250 542 256 l 633 225 b 651 163 665 213 672 197 b 317 -21 583 40 471 -21 b 56 274 110 -21 22 92 l 89 465 b 449 740 121 649 240 740 b 711 558 606 740 693 668 "},"Ċ":{"ha":883,"x_min":0,"x_max":0,"o":"m 650 1233 b 713 1158 707 1233 722 1215 l 710 1147 b 622 1074 700 1090 679 1074 l 614 1074 b 553 1147 557 1074 543 1090 l 554 1158 b 642 1233 564 1215 585 1233 m 139 654 b 596 1007 179 878 342 1007 b 924 771 789 1007 897 928 b 886 711 929 736 921 722 l 817 688 b 761 717 779 675 768 682 b 571 844 744 801 681 844 b 314 647 426 844 335 775 l 260 340 b 447 142 236 213 303 142 b 682 271 557 142 636 185 b 749 300 703 306 717 313 l 824 271 b 842 210 856 260 860 244 b 422 -21 760 56 621 -21 b 86 350 171 -21 47 124 "},"ċ":{"ha":711,"x_min":0,"x_max":0,"o":"m 482 988 b 544 913 539 988 554 969 l 542 903 b 454 828 532 846 511 828 l 446 828 b 385 903 389 828 375 846 l 388 913 b 474 988 397 969 417 988 m 89 465 b 449 740 121 649 240 740 b 711 558 606 740 693 668 b 675 496 717 524 708 507 l 619 478 b 564 507 582 465 571 472 b 425 599 551 568 504 599 b 249 461 325 599 267 553 l 213 257 b 340 121 197 167 239 121 b 508 217 417 121 472 153 b 575 244 526 250 542 256 l 633 225 b 651 163 665 213 672 197 b 317 -21 583 40 471 -21 b 56 274 110 -21 22 92 "},"Č":{"ha":883,"x_min":0,"x_max":0,"o":"m 857 1260 b 871 1225 890 1260 893 1243 l 706 1090 b 622 1053 667 1057 657 1053 l 606 1053 b 531 1090 565 1053 558 1056 l 413 1225 b 440 1260 397 1243 406 1260 l 497 1260 b 558 1236 535 1260 542 1258 l 628 1157 l 722 1236 b 794 1260 738 1251 763 1260 m 139 654 b 596 1007 179 878 342 1007 b 924 771 789 1007 897 928 b 886 711 929 736 921 722 l 817 688 b 761 717 779 675 768 682 b 571 844 744 801 681 844 b 314 647 426 844 335 775 l 260 340 b 447 142 236 213 303 142 b 682 271 557 142 636 185 b 749 300 703 306 717 313 l 824 271 b 842 210 856 260 860 244 b 422 -21 760 56 621 -21 b 86 350 171 -21 47 124 "},"č":{"ha":711,"x_min":0,"x_max":0,"o":"m 246 981 b 272 1015 229 999 239 1015 l 326 1015 b 388 992 364 1015 371 1014 l 458 911 l 551 992 b 625 1015 569 1007 593 1015 l 689 1015 b 703 981 722 1015 725 999 l 538 844 b 456 807 499 810 489 807 l 439 807 b 363 844 399 807 390 811 m 449 740 b 711 558 606 740 693 668 b 675 496 717 524 708 507 l 619 478 b 564 507 582 465 571 472 b 425 599 551 568 504 599 b 249 461 325 599 267 553 l 213 257 b 340 121 197 167 239 121 b 508 217 417 121 472 153 b 575 244 526 250 542 256 l 633 225 b 651 163 665 213 672 197 b 317 -21 583 40 471 -21 b 56 274 110 -21 22 92 l 89 465 b 449 740 121 649 240 740 "},"Ď":{"ha":925,"x_min":0,"x_max":0,"o":"m 797 1260 b 810 1225 832 1260 832 1244 l 646 1090 b 563 1053 607 1056 596 1053 l 544 1053 b 469 1090 504 1053 497 1056 l 351 1225 b 379 1260 336 1243 346 1260 l 438 1260 b 499 1236 475 1260 482 1258 l 568 1157 l 661 1236 b 735 1260 678 1251 703 1260 m 561 986 b 897 606 815 986 938 838 l 853 353 b 396 0 813 125 653 0 l 75 0 b 36 47 40 0 31 13 l 193 939 b 249 986 200 974 214 986 m 726 621 b 533 824 750 753 682 824 l 347 824 l 231 163 l 417 163 b 682 365 563 163 658 233 "},"ď":{"ha":857,"x_min":0,"x_max":0,"o":"m 90 465 b 428 740 122 649 235 740 b 589 722 472 740 526 735 l 636 985 b 686 1028 640 1014 657 1028 l 763 1028 b 797 985 794 1028 803 1017 l 642 100 b 574 24 635 56 622 42 b 306 -21 489 -6 399 -21 b 57 275 106 -21 24 92 m 954 746 b 911 707 943 718 940 707 l 871 707 b 844 736 844 707 839 713 l 908 983 b 958 1028 918 1018 925 1028 l 1017 1028 b 1056 983 1056 1028 1068 1013 m 564 575 b 433 593 511 588 468 593 b 247 446 322 593 265 550 l 215 265 b 346 126 199 172 242 126 b 478 142 394 126 439 132 b 490 157 483 144 488 150 "},"Đ":{"ha":947,"x_min":0,"x_max":0,"o":"m 579 986 b 858 882 706 986 799 951 b 915 604 917 813 936 719 l 871 351 b 406 0 831 124 671 0 l 93 0 b 54 47 58 0 49 13 l 126 453 l 44 453 b 21 483 22 453 17 460 l 31 535 b 64 565 35 556 46 565 l 146 565 l 211 939 b 267 986 218 974 232 986 m 743 621 b 551 824 767 756 703 824 l 365 824 l 321 565 l 506 565 b 526 535 526 565 531 558 l 518 483 b 485 453 514 460 507 453 l 300 453 l 249 163 l 435 163 b 699 365 581 163 675 233 "},"đ":{"ha":753,"x_min":0,"x_max":0,"o":"m 863 926 b 885 897 885 926 890 919 l 878 857 b 844 826 874 833 867 826 l 771 826 l 643 100 b 575 24 636 56 624 42 b 307 -21 490 -6 400 -21 b 57 274 106 -21 24 89 l 90 463 b 429 740 124 647 236 740 b 590 722 474 740 528 735 l 610 826 l 442 826 b 418 857 419 826 414 833 l 425 897 b 460 926 429 917 442 926 l 628 926 l 638 985 b 688 1028 642 1014 658 1028 l 764 1028 b 799 985 796 1028 804 1017 l 789 926 m 565 575 b 435 593 513 588 469 593 b 249 446 324 593 267 551 l 217 265 b 347 126 200 172 243 126 b 479 142 396 126 440 132 b 492 157 485 144 489 150 "},"Ē":{"ha":804,"x_min":0,"x_max":0,"o":"m 726 1208 b 760 1168 758 1208 765 1200 l 754 1133 b 707 1093 749 1101 739 1093 l 385 1093 b 351 1133 353 1093 346 1101 l 357 1168 b 406 1208 364 1200 376 1208 m 801 986 b 842 939 839 986 849 974 l 829 871 b 774 824 824 836 808 824 l 347 824 l 306 581 l 665 581 b 704 533 700 581 710 568 l 692 465 b 635 418 685 431 669 418 l 275 418 l 231 163 l 672 163 b 711 115 707 163 718 150 l 699 47 b 643 0 693 13 678 0 l 75 0 b 36 47 40 0 31 13 l 193 939 b 249 986 200 974 214 986 "},"ē":{"ha":738,"x_min":0,"x_max":0,"o":"m 317 850 b 283 890 285 850 279 858 l 289 925 b 338 965 296 957 308 965 l 658 965 b 692 925 690 965 697 957 l 686 890 b 639 850 681 858 671 850 m 463 740 b 679 669 557 740 629 717 b 732 482 729 621 747 558 b 392 289 708 349 596 289 b 221 306 342 289 285 294 l 213 257 b 347 118 197 167 243 118 b 526 190 426 118 486 142 b 600 207 556 222 571 228 l 643 179 b 647 108 669 161 671 138 b 322 -21 579 22 471 -21 b 96 68 214 -21 139 8 b 58 293 53 126 40 201 l 89 458 b 463 740 122 640 256 740 m 576 500 b 439 604 589 567 540 604 b 249 458 338 604 267 549 l 243 429 b 414 413 308 418 365 413 b 576 500 510 413 564 442 "},"Ĕ":{"ha":804,"x_min":0,"x_max":0,"o":"m 781 1199 b 539 1056 732 1108 644 1056 b 350 1199 435 1056 365 1108 b 376 1238 347 1217 356 1231 l 436 1258 b 475 1244 460 1265 469 1263 b 560 1172 482 1196 511 1172 b 669 1244 608 1172 646 1196 b 710 1260 679 1261 693 1267 l 768 1238 b 781 1199 786 1229 790 1217 m 801 986 b 842 939 839 986 849 974 l 829 871 b 774 824 824 836 808 824 l 347 824 l 306 581 l 665 581 b 704 533 700 581 710 568 l 692 465 b 635 418 685 431 669 418 l 275 418 l 231 163 l 672 163 b 711 115 707 163 718 150 l 699 47 b 643 0 693 13 678 0 l 75 0 b 36 47 40 0 31 13 l 193 939 b 249 986 200 974 214 986 "},"ĕ":{"ha":738,"x_min":0,"x_max":0,"o":"m 713 953 b 478 811 663 858 585 811 b 283 953 372 811 296 864 b 310 993 279 975 286 986 l 363 1011 b 403 997 385 1018 399 1014 b 492 926 410 950 440 926 b 603 1000 540 926 576 951 b 642 1015 613 1015 625 1021 l 701 993 b 713 953 718 983 722 971 m 89 458 b 463 740 122 640 256 740 b 679 669 557 740 629 717 b 732 482 729 621 747 558 b 392 289 708 349 596 289 b 221 306 342 289 285 294 l 213 257 b 347 118 197 167 243 118 b 526 190 426 118 486 142 b 600 207 556 222 571 228 l 643 179 b 647 108 669 161 671 138 b 322 -21 579 22 471 -21 b 96 68 214 -21 139 8 b 58 293 53 126 40 201 m 576 500 b 439 604 589 567 540 604 b 249 458 338 604 267 549 l 243 429 b 414 413 308 418 365 413 b 576 500 510 413 564 442 "},"Ė":{"ha":804,"x_min":0,"x_max":0,"o":"m 574 1233 b 636 1158 631 1233 646 1215 l 633 1147 b 546 1074 624 1090 603 1074 l 538 1074 b 476 1147 481 1074 467 1090 l 479 1158 b 565 1233 489 1215 508 1233 m 801 986 b 842 939 839 986 849 974 l 829 871 b 774 824 824 836 808 824 l 347 824 l 306 581 l 665 581 b 704 533 700 581 710 568 l 692 465 b 635 418 685 431 669 418 l 275 418 l 231 163 l 672 163 b 711 115 707 163 718 150 l 699 47 b 643 0 693 13 678 0 l 75 0 b 36 47 40 0 31 13 l 193 939 b 249 986 200 974 214 986 "},"ė":{"ha":738,"x_min":0,"x_max":0,"o":"m 506 988 b 568 913 563 988 578 969 l 565 903 b 478 828 556 843 535 828 l 469 828 b 408 903 413 828 399 846 l 411 913 b 497 988 421 969 440 988 m 89 458 b 463 740 122 640 256 740 b 679 669 557 740 629 717 b 732 482 729 621 747 558 b 392 289 708 349 596 289 b 221 306 342 289 285 294 l 213 257 b 347 118 197 167 243 118 b 526 190 426 118 486 142 b 600 207 556 222 571 228 l 643 179 b 647 108 669 161 671 138 b 322 -21 579 22 471 -21 b 96 68 214 -21 139 8 b 58 293 53 126 40 201 m 576 500 b 439 604 589 567 540 604 b 249 458 338 604 267 549 l 243 429 b 414 413 308 418 365 413 b 576 500 510 413 564 442 "},"Ę":{"ha":804,"x_min":0,"x_max":0,"o":"m 801 986 b 842 939 839 986 849 974 l 829 871 b 774 824 824 836 808 824 l 347 824 l 306 581 l 665 581 b 704 533 700 581 710 568 l 692 465 b 635 418 685 431 669 418 l 275 418 l 231 163 l 672 163 b 711 115 707 163 718 150 l 699 47 b 681 10 697 35 690 22 b 546 -190 588 -81 542 -147 b 576 -222 549 -211 558 -222 b 615 -208 592 -222 606 -218 b 642 -215 631 -200 639 -203 l 654 -271 b 647 -300 658 -283 656 -293 b 506 -340 615 -326 568 -340 b 396 -242 444 -340 397 -303 b 567 0 393 -165 450 -85 l 75 0 b 36 47 40 0 31 13 l 193 939 b 249 986 200 974 214 986 "},"ę":{"ha":738,"x_min":0,"x_max":0,"o":"m 89 458 b 463 740 122 640 256 740 b 679 669 557 740 629 717 b 732 482 729 621 747 558 b 392 289 708 349 596 289 b 221 306 342 289 285 294 l 213 257 b 347 118 197 167 243 118 b 526 190 426 118 486 142 b 600 207 556 222 571 228 l 643 179 b 647 108 669 161 671 138 b 608 69 631 90 618 76 b 439 -190 492 -57 435 -153 b 469 -222 443 -211 453 -222 b 508 -208 483 -222 496 -218 b 535 -215 524 -200 532 -203 l 547 -271 b 540 -300 551 -283 549 -293 b 399 -340 508 -326 461 -340 b 292 -242 338 -340 293 -304 b 431 -11 289 -167 335 -90 b 322 -21 393 -18 357 -21 b 96 68 214 -21 139 8 b 58 293 53 126 40 201 m 414 413 b 576 500 510 413 564 442 b 439 604 589 567 540 604 b 249 458 338 604 267 549 l 243 429 b 414 413 308 418 365 413 "},"Ě":{"ha":804,"x_min":0,"x_max":0,"o":"m 782 1260 b 794 1225 815 1260 817 1243 l 631 1090 b 546 1053 592 1056 581 1053 l 529 1053 b 454 1090 489 1053 482 1056 l 336 1225 b 364 1260 321 1243 331 1260 l 421 1260 b 482 1236 458 1260 465 1258 l 551 1157 l 646 1236 b 719 1260 661 1251 686 1260 m 801 986 b 842 939 839 986 849 974 l 829 871 b 774 824 824 836 808 824 l 347 824 l 306 581 l 665 581 b 704 533 700 581 710 568 l 692 465 b 635 418 685 431 669 418 l 275 418 l 231 163 l 672 163 b 711 115 707 163 718 150 l 699 47 b 643 0 693 13 678 0 l 75 0 b 36 47 40 0 31 13 l 193 939 b 249 986 200 974 214 986 "},"ě":{"ha":738,"x_min":0,"x_max":0,"o":"m 269 981 b 296 1015 253 999 263 1015 l 351 1015 b 411 992 389 1015 394 1014 l 482 911 l 575 992 b 649 1015 593 1007 618 1015 l 713 1015 b 728 981 746 1015 751 1004 l 563 844 b 479 807 524 810 513 807 l 463 807 b 386 844 422 807 414 811 m 463 740 b 679 669 557 740 629 717 b 732 482 729 621 747 558 b 392 289 708 349 596 289 b 221 306 342 289 285 294 l 213 257 b 347 118 197 167 243 118 b 526 190 426 118 486 142 b 600 207 556 222 571 228 l 643 179 b 647 108 669 161 671 138 b 322 -21 579 22 471 -21 b 96 68 214 -21 139 8 b 58 293 53 126 40 201 l 89 458 b 463 740 122 640 256 740 m 576 500 b 439 604 589 567 540 604 b 249 458 338 604 267 549 l 243 429 b 414 413 308 418 365 413 b 576 500 510 413 564 442 "},"Ĝ":{"ha":917,"x_min":0,"x_max":0,"o":"m 658 1276 b 729 1239 693 1276 701 1274 l 846 1103 b 819 1068 863 1085 853 1068 l 763 1068 b 699 1093 731 1068 710 1076 l 633 1172 l 535 1093 b 465 1068 511 1071 503 1068 l 403 1068 b 388 1103 369 1068 365 1085 l 553 1239 b 642 1276 592 1274 601 1276 m 865 540 b 904 493 900 540 910 528 l 869 294 b 418 -21 835 99 669 -21 b 86 354 167 -21 47 126 l 139 658 b 597 1007 179 885 342 1007 b 925 772 788 1007 897 929 b 889 713 932 739 924 724 l 815 688 b 760 717 778 675 767 682 b 569 844 743 801 679 844 b 313 647 426 844 335 775 l 258 340 b 446 142 235 213 301 142 b 700 306 585 142 682 210 l 713 378 l 503 378 b 464 426 468 378 458 389 l 476 493 b 532 540 483 531 497 540 "},"ĝ":{"ha":751,"x_min":0,"x_max":0,"o":"m 268 810 b 253 844 235 810 229 821 l 419 981 b 507 1017 457 1014 464 1017 l 525 1017 b 596 981 560 1017 568 1014 l 711 844 b 686 810 728 826 719 810 l 631 810 b 567 833 599 810 578 818 l 501 914 l 404 833 b 335 810 378 811 369 810 m 693 697 b 731 621 733 676 738 665 l 615 -31 b 264 -326 581 -228 464 -326 b -1 -190 126 -326 38 -281 b 28 -121 -17 -161 -7 -137 l 81 -94 b 149 -111 118 -78 132 -82 b 281 -182 169 -158 214 -182 b 454 -32 378 -182 436 -132 l 467 38 b 303 13 401 21 347 13 b 60 313 110 13 26 131 l 88 468 b 449 740 121 657 233 740 b 693 697 554 740 636 726 m 558 561 b 550 578 560 568 557 574 b 435 593 513 588 475 593 b 244 444 325 593 263 543 l 218 297 b 344 160 203 206 244 160 b 492 179 386 160 435 167 "},"Ğ":{"ha":917,"x_min":0,"x_max":0,"o":"m 851 1213 b 610 1069 803 1122 715 1069 b 421 1213 506 1069 436 1122 b 446 1251 418 1231 426 1244 l 506 1272 b 546 1258 528 1279 542 1274 b 631 1186 553 1210 582 1186 b 740 1258 679 1186 717 1210 b 779 1274 750 1275 763 1281 l 838 1251 b 851 1213 856 1243 861 1231 m 865 540 b 904 493 900 540 910 528 l 869 294 b 418 -21 835 99 669 -21 b 86 354 167 -21 47 126 l 139 658 b 597 1007 179 885 342 1007 b 925 772 788 1007 897 929 b 889 713 932 739 924 724 l 815 688 b 760 717 778 675 767 682 b 569 844 743 801 679 844 b 313 647 426 844 335 775 l 258 340 b 446 142 235 213 301 142 b 700 306 585 142 682 210 l 713 378 l 503 378 b 464 426 468 378 458 389 l 476 493 b 532 540 483 531 497 540 "},"ğ":{"ha":751,"x_min":0,"x_max":0,"o":"m 717 953 b 482 811 668 858 589 811 b 288 953 376 811 300 864 b 314 993 283 975 290 986 l 367 1011 b 407 997 389 1018 403 1014 b 496 926 414 950 443 926 b 607 1000 544 926 581 951 b 646 1015 617 1015 629 1019 l 706 993 b 717 953 722 983 726 971 m 88 468 b 449 740 121 657 233 740 b 693 697 554 740 636 726 b 731 621 733 676 738 665 l 615 -31 b 264 -326 581 -228 464 -326 b -1 -190 126 -326 38 -281 b 28 -121 -17 -161 -7 -137 l 81 -94 b 149 -111 118 -78 132 -82 b 281 -182 169 -158 214 -182 b 454 -32 378 -182 436 -132 l 467 38 b 303 13 401 21 347 13 b 60 313 110 13 26 131 m 550 578 b 435 593 513 588 475 593 b 244 444 325 593 263 543 l 218 297 b 344 160 203 206 244 160 b 492 179 386 160 435 167 l 558 561 b 550 578 560 568 557 574 "},"Ġ":{"ha":917,"x_min":0,"x_max":0,"o":"m 644 1247 b 707 1172 701 1247 717 1229 l 704 1161 b 617 1088 694 1104 674 1088 l 608 1088 b 547 1161 551 1088 538 1104 l 550 1172 b 636 1247 560 1229 579 1247 m 865 540 b 904 493 900 540 910 528 l 869 294 b 418 -21 835 99 669 -21 b 86 354 167 -21 47 126 l 139 658 b 597 1007 179 885 342 1007 b 925 772 788 1007 897 929 b 889 713 932 739 924 724 l 815 688 b 760 717 778 675 767 682 b 569 844 743 801 679 844 b 313 647 426 844 335 775 l 258 340 b 446 142 235 213 301 142 b 700 306 585 142 682 210 l 713 378 l 503 378 b 464 426 468 378 458 389 l 476 493 b 532 540 483 531 497 540 "},"ġ":{"ha":751,"x_min":0,"x_max":0,"o":"m 510 988 b 572 913 567 988 582 969 l 569 903 b 482 828 560 843 542 828 l 474 828 b 413 903 417 828 403 846 l 415 913 b 501 988 425 969 444 988 m 88 468 b 449 740 121 657 233 740 b 693 697 554 740 636 726 b 731 621 733 676 738 665 l 615 -31 b 264 -326 581 -228 464 -326 b -1 -190 126 -326 38 -281 b 28 -121 -17 -161 -7 -137 l 81 -94 b 149 -111 118 -78 132 -82 b 281 -182 169 -158 214 -182 b 454 -32 378 -182 436 -132 l 467 38 b 303 13 401 21 347 13 b 60 313 110 13 26 131 m 550 578 b 435 593 513 588 475 593 b 244 444 325 593 263 543 l 218 297 b 344 160 203 206 244 160 b 492 179 386 160 435 167 l 558 561 b 550 578 560 568 557 574 "},"Ģ":{"ha":917,"x_min":0,"x_max":0,"o":"m 865 540 b 904 493 900 540 910 528 l 869 294 b 418 -21 835 99 669 -21 b 86 354 167 -21 47 126 l 139 658 b 597 1007 179 885 342 1007 b 925 772 788 1007 897 929 b 889 713 932 739 924 724 l 815 688 b 760 717 778 675 767 682 b 569 844 743 801 679 844 b 313 647 426 844 335 775 l 258 340 b 446 142 235 213 301 142 b 700 306 585 142 682 210 l 713 378 l 503 378 b 464 426 468 378 458 389 l 476 493 b 532 540 483 531 497 540 m 404 -317 b 349 -357 392 -343 372 -357 l 296 -357 b 275 -326 272 -357 265 -350 l 338 -129 b 396 -85 347 -94 361 -85 l 469 -85 b 503 -129 507 -85 518 -100 "},"ģ":{"ha":751,"x_min":0,"x_max":0,"o":"m 479 1008 b 532 1042 494 1038 500 1042 l 574 1042 b 604 1010 600 1042 611 1031 l 547 858 b 490 808 535 818 528 808 l 431 808 b 393 858 394 808 382 825 m 88 468 b 449 740 121 657 233 740 b 693 697 554 740 636 726 b 731 621 733 676 738 665 l 615 -31 b 264 -326 581 -228 464 -326 b -1 -190 126 -326 38 -281 b 28 -121 -17 -161 -7 -137 l 81 -94 b 149 -111 118 -78 132 -82 b 281 -182 169 -158 214 -182 b 454 -32 378 -182 436 -132 l 467 38 b 303 13 401 21 347 13 b 60 313 110 13 26 131 m 550 578 b 435 593 513 588 475 593 b 244 444 325 593 263 543 l 218 297 b 344 160 203 206 244 160 b 492 179 386 160 435 167 l 558 561 b 550 578 560 568 557 574 "},"Ĥ":{"ha":956,"x_min":0,"x_max":0,"o":"m 644 1263 b 714 1225 678 1263 688 1260 l 832 1089 b 806 1054 847 1071 839 1054 l 747 1054 b 683 1079 715 1054 694 1063 l 618 1158 l 519 1079 b 450 1054 496 1057 488 1054 l 388 1054 b 374 1089 353 1054 351 1071 l 538 1225 b 626 1263 576 1260 586 1263 m 914 986 b 954 939 951 986 961 974 l 796 47 b 740 0 790 13 775 0 l 661 0 b 622 47 626 0 617 13 l 688 418 l 275 418 l 211 47 b 156 0 204 13 190 0 l 75 0 b 36 47 40 0 31 13 l 193 939 b 249 986 200 974 214 986 l 329 986 b 368 939 364 986 375 974 l 306 581 l 717 581 l 779 939 b 835 986 786 974 800 986 "},"ĥ":{"ha":769,"x_min":0,"x_max":0,"o":"m 76 1097 b 63 1132 43 1097 42 1114 l 228 1268 b 317 1306 267 1303 276 1306 l 333 1306 b 404 1268 368 1306 376 1303 l 521 1132 b 494 1097 538 1114 528 1097 l 440 1097 b 376 1121 408 1097 386 1106 l 310 1201 l 214 1121 b 143 1097 188 1099 181 1097 m 468 740 b 706 451 661 740 738 633 l 635 43 b 583 0 631 14 613 0 l 508 0 b 474 43 476 0 468 11 l 546 457 b 419 593 563 547 521 593 b 272 572 349 593 300 586 l 179 43 b 129 0 175 14 158 0 l 53 0 b 18 43 21 0 13 11 l 183 985 b 235 1028 190 1017 203 1028 l 311 1028 b 344 985 343 1028 351 1017 l 299 721 b 468 740 325 733 381 740 "},"Ħ":{"ha":969,"x_min":0,"x_max":0,"o":"m 1010 844 b 1031 815 1031 844 1036 838 l 1024 775 b 992 744 1022 754 1011 744 l 926 744 l 803 47 b 747 0 797 13 782 0 l 668 0 b 629 47 633 0 622 13 l 694 418 l 282 418 l 217 47 b 161 0 211 13 196 0 l 82 0 b 43 47 47 0 38 13 l 167 744 l 103 744 b 79 775 81 744 75 749 l 88 815 b 121 844 92 835 103 844 l 185 844 l 200 939 b 256 986 207 974 221 986 l 335 986 b 374 939 372 986 381 974 l 358 844 l 769 844 l 786 939 b 842 986 793 974 807 986 l 921 986 b 960 939 956 986 967 974 l 944 844 m 340 744 l 313 581 l 724 581 l 753 744 "},"ħ":{"ha":769,"x_min":0,"x_max":0,"o":"m 299 721 b 468 740 325 733 381 740 b 706 451 661 740 738 633 l 635 43 b 583 0 631 14 613 0 l 508 0 b 474 43 476 0 468 11 l 546 457 b 419 593 563 547 521 593 b 272 572 349 593 300 586 l 179 43 b 129 0 175 14 158 0 l 53 0 b 18 43 21 0 13 11 l 157 831 l 93 831 b 72 861 71 831 67 838 l 78 896 b 110 926 81 917 92 926 l 174 926 l 183 985 b 235 1028 190 1017 203 1028 l 311 1028 b 344 985 343 1028 351 1017 l 335 926 l 522 926 b 544 896 544 926 549 919 l 539 861 b 506 831 535 838 528 831 l 318 831 "},"Ĩ":{"ha":369,"x_min":0,"x_max":0,"o":"m 515 1243 b 538 1217 533 1243 540 1235 b 393 1063 519 1106 475 1063 b 228 1142 317 1063 275 1142 b 186 1089 206 1142 192 1124 b 156 1063 182 1071 172 1063 l 110 1063 b 89 1089 92 1063 85 1071 b 231 1243 107 1200 153 1243 b 329 1204 265 1243 299 1231 b 400 1164 360 1178 383 1164 b 442 1217 421 1164 435 1182 b 471 1243 444 1235 454 1243 m 193 939 b 249 986 200 974 214 986 l 329 986 b 368 939 364 986 375 974 l 211 47 b 156 0 204 13 190 0 l 75 0 b 36 47 40 0 31 13 "},"ĩ":{"ha":321,"x_min":0,"x_max":0,"o":"m 426 1014 b 443 988 440 1014 446 1006 b 308 835 422 875 379 835 b 244 869 285 835 264 846 b 193 904 224 893 207 904 b 147 860 168 904 153 889 b 122 832 144 842 136 832 l 67 832 b 50 860 51 832 46 842 b 185 1014 68 963 113 1014 b 313 938 253 1014 274 938 b 350 988 333 938 346 954 b 376 1014 354 1006 363 1014 m 256 719 b 290 678 288 719 296 710 l 179 43 b 129 0 175 14 158 0 l 53 0 b 18 43 21 0 13 11 l 129 678 b 181 719 135 710 147 719 "},"Ī":{"ha":369,"x_min":0,"x_max":0,"o":"m 490 1208 b 524 1168 522 1208 529 1200 l 517 1133 b 469 1093 511 1101 501 1093 l 147 1093 b 114 1133 115 1093 108 1101 l 121 1168 b 168 1208 126 1200 139 1208 m 193 939 b 249 986 200 974 214 986 l 329 986 b 368 939 364 986 375 974 l 211 47 b 156 0 204 13 190 0 l 75 0 b 36 47 40 0 31 13 "},"ī":{"ha":321,"x_min":0,"x_max":0,"o":"m 371 957 b 389 919 392 957 394 949 l 383 885 b 351 846 378 853 372 846 l 115 846 b 96 885 94 846 90 853 l 101 919 b 133 957 107 949 115 957 m 256 719 b 290 678 288 719 296 710 l 179 43 b 129 0 175 14 158 0 l 53 0 b 18 43 21 0 13 11 l 129 678 b 181 719 135 710 147 719 "},"Ĭ":{"ha":369,"x_min":0,"x_max":0,"o":"m 543 1199 b 303 1056 494 1108 408 1056 b 114 1199 197 1056 129 1108 b 139 1238 110 1217 118 1231 l 199 1258 b 238 1244 222 1265 233 1263 b 322 1172 244 1196 274 1172 b 432 1244 371 1172 408 1196 b 472 1260 442 1261 456 1267 l 531 1238 b 543 1199 551 1228 554 1219 m 193 939 b 249 986 200 974 214 986 l 329 986 b 368 939 364 986 375 974 l 211 47 b 156 0 204 13 190 0 l 75 0 b 36 47 40 0 31 13 "},"ĭ":{"ha":321,"x_min":0,"x_max":0,"o":"m 444 992 b 456 953 461 985 465 971 b 239 811 408 858 336 811 b 64 953 139 811 76 864 b 90 992 61 974 69 986 l 149 1014 b 189 999 171 1021 185 1015 b 256 929 194 950 215 929 b 346 999 294 929 325 953 b 385 1014 356 1015 368 1021 m 256 719 b 290 678 288 719 296 710 l 179 43 b 129 0 175 14 158 0 l 53 0 b 18 43 21 0 13 11 l 129 678 b 181 719 135 710 147 719 "},"Į":{"ha":369,"x_min":0,"x_max":0,"o":"m 188 -261 b 181 -290 192 -274 189 -283 b 40 -340 140 -324 94 -340 b -69 -257 -32 -340 -68 -312 b 74 1 -72 -176 -25 -90 b 36 49 33 1 31 14 l 194 939 b 250 986 201 974 215 986 l 329 986 b 368 939 364 986 375 974 l 211 47 b 192 6 207 28 200 14 b 81 -193 114 -74 76 -154 b 110 -222 83 -212 93 -222 b 151 -208 125 -222 139 -218 b 176 -217 165 -200 174 -203 "},"į":{"ha":321,"x_min":0,"x_max":0,"o":"m 229 808 b 161 893 167 808 149 831 l 163 906 b 263 989 175 968 197 989 l 272 989 b 340 906 338 989 353 968 l 339 893 b 240 808 328 828 303 808 m 169 -261 b 163 -290 172 -274 169 -283 b 32 -340 125 -324 82 -340 b -78 -251 -37 -340 -74 -311 b 51 0 -82 -182 -39 -99 b 19 43 25 0 14 14 l 131 678 b 182 719 136 710 149 719 l 257 719 b 292 678 289 719 297 710 l 181 43 b 165 10 178 28 172 17 b 72 -189 103 -69 72 -136 b 103 -222 72 -211 82 -222 b 135 -210 115 -222 126 -218 b 161 -217 147 -203 157 -204 "},"İ":{"ha":369,"x_min":0,"x_max":0,"o":"m 336 1233 b 399 1158 393 1233 408 1215 l 397 1147 b 308 1074 388 1090 368 1074 l 301 1074 b 239 1147 244 1074 229 1090 l 242 1158 b 329 1233 251 1215 272 1233 m 193 939 b 249 986 200 974 214 986 l 329 986 b 368 939 364 986 375 974 l 211 47 b 156 0 204 13 190 0 l 75 0 b 36 47 40 0 31 13 "},"ı":{"ha":321,"x_min":0,"x_max":0,"o":"m 256 719 b 290 678 288 719 296 710 l 179 43 b 129 0 175 14 158 0 l 53 0 b 18 43 21 0 13 11 l 129 678 b 181 719 135 710 147 719 "},"Ĳ":{"ha":1174,"x_min":0,"x_max":0,"o":"m 193 939 b 249 986 200 974 214 986 l 329 986 b 368 939 364 986 375 974 l 211 47 b 156 0 204 13 190 0 l 75 0 b 36 47 40 0 31 13 m 1142 986 b 1179 940 1176 986 1186 974 l 1068 306 b 668 -21 1029 88 896 -21 b 365 211 489 -21 388 57 b 401 272 358 244 367 260 l 476 297 b 531 267 511 308 524 301 b 686 142 544 183 596 142 b 897 324 804 142 875 203 l 1006 940 b 1060 986 1013 975 1025 986 "},"ĳ":{"ha":657,"x_min":0,"x_max":0,"o":"m 271 989 b 339 906 336 989 351 968 l 338 893 b 239 808 326 828 301 808 l 228 808 b 160 893 165 808 147 831 l 161 906 b 261 989 174 968 196 989 m 606 989 b 674 906 671 989 686 968 l 672 893 b 574 808 661 828 636 808 l 563 808 b 494 893 500 808 482 831 l 496 906 b 596 989 508 968 531 989 m 256 719 b 290 678 288 719 296 710 l 179 43 b 129 0 175 14 158 0 l 53 0 b 18 43 21 0 13 11 l 129 678 b 181 719 135 710 147 719 m 590 719 b 625 678 622 719 631 710 l 504 -10 b 133 -319 467 -217 343 -319 b 96 -275 100 -319 90 -308 l 107 -214 b 160 -169 113 -181 126 -169 b 344 -6 272 -169 326 -112 l 464 678 b 517 719 469 710 483 719 "},"Ĵ":{"ha":799,"x_min":0,"x_max":0,"o":"m 788 1263 b 858 1225 822 1263 832 1260 l 975 1089 b 949 1054 992 1071 982 1054 l 892 1054 b 828 1079 860 1054 839 1063 l 763 1158 l 664 1079 b 594 1054 640 1057 632 1054 l 532 1054 b 517 1089 499 1054 494 1071 l 682 1225 b 771 1263 721 1260 731 1263 m 767 986 b 804 940 801 986 811 974 l 693 306 b 293 -21 654 88 521 -21 b -10 211 114 -21 13 57 b 26 272 -17 244 -8 260 l 101 297 b 156 267 136 308 149 301 b 311 142 169 183 221 142 b 522 324 429 142 500 203 l 631 940 b 685 986 638 975 650 986 "},"ĵ":{"ha":321,"x_min":0,"x_max":0,"o":"m 275 1011 b 344 975 310 1011 318 1008 l 453 842 b 426 808 468 819 460 808 l 374 808 b 311 831 336 808 324 810 l 253 910 l 164 831 b 96 808 146 815 124 808 l 32 808 b 18 842 -1 808 -6 819 l 172 975 b 260 1011 211 1008 221 1011 m 256 719 b 290 678 288 719 296 710 l 169 -10 b -201 -319 132 -217 8 -319 b -239 -275 -235 -319 -244 -308 l -228 -214 b -175 -169 -222 -181 -208 -169 b 10 -6 -62 -169 -8 -112 l 129 678 b 182 719 135 710 149 719 "},"Ķ":{"ha":871,"x_min":0,"x_max":0,"o":"m 786 47 b 753 0 796 15 785 0 l 674 0 b 588 42 614 0 599 7 l 497 324 b 349 421 471 400 443 421 l 276 421 l 211 47 b 156 0 204 13 190 0 l 75 0 b 36 47 40 0 31 13 l 193 939 b 249 986 200 974 214 986 l 329 986 b 368 939 364 986 375 974 l 304 579 l 360 579 l 379 579 l 722 947 b 824 986 751 981 768 986 l 913 986 b 928 940 944 986 950 964 l 542 540 b 669 386 607 513 642 465 m 350 -317 b 293 -357 336 -343 317 -357 l 242 -357 b 219 -326 218 -357 213 -350 l 283 -129 b 342 -85 293 -94 307 -85 l 414 -85 b 447 -129 453 -85 464 -100 "},"ķ":{"ha":724,"x_min":0,"x_max":0,"o":"m 632 51 b 596 0 644 14 636 0 l 528 0 b 460 39 479 0 471 6 l 406 231 b 308 299 393 279 365 299 l 225 299 l 179 44 b 126 0 174 11 161 0 l 56 0 b 18 44 21 0 13 11 l 183 983 b 238 1028 190 1017 203 1028 l 308 1028 b 344 983 343 1028 351 1017 l 250 442 l 311 442 l 321 442 l 553 688 b 642 719 581 717 590 719 l 711 719 b 728 669 756 719 761 703 l 474 408 b 553 294 508 390 535 351 m 299 -279 b 239 -319 282 -311 271 -319 l 197 -319 b 171 -286 169 -319 165 -312 l 225 -119 b 290 -69 236 -81 251 -69 l 350 -69 b 378 -119 386 -69 396 -86 "},"ĸ":{"ha":733,"x_min":0,"x_max":0,"o":"m 579 51 b 533 0 592 17 576 0 l 467 0 b 396 35 417 0 406 6 l 300 275 l 192 182 l 150 44 b 89 0 139 11 124 0 l 18 0 b -11 44 -15 0 -22 11 l 190 676 b 251 719 201 710 217 719 l 322 719 b 351 676 357 719 363 710 l 271 417 l 593 688 b 689 719 626 717 639 719 l 758 719 b 767 669 804 719 807 703 l 439 392 "},"Ĺ":{"ha":729,"x_min":0,"x_max":0,"o":"m 385 1256 b 463 1253 422 1275 447 1274 l 490 1208 b 476 1161 507 1185 504 1172 l 217 1060 b 163 1061 188 1050 169 1050 l 149 1088 b 158 1132 136 1108 139 1122 m 329 986 b 368 939 364 986 375 974 l 231 163 l 629 163 b 668 115 664 163 675 150 l 657 47 b 601 0 650 13 636 0 l 75 0 b 36 47 40 0 31 13 l 193 939 b 249 986 200 974 214 986 "},"ĺ":{"ha":328,"x_min":0,"x_max":0,"o":"m 353 1272 b 425 1265 388 1289 411 1286 l 456 1215 b 442 1167 472 1189 469 1176 l 213 1083 b 158 1086 183 1074 165 1074 l 140 1118 b 151 1164 129 1139 133 1154 m 185 43 b 133 0 178 11 165 0 l 58 0 b 24 43 25 0 17 11 l 189 985 b 240 1028 194 1017 207 1028 l 315 1028 b 350 985 347 1028 356 1017 "},"Ļ":{"ha":729,"x_min":0,"x_max":0,"o":"m 329 986 b 368 939 364 986 375 974 l 231 163 l 629 163 b 668 115 664 163 675 150 l 657 47 b 601 0 650 13 636 0 l 75 0 b 36 47 40 0 31 13 l 193 939 b 249 986 200 974 214 986 m 296 -317 b 240 -357 283 -343 264 -357 l 188 -357 b 167 -326 164 -357 157 -350 l 229 -129 b 288 -85 239 -94 253 -85 l 361 -85 b 394 -129 399 -85 410 -100 "},"ļ":{"ha":328,"x_min":0,"x_max":0,"o":"m 182 43 b 131 0 178 14 160 0 l 56 0 b 21 43 24 0 15 11 l 186 985 b 238 1028 190 1014 208 1028 l 313 1028 b 347 985 344 1028 353 1017 m 65 -286 b 4 -325 50 -315 36 -325 l -37 -325 b -61 -293 -65 -325 -68 -317 l -1 -111 b 63 -61 10 -72 25 -61 l 122 -61 b 151 -111 158 -61 168 -78 "},"Ľ":{"ha":731,"x_min":0,"x_max":0,"o":"m 329 986 b 368 939 364 986 375 974 l 231 163 l 629 163 b 668 115 664 163 675 150 l 657 47 b 601 0 650 13 636 0 l 75 0 b 36 47 40 0 31 13 l 193 939 b 249 986 200 974 214 986 m 606 707 b 551 668 589 678 579 668 l 513 668 b 492 697 489 668 485 674 l 568 942 b 625 986 575 976 590 986 l 690 986 b 722 942 726 986 738 971 "},"ľ":{"ha":339,"x_min":0,"x_max":0,"o":"m 185 43 b 133 0 178 11 165 0 l 58 0 b 24 43 25 0 17 11 l 189 985 b 240 1028 194 1017 207 1028 l 315 1028 b 350 985 347 1028 356 1017 m 507 782 b 458 744 493 757 488 744 l 421 744 b 397 782 396 744 388 757 l 463 983 b 513 1028 472 1014 478 1028 l 568 1028 b 606 983 608 1028 621 1013 "},"Ŀ":{"ha":731,"x_min":0,"x_max":0,"o":"m 329 986 b 368 939 364 986 375 974 l 231 163 l 629 163 b 668 115 664 163 675 150 l 657 47 b 601 0 650 13 636 0 l 75 0 b 36 47 40 0 31 13 l 193 939 b 249 986 200 974 214 986 m 535 626 b 608 538 601 626 618 604 l 606 525 b 500 436 593 457 568 436 l 490 436 b 417 525 424 436 406 457 l 419 538 b 525 626 431 604 457 626 "},"ŀ":{"ha":528,"x_min":0,"x_max":0,"o":"m 185 43 b 133 0 178 11 165 0 l 58 0 b 24 43 25 0 17 11 l 189 985 b 240 1028 194 1017 207 1028 l 315 1028 b 350 985 347 1028 356 1017 m 474 618 b 546 529 540 618 557 596 l 543 517 b 439 428 532 450 506 428 l 429 428 b 356 517 361 428 343 449 l 358 529 b 463 618 369 596 396 618 "},"Ł":{"ha":764,"x_min":0,"x_max":0,"o":"m 669 163 b 708 115 704 163 715 150 l 696 47 b 640 0 690 13 675 0 l 115 0 b 76 47 81 0 69 13 l 132 360 l 50 325 b 7 340 28 315 14 319 l -10 390 b 11 431 -15 410 -8 424 l 154 492 l 233 939 b 289 986 240 974 254 986 l 368 986 b 407 939 403 986 414 974 l 343 571 l 567 667 b 611 650 589 675 604 669 l 628 600 b 604 560 632 579 625 567 l 319 439 l 271 163 "},"ł":{"ha":461,"x_min":0,"x_max":0,"o":"m 490 608 b 472 567 499 590 493 576 l 331 496 l 251 43 b 200 0 244 11 232 0 l 124 0 b 90 43 92 0 83 11 l 154 408 l 89 375 b 43 386 65 364 50 368 l 24 433 b 43 475 17 451 24 465 l 178 543 l 254 985 b 306 1028 261 1017 274 1028 l 382 1028 b 417 985 414 1028 422 1017 l 354 629 l 426 667 b 472 656 454 678 461 674 "},"Ń":{"ha":969,"x_min":0,"x_max":0,"o":"m 685 1256 b 763 1253 722 1275 747 1274 l 790 1208 b 776 1161 807 1185 804 1172 l 517 1060 b 463 1061 488 1050 469 1050 l 449 1088 b 458 1132 435 1108 438 1122 m 928 986 b 967 939 963 986 974 974 l 810 47 b 754 0 806 15 786 0 l 675 0 b 633 24 654 0 640 8 l 383 526 b 313 760 340 611 311 764 l 304 760 b 285 483 304 763 304 600 l 208 47 b 153 0 204 15 185 0 l 75 0 b 36 47 40 0 31 13 l 193 939 b 249 986 200 974 214 986 l 322 986 b 368 964 343 986 358 979 l 617 464 b 674 310 640 415 663 350 b 692 228 683 269 690 229 l 700 228 b 718 508 700 226 699 383 l 794 939 b 850 986 801 974 815 986 "},"ń":{"ha":767,"x_min":0,"x_max":0,"o":"m 529 1013 b 608 1010 567 1032 593 1031 l 635 965 b 621 918 651 940 651 929 l 361 817 b 308 819 332 807 315 807 l 293 844 b 304 889 281 865 283 879 m 183 693 b 464 740 268 725 361 740 b 703 449 657 740 735 632 l 632 43 b 581 0 625 11 613 0 l 504 0 b 471 43 472 0 464 11 l 543 457 b 417 593 560 547 518 593 b 279 575 371 593 325 588 b 267 561 275 574 271 568 l 176 43 b 126 0 172 14 156 0 l 50 0 b 15 43 18 0 10 11 l 115 614 b 183 693 125 658 138 675 "},"Ņ":{"ha":969,"x_min":0,"x_max":0,"o":"m 928 986 b 967 939 963 986 974 974 l 810 47 b 754 0 806 15 786 0 l 675 0 b 633 24 654 0 640 8 l 383 526 b 313 760 340 611 311 764 l 304 760 b 285 483 304 763 304 600 l 208 47 b 153 0 204 15 185 0 l 75 0 b 36 47 40 0 31 13 l 193 939 b 249 986 200 974 214 986 l 322 986 b 368 964 343 986 358 979 l 617 464 b 674 310 640 415 663 350 b 692 228 683 269 690 229 l 700 228 b 718 508 700 226 699 383 l 794 939 b 850 986 801 974 815 986 m 392 -317 b 336 -357 379 -343 360 -357 l 285 -357 b 263 -326 258 -357 256 -350 l 325 -129 b 383 -85 335 -94 349 -85 l 457 -85 b 490 -129 494 -85 506 -100 "},"ņ":{"ha":767,"x_min":0,"x_max":0,"o":"m 183 693 b 464 740 268 725 361 740 b 703 449 657 740 735 632 l 632 43 b 581 0 625 11 613 0 l 504 0 b 471 43 472 0 464 11 l 543 457 b 417 593 560 547 518 593 b 279 575 371 593 325 588 b 267 561 275 574 271 568 l 176 43 b 126 0 172 14 156 0 l 50 0 b 15 43 18 0 10 11 l 115 614 b 183 693 125 658 138 675 m 311 -265 b 250 -304 296 -294 282 -304 l 208 -304 b 185 -272 181 -304 178 -299 l 239 -104 b 303 -54 251 -65 265 -54 l 364 -54 b 392 -104 400 -54 410 -71 "},"Ň":{"ha":969,"x_min":0,"x_max":0,"o":"m 844 1260 b 857 1225 879 1260 879 1244 l 693 1090 b 610 1053 654 1057 644 1053 l 593 1053 b 517 1090 550 1053 544 1056 l 400 1225 b 426 1260 383 1243 393 1260 l 485 1260 b 546 1236 522 1260 529 1258 l 615 1157 l 710 1236 b 782 1260 725 1251 750 1260 m 928 986 b 967 939 963 986 974 974 l 810 47 b 754 0 806 15 786 0 l 675 0 b 633 24 654 0 640 8 l 383 526 b 313 760 340 611 311 764 l 304 760 b 285 483 304 763 304 600 l 208 47 b 153 0 204 15 185 0 l 75 0 b 36 47 40 0 31 13 l 193 939 b 249 986 200 974 214 986 l 322 986 b 368 964 343 986 358 979 l 617 464 b 674 310 640 415 663 350 b 692 228 683 269 690 229 l 700 228 b 718 508 700 226 699 383 l 794 939 b 850 986 801 974 815 986 "},"ň":{"ha":767,"x_min":0,"x_max":0,"o":"m 246 981 b 271 1015 229 999 238 1015 l 326 1015 b 388 992 364 1015 371 1014 l 457 911 l 551 992 b 625 1015 569 1007 593 1015 l 689 1015 b 703 981 722 1015 725 999 l 538 844 b 456 807 499 810 489 807 l 439 807 b 363 844 399 807 390 811 m 464 740 b 703 449 657 740 735 632 l 632 43 b 581 0 625 11 613 0 l 504 0 b 471 43 472 0 464 11 l 543 457 b 417 593 560 547 518 593 b 279 575 371 593 325 588 b 267 561 275 574 271 568 l 176 43 b 126 0 172 14 156 0 l 50 0 b 15 43 18 0 10 11 l 115 614 b 183 693 125 658 138 675 b 464 740 268 725 361 740 "},"ŉ":{"ha":767,"x_min":0,"x_max":0,"o":"m 160 778 b 110 749 143 754 136 749 l 64 749 b 43 778 40 749 33 758 l 147 990 b 197 1028 161 1017 164 1028 l 275 1028 b 303 983 313 1028 321 1010 m 183 693 b 464 740 268 725 361 740 b 703 449 657 740 735 632 l 632 43 b 581 0 625 11 613 0 l 504 0 b 471 43 472 0 464 11 l 543 457 b 417 593 560 547 518 593 b 279 575 371 593 325 588 b 267 561 275 574 271 568 l 176 43 b 126 0 172 14 156 0 l 50 0 b 15 43 18 0 10 11 l 115 614 b 183 693 125 658 138 675 "},"Ŋ":{"ha":969,"x_min":0,"x_max":0,"o":"m 928 986 b 967 939 963 986 974 974 l 800 -11 b 421 -319 765 -207 636 -319 b 385 -275 388 -319 379 -308 l 396 -214 b 447 -169 401 -181 414 -169 b 633 -7 551 -169 614 -115 l 636 15 l 385 526 b 313 760 342 611 311 764 l 304 760 b 286 489 301 750 311 619 l 208 47 b 153 0 204 15 185 0 l 75 0 b 36 47 40 0 31 13 l 193 939 b 249 986 200 974 214 986 l 325 986 b 368 964 344 986 358 979 l 617 464 b 693 228 664 368 693 228 l 701 228 l 701 319 b 719 508 701 365 708 443 l 796 939 b 851 986 803 974 817 986 "},"ŋ":{"ha":767,"x_min":0,"x_max":0,"o":"m 183 693 b 464 740 268 725 361 740 b 703 449 657 740 735 632 l 619 -24 b 254 -319 586 -212 461 -319 b 221 -278 222 -319 214 -310 l 231 -218 b 279 -176 236 -186 247 -176 b 460 -18 381 -176 440 -124 l 543 457 b 417 593 560 547 518 593 b 279 575 371 593 325 588 b 267 561 275 574 271 568 l 176 43 b 126 0 172 14 156 0 l 50 0 b 15 43 18 0 10 11 l 115 614 b 183 693 125 658 138 675 "},"Ō":{"ha":931,"x_min":0,"x_max":0,"o":"m 799 1222 b 832 1182 831 1222 839 1214 l 826 1147 b 779 1107 821 1115 811 1107 l 457 1107 b 424 1147 425 1107 418 1115 l 429 1182 b 478 1222 436 1214 449 1222 m 140 656 b 594 1007 179 879 340 1007 b 929 632 846 1007 968 860 l 876 328 b 424 -21 838 104 678 -21 b 86 351 172 -21 47 124 m 760 646 b 571 844 781 775 714 844 b 314 646 428 844 336 774 l 260 340 b 447 142 236 213 304 142 b 704 340 590 142 682 211 "},"ō":{"ha":754,"x_min":0,"x_max":0,"o":"m 314 850 b 281 890 282 850 276 858 l 286 925 b 335 965 293 957 306 965 l 656 965 b 689 925 688 965 694 957 l 683 890 b 636 850 678 858 668 850 m 454 740 b 726 454 660 740 756 631 l 690 249 b 325 -21 658 75 532 -21 b 51 261 121 -21 22 88 l 88 467 b 454 740 119 640 250 740 m 567 463 b 431 594 582 547 532 594 b 249 463 329 594 264 547 l 213 257 b 347 125 197 174 246 125 b 531 257 449 125 515 174 "},"Ŏ":{"ha":931,"x_min":0,"x_max":0,"o":"m 853 1213 b 613 1069 804 1122 718 1069 b 424 1213 507 1069 439 1122 b 449 1251 419 1231 428 1244 l 508 1272 b 547 1258 532 1279 543 1276 b 632 1186 554 1210 583 1186 b 742 1258 681 1186 718 1210 b 782 1274 751 1275 765 1281 l 840 1251 b 853 1213 858 1243 863 1231 m 140 656 b 594 1007 179 879 340 1007 b 929 632 846 1007 968 860 l 876 328 b 424 -21 838 104 678 -21 b 86 351 172 -21 47 124 m 760 646 b 571 844 781 775 714 844 b 314 646 428 844 336 774 l 260 340 b 447 142 236 213 304 142 b 704 340 590 142 682 211 "},"ŏ":{"ha":754,"x_min":0,"x_max":0,"o":"m 710 953 b 475 811 661 858 582 811 b 281 953 369 811 293 864 b 307 993 276 975 283 986 l 360 1011 b 400 997 382 1018 396 1014 b 489 926 407 950 438 926 b 600 1000 538 926 574 951 b 639 1015 610 1015 622 1019 l 699 993 b 710 953 715 983 719 971 m 88 467 b 454 740 119 640 250 740 b 726 454 660 740 756 631 l 690 249 b 325 -21 658 75 532 -21 b 51 261 121 -21 22 88 m 567 463 b 431 594 582 547 532 594 b 249 463 329 594 264 547 l 213 257 b 347 125 197 174 246 125 b 531 257 449 125 515 174 "},"Ő":{"ha":931,"x_min":0,"x_max":0,"o":"m 536 1254 b 613 1282 560 1281 586 1290 l 658 1265 b 663 1218 686 1256 688 1240 l 499 1090 b 446 1072 476 1072 458 1067 l 424 1081 b 417 1122 401 1088 399 1101 m 771 1254 b 849 1282 796 1281 822 1290 l 897 1265 b 901 1218 929 1256 931 1239 l 724 1085 b 671 1067 701 1068 683 1063 l 649 1074 b 642 1117 624 1082 621 1096 m 140 656 b 594 1007 179 879 340 1007 b 929 632 846 1007 968 860 l 876 328 b 424 -21 838 104 678 -21 b 86 351 172 -21 47 124 m 760 646 b 571 844 781 775 714 844 b 314 646 428 844 336 774 l 260 340 b 447 142 236 213 304 142 b 704 340 590 142 682 211 "},"ő":{"ha":754,"x_min":0,"x_max":0,"o":"m 278 813 b 272 856 257 819 254 835 l 392 986 b 468 1014 415 1013 440 1022 l 514 999 b 518 950 540 989 542 972 l 354 822 b 301 806 331 806 314 800 m 753 997 b 758 950 783 988 785 971 l 579 818 b 526 800 557 800 539 793 l 504 807 b 497 850 481 814 478 829 l 628 986 b 704 1014 651 1013 678 1022 m 454 740 b 726 454 660 740 756 631 l 690 249 b 325 -21 658 75 532 -21 b 51 261 121 -21 22 88 l 88 467 b 454 740 119 640 250 740 m 567 463 b 431 594 582 547 532 594 b 249 463 329 594 264 547 l 213 257 b 347 125 197 174 246 125 b 531 257 449 125 515 174 "},"Œ":{"ha":1192,"x_min":0,"x_max":0,"o":"m 1086 163 b 1125 115 1121 163 1132 150 l 1113 47 b 1057 0 1107 13 1092 0 l 579 0 b 419 -21 531 -14 476 -21 b 146 83 294 -21 203 14 b 89 358 88 153 68 244 l 143 663 b 600 1007 182 885 344 1007 b 753 986 660 1007 710 1000 l 1217 986 b 1256 939 1251 986 1263 974 l 1243 871 b 1188 824 1238 836 1222 824 l 850 824 l 808 581 l 1079 581 b 1118 533 1114 581 1124 568 l 1106 465 b 1049 418 1099 431 1083 418 l 778 418 l 733 163 m 260 340 b 449 142 238 211 304 142 b 560 158 489 142 526 147 l 678 828 b 572 844 647 839 613 844 b 314 646 428 844 336 774 "},"œ":{"ha":1124,"x_min":0,"x_max":0,"o":"m 643 642 b 872 740 703 707 779 740 b 1118 496 1056 740 1147 651 b 800 289 1092 358 985 289 b 649 306 757 289 706 294 l 640 257 b 757 118 625 168 667 118 b 917 190 825 118 879 142 b 983 207 940 222 956 228 l 1026 178 b 1028 108 1050 160 1050 138 b 732 -21 967 22 868 -21 b 539 61 640 -21 576 7 b 306 -21 481 7 403 -21 b 56 267 115 -21 24 90 l 92 474 b 439 740 124 646 244 740 b 643 642 542 740 610 707 m 958 501 b 849 604 974 569 939 604 b 676 463 756 604 693 553 l 671 429 b 822 413 729 418 779 413 b 958 501 901 413 947 442 m 528 446 b 414 594 544 544 507 594 b 251 463 321 594 267 550 l 215 257 b 331 125 200 174 242 125 b 497 272 421 125 481 179 "},"Ŕ":{"ha":904,"x_min":0,"x_max":0,"o":"m 651 1256 b 729 1253 689 1275 714 1274 l 757 1208 b 743 1161 774 1185 771 1172 l 483 1060 b 429 1061 454 1050 436 1050 l 415 1088 b 425 1132 401 1108 404 1122 m 633 986 b 889 669 826 986 926 863 b 660 400 867 532 790 442 b 693 340 672 388 683 367 l 794 47 b 763 0 806 21 794 0 l 682 0 b 594 42 621 0 604 8 l 521 278 b 478 357 508 318 494 344 b 382 375 460 369 428 375 l 269 375 l 211 47 b 156 0 204 13 190 0 l 75 0 b 36 47 40 0 31 13 l 193 939 b 249 986 200 974 214 986 m 708 681 b 589 824 726 771 682 824 l 347 824 l 297 538 l 539 538 b 708 681 633 538 693 588 "},"ŕ":{"ha":489,"x_min":0,"x_max":0,"o":"m 443 1011 b 522 1010 482 1032 508 1031 l 549 965 b 535 918 567 942 564 928 l 276 817 b 222 818 247 806 229 806 l 207 844 b 218 889 194 865 197 879 m 449 740 l 494 740 b 531 697 526 740 536 731 l 519 636 b 469 593 515 607 499 593 l 419 593 b 283 576 368 593 322 588 b 267 560 276 575 271 569 l 176 43 b 126 0 172 14 156 0 l 50 0 b 15 43 18 0 10 11 l 117 619 b 185 699 126 664 139 681 b 449 740 256 724 343 738 "},"Ŗ":{"ha":904,"x_min":0,"x_max":0,"o":"m 633 986 b 889 669 826 986 926 863 b 660 400 867 532 790 442 b 693 340 672 388 683 367 l 794 47 b 763 0 806 21 794 0 l 682 0 b 594 42 621 0 604 8 l 521 278 b 478 357 508 318 494 344 b 382 375 460 369 428 375 l 269 375 l 211 47 b 156 0 204 13 190 0 l 75 0 b 36 47 40 0 31 13 l 193 939 b 249 986 200 974 214 986 m 708 681 b 589 824 726 771 682 824 l 347 824 l 297 538 l 539 538 b 708 681 633 538 693 588 m 369 -317 b 313 -357 356 -343 336 -357 l 261 -357 b 239 -326 238 -357 232 -350 l 301 -129 b 361 -85 311 -94 326 -85 l 433 -85 b 467 -129 471 -85 482 -100 "},"ŗ":{"ha":489,"x_min":0,"x_max":0,"o":"m 450 740 l 494 740 b 531 697 526 740 536 731 l 519 636 b 469 593 515 607 499 593 l 419 593 b 283 576 368 593 322 588 b 268 560 275 575 269 569 l 176 43 b 126 0 172 14 156 0 l 50 0 b 15 43 18 0 10 11 l 117 619 b 185 699 126 664 139 681 b 450 740 258 725 346 739 m 75 -274 b 15 -312 63 -303 47 -312 l -26 -312 b -51 -281 -54 -312 -58 -307 l 3 -106 b 67 -56 14 -67 28 -56 l 128 -56 b 157 -106 164 -56 174 -72 "},"Ř":{"ha":904,"x_min":0,"x_max":0,"o":"m 811 1260 b 824 1225 846 1260 846 1244 l 660 1090 b 576 1053 621 1057 611 1053 l 560 1053 b 483 1090 517 1053 511 1056 l 367 1225 b 393 1260 351 1243 360 1260 l 451 1260 b 513 1236 489 1260 496 1258 l 582 1157 l 676 1236 b 749 1260 692 1251 717 1260 m 633 986 b 889 669 826 986 926 863 b 660 400 867 532 790 442 b 693 340 672 388 683 367 l 794 47 b 763 0 806 21 794 0 l 682 0 b 594 42 621 0 604 8 l 521 278 b 478 357 508 318 494 344 b 382 375 460 369 428 375 l 269 375 l 211 47 b 156 0 204 13 190 0 l 75 0 b 36 47 40 0 31 13 l 193 939 b 249 986 200 974 214 986 m 708 681 b 589 824 726 771 682 824 l 347 824 l 297 538 l 539 538 b 708 681 633 538 693 588 "},"ř":{"ha":489,"x_min":0,"x_max":0,"o":"m 603 1015 b 617 981 636 1015 639 999 l 451 844 b 369 807 413 810 403 807 l 353 807 b 276 844 313 807 304 811 l 160 981 b 186 1015 143 999 153 1015 l 242 1015 b 301 992 276 1015 285 1013 l 372 911 l 465 992 b 539 1015 483 1007 507 1015 m 494 740 b 531 697 526 740 536 731 l 519 636 b 469 593 515 607 499 593 l 419 593 b 283 576 368 593 322 588 b 267 560 276 575 271 569 l 176 43 b 126 0 172 14 156 0 l 50 0 b 15 43 18 0 10 11 l 117 619 b 185 699 126 664 139 681 b 449 740 256 724 343 738 "},"Ś":{"ha":871,"x_min":0,"x_max":0,"o":"m 640 1268 b 719 1267 678 1289 704 1288 l 746 1222 b 732 1175 764 1199 761 1185 l 474 1072 b 419 1075 444 1063 426 1064 l 404 1101 b 414 1146 392 1122 394 1136 m 117 728 b 542 1007 150 907 293 1007 b 864 792 726 1007 819 929 b 829 733 875 760 867 749 l 751 700 b 694 724 718 688 706 692 b 515 840 668 800 619 840 b 292 714 381 840 307 799 b 349 615 285 665 303 633 b 508 581 394 597 435 588 b 807 264 740 554 839 449 b 369 -21 772 74 626 -21 b 18 211 168 -21 50 57 b 58 272 13 246 24 261 l 139 300 b 193 271 174 311 183 304 b 388 142 214 185 279 142 b 633 286 533 142 615 190 b 436 415 649 371 575 400 b 242 464 360 422 307 433 b 163 518 208 479 182 497 b 117 728 124 561 100 635 "},"ś":{"ha":697,"x_min":0,"x_max":0,"o":"m 510 1013 b 588 1010 547 1031 574 1031 l 615 965 b 601 918 632 940 632 929 l 342 817 b 288 819 313 807 294 807 l 274 844 b 285 889 260 865 264 879 m 79 526 b 403 740 103 661 214 740 b 671 592 549 740 638 690 b 640 529 681 563 669 542 l 579 506 b 524 526 546 493 539 497 b 382 596 504 572 457 596 b 238 521 296 596 247 571 b 385 435 226 460 267 446 b 626 200 561 417 654 356 b 289 -21 603 61 483 -21 b 7 147 125 -21 31 35 b 46 206 1 175 14 194 l 113 225 b 164 199 144 235 151 231 b 308 122 181 147 229 122 b 469 204 406 122 460 150 b 318 293 481 265 440 281 b 139 347 240 300 192 314 b 79 526 86 379 64 442 "},"Ŝ":{"ha":871,"x_min":0,"x_max":0,"o":"m 608 1276 b 678 1239 642 1276 651 1274 l 796 1103 b 769 1068 811 1085 803 1068 l 711 1068 b 647 1092 679 1068 658 1076 l 582 1172 l 483 1092 b 414 1068 460 1069 451 1068 l 351 1068 b 338 1103 317 1068 315 1085 l 501 1239 b 590 1276 540 1274 550 1276 m 117 728 b 542 1007 150 907 293 1007 b 864 792 726 1007 819 929 b 829 733 875 760 867 749 l 751 700 b 694 724 718 688 706 692 b 515 840 668 800 619 840 b 292 714 381 840 307 799 b 349 615 285 665 303 633 b 508 581 394 597 435 588 b 807 264 740 554 839 449 b 369 -21 772 74 626 -21 b 18 211 168 -21 50 57 b 58 272 13 246 24 261 l 139 300 b 193 271 174 311 183 304 b 388 142 214 185 279 142 b 633 286 533 142 615 190 b 436 415 649 371 575 400 b 242 464 360 422 307 433 b 163 518 208 479 182 497 b 117 728 124 561 100 635 "},"ŝ":{"ha":697,"x_min":0,"x_max":0,"o":"m 219 810 b 206 844 186 810 183 826 l 371 981 b 460 1018 410 1015 419 1018 l 476 1018 b 547 981 510 1018 519 1015 l 664 844 b 638 810 681 826 671 810 l 582 810 b 519 833 550 810 529 818 l 453 914 l 357 833 b 286 810 331 811 324 810 m 671 592 b 640 529 681 563 669 542 l 579 506 b 524 526 546 493 539 497 b 382 596 504 572 457 596 b 238 521 296 596 247 571 b 385 435 226 460 267 446 b 626 200 561 417 654 356 b 289 -21 603 61 483 -21 b 7 147 125 -21 31 35 b 46 206 1 175 14 194 l 113 225 b 164 199 144 235 151 231 b 308 122 181 147 229 122 b 469 204 406 122 460 150 b 318 293 481 265 440 281 b 139 347 240 300 192 314 b 79 526 86 379 64 442 b 403 740 103 661 214 740 b 671 592 549 740 638 690 "},"Ş":{"ha":871,"x_min":0,"x_max":0,"o":"m 117 728 b 542 1007 150 907 293 1007 b 864 792 726 1007 819 929 b 829 733 875 760 867 749 l 751 700 b 694 724 718 688 706 692 b 515 840 668 800 619 840 b 292 714 381 840 307 799 b 349 615 285 665 303 633 b 508 581 394 597 435 588 b 807 264 740 554 839 449 b 444 -17 778 94 657 1 l 403 -92 b 419 -90 407 -90 413 -90 b 519 -218 503 -90 542 -144 b 311 -346 496 -306 411 -346 b 214 -324 272 -346 240 -339 b 197 -285 199 -315 193 -303 l 204 -243 b 228 -226 206 -224 214 -218 b 307 -249 254 -242 281 -249 b 389 -200 356 -249 382 -232 b 332 -158 394 -174 375 -158 b 297 -160 317 -158 304 -158 b 283 -126 274 -161 268 -150 l 347 -21 b 18 211 160 -15 50 63 b 58 272 13 246 24 261 l 139 300 b 193 271 174 311 183 304 b 388 142 214 185 279 142 b 633 286 533 142 615 190 b 436 415 649 371 575 400 b 242 464 360 422 307 433 b 163 518 208 479 182 497 b 117 728 124 561 100 635 "},"ş":{"ha":697,"x_min":0,"x_max":0,"o":"m 79 526 b 403 740 103 661 214 740 b 671 592 549 740 638 690 b 640 529 681 563 669 542 l 579 506 b 524 526 546 493 539 497 b 382 596 504 572 457 596 b 238 521 296 596 247 571 b 385 435 226 460 267 446 b 626 200 561 417 654 356 b 360 -15 604 75 515 3 l 318 -92 b 333 -90 321 -90 326 -90 b 435 -217 417 -90 456 -144 b 226 -346 411 -306 326 -346 b 128 -322 185 -346 151 -337 b 111 -285 113 -315 107 -303 l 118 -242 b 142 -225 119 -224 128 -218 b 222 -249 169 -240 196 -249 b 303 -200 269 -249 296 -232 b 246 -158 308 -172 289 -158 b 211 -160 231 -158 218 -158 b 197 -126 189 -160 185 -149 l 261 -19 b 7 147 115 -14 31 42 b 46 206 1 175 14 194 l 113 225 b 164 199 144 235 151 231 b 308 122 181 147 229 122 b 469 204 406 122 460 150 b 318 293 481 265 440 281 b 139 347 240 300 192 314 b 79 526 86 379 64 442 "},"Š":{"ha":871,"x_min":0,"x_max":0,"o":"m 801 1274 b 814 1239 835 1274 836 1257 l 650 1103 b 565 1067 611 1069 603 1067 l 549 1067 b 474 1103 508 1067 501 1069 l 356 1239 b 383 1274 340 1257 350 1274 l 440 1274 b 501 1250 478 1274 485 1272 l 571 1171 l 665 1250 b 739 1274 682 1265 707 1274 m 117 728 b 542 1007 150 907 293 1007 b 864 792 726 1007 819 929 b 829 733 875 760 867 749 l 751 700 b 694 724 718 688 706 692 b 515 840 668 800 619 840 b 292 714 381 840 307 799 b 349 615 285 665 303 633 b 508 581 394 597 435 588 b 807 264 740 554 839 449 b 369 -21 772 74 626 -21 b 18 211 168 -21 50 57 b 58 272 13 246 24 261 l 139 300 b 193 271 174 311 183 304 b 388 142 214 185 279 142 b 633 286 533 142 615 190 b 436 415 649 371 575 400 b 242 464 360 422 307 433 b 163 518 208 479 182 497 b 117 728 124 561 100 635 "},"š":{"ha":697,"x_min":0,"x_max":0,"o":"m 669 1015 b 683 981 703 1015 706 999 l 518 844 b 435 807 478 810 469 807 l 419 807 b 342 844 376 807 371 810 l 225 981 b 251 1015 208 999 218 1015 l 307 1015 b 368 992 344 1015 351 1014 l 438 911 l 532 992 b 604 1015 550 1007 574 1015 m 403 740 b 671 592 549 740 638 690 b 640 529 681 563 669 542 l 579 506 b 524 526 546 493 539 497 b 382 596 504 572 457 596 b 238 521 296 596 247 571 b 385 435 226 460 267 446 b 626 200 561 417 654 356 b 289 -21 603 61 483 -21 b 7 147 125 -21 31 35 b 46 206 1 175 14 194 l 113 225 b 164 199 144 235 151 231 b 308 122 181 147 229 122 b 469 204 406 122 460 150 b 318 293 481 265 440 281 b 139 347 240 300 192 314 b 79 526 86 379 64 442 b 403 740 103 661 214 740 "},"Ť":{"ha":782,"x_min":0,"x_max":0,"o":"m 750 1260 b 763 1225 785 1260 785 1244 l 599 1090 b 515 1053 560 1057 550 1053 l 497 1053 b 422 1090 457 1053 450 1056 l 306 1225 b 332 1260 289 1243 299 1260 l 390 1260 b 451 1236 428 1260 435 1258 l 521 1157 l 614 1236 b 688 1260 631 1251 656 1260 m 821 986 b 860 939 856 986 867 974 l 847 871 b 792 824 842 836 826 824 l 553 824 l 415 47 b 360 0 410 13 394 0 l 281 0 b 242 47 246 0 236 13 l 379 824 l 139 824 b 100 871 104 824 94 836 l 113 939 b 168 986 119 974 133 986 "},"ť":{"ha":535,"x_min":0,"x_max":0,"o":"m 571 813 b 517 774 554 783 544 774 l 478 774 b 457 803 454 774 451 779 l 507 983 b 565 1028 514 1017 531 1028 l 632 1028 b 661 983 667 1028 676 1013 m 353 886 b 388 844 385 886 393 876 l 365 719 l 525 719 b 558 678 557 719 565 710 l 549 614 b 499 571 544 585 528 571 l 340 571 l 290 292 b 301 163 279 226 283 183 b 419 132 319 142 358 132 b 456 89 453 132 461 122 l 444 25 b 393 -19 438 -8 426 -18 b 157 42 275 -24 197 -3 b 129 286 117 86 107 168 l 179 571 l 83 571 b 47 614 51 571 42 582 l 58 678 b 110 719 64 710 76 719 l 204 719 l 226 844 b 276 886 232 876 244 886 "},"Ŧ":{"ha":808,"x_min":0,"x_max":0,"o":"m 833 986 b 872 939 868 986 879 974 l 860 871 b 804 824 854 836 839 824 l 565 824 l 511 517 l 676 517 b 699 486 699 517 703 508 l 688 422 b 654 392 683 401 672 392 l 489 392 l 428 47 b 372 0 422 13 407 0 l 293 0 b 254 47 258 0 249 13 l 315 392 l 150 392 b 128 422 128 392 124 399 l 139 486 b 172 517 143 507 154 517 l 338 517 l 392 824 l 151 824 b 113 871 117 824 107 836 l 125 939 b 181 986 132 974 146 986 "},"ŧ":{"ha":538,"x_min":0,"x_max":0,"o":"m 354 888 b 390 844 386 888 396 878 l 368 721 l 526 721 b 563 678 558 721 567 711 l 550 614 b 501 572 544 582 533 572 l 342 572 l 317 426 l 440 426 b 463 397 463 426 467 419 l 454 344 b 421 315 449 321 442 315 l 296 315 l 292 289 b 303 163 281 224 285 182 b 421 133 321 143 360 133 b 458 90 454 133 464 122 l 446 25 b 396 -18 440 -7 428 -17 b 160 43 278 -22 200 -1 b 131 288 119 88 110 169 l 135 315 l 51 315 b 31 344 31 315 25 321 l 38 397 b 72 426 42 417 54 426 l 156 426 l 181 572 l 86 572 b 50 614 54 572 44 582 l 63 678 b 111 721 67 711 79 721 l 207 721 l 229 844 b 279 888 235 878 247 888 "},"Ũ":{"ha":956,"x_min":0,"x_max":0,"o":"m 835 1243 b 857 1217 853 1243 860 1235 b 713 1063 836 1106 794 1063 b 547 1142 636 1063 594 1142 b 506 1089 525 1142 511 1124 b 475 1063 501 1071 492 1063 l 429 1063 b 408 1089 411 1063 404 1071 b 550 1243 426 1200 472 1243 b 718 1164 635 1243 674 1164 b 760 1217 740 1164 754 1182 b 790 1243 764 1235 774 1243 m 281 338 b 460 142 258 211 319 142 b 708 338 600 142 686 211 l 814 939 b 869 986 821 974 835 986 l 949 986 b 989 939 983 986 994 974 l 879 322 b 435 -21 840 100 689 -21 b 163 83 310 -21 219 14 b 108 356 106 153 88 243 l 213 939 b 268 986 218 974 233 986 l 347 986 b 386 939 382 986 393 974 "},"ũ":{"ha":767,"x_min":0,"x_max":0,"o":"m 690 1006 b 711 979 708 1006 715 997 b 568 824 693 867 650 824 b 474 864 536 824 504 838 b 401 903 443 890 419 903 b 360 850 381 903 367 885 b 331 824 357 832 347 824 l 285 824 b 263 850 267 824 260 832 b 404 1006 281 961 326 1006 b 574 926 499 1006 518 926 b 615 979 596 926 610 944 b 646 1006 619 997 629 1006 m 725 719 b 760 678 757 719 765 710 l 660 106 b 592 28 650 61 638 46 b 311 -21 504 -4 411 -21 b 72 269 118 -21 40 88 l 143 678 b 194 719 149 710 161 719 l 269 719 b 304 678 301 719 310 710 l 232 264 b 358 126 215 172 257 126 b 489 143 407 126 451 132 b 508 167 500 147 507 154 l 599 678 b 649 719 604 710 617 719 "},"Ū":{"ha":956,"x_min":0,"x_max":0,"o":"m 808 1208 b 842 1168 840 1208 849 1200 l 836 1133 b 789 1093 831 1101 821 1093 l 467 1093 b 433 1133 435 1093 428 1101 l 439 1168 b 488 1208 446 1200 458 1208 m 281 338 b 460 142 258 211 319 142 b 708 338 600 142 686 211 l 814 939 b 869 986 821 974 835 986 l 949 986 b 989 939 983 986 994 974 l 879 322 b 435 -21 840 100 689 -21 b 163 83 310 -21 219 14 b 108 356 106 153 88 243 l 213 939 b 268 986 218 974 233 986 l 347 986 b 386 939 382 986 393 974 "},"ū":{"ha":767,"x_min":0,"x_max":0,"o":"m 663 965 b 696 925 694 965 701 957 l 690 890 b 643 850 685 858 675 850 l 321 850 b 288 890 289 850 283 858 l 293 925 b 342 965 300 957 313 965 m 725 719 b 760 678 757 719 765 710 l 660 106 b 592 28 650 61 638 46 b 311 -21 504 -4 411 -21 b 72 269 118 -21 40 88 l 143 678 b 194 719 149 710 161 719 l 269 719 b 304 678 301 719 310 710 l 232 264 b 358 126 215 172 257 126 b 489 143 407 126 451 132 b 508 167 500 147 507 154 l 599 678 b 649 719 604 710 617 719 "},"Ŭ":{"ha":956,"x_min":0,"x_max":0,"o":"m 863 1199 b 622 1056 814 1108 728 1056 b 433 1199 517 1056 449 1108 b 458 1238 429 1217 438 1231 l 518 1258 b 557 1244 542 1265 553 1263 b 642 1172 564 1196 593 1172 b 751 1244 690 1172 728 1196 b 792 1260 761 1261 775 1267 l 850 1238 b 863 1199 868 1229 872 1217 m 281 338 b 460 142 258 211 319 142 b 708 338 600 142 686 211 l 814 939 b 869 986 821 974 835 986 l 949 986 b 989 939 983 986 994 974 l 879 322 b 435 -21 840 100 689 -21 b 163 83 310 -21 219 14 b 108 356 106 153 88 243 l 213 939 b 268 986 218 974 233 986 l 347 986 b 386 939 382 986 393 974 "},"ŭ":{"ha":767,"x_min":0,"x_max":0,"o":"m 717 953 b 482 811 668 858 589 811 b 288 953 376 811 300 864 b 314 993 283 975 290 986 l 367 1011 b 407 997 389 1018 403 1014 b 496 926 414 950 444 926 b 607 1000 544 926 581 951 b 646 1015 617 1015 629 1019 l 706 993 b 717 953 722 983 726 971 m 725 719 b 760 678 757 719 765 710 l 660 106 b 592 28 650 61 638 46 b 311 -21 504 -4 411 -21 b 72 269 118 -21 40 88 l 143 678 b 194 719 149 710 161 719 l 269 719 b 304 678 301 719 310 710 l 232 264 b 358 126 215 172 257 126 b 489 143 407 126 451 132 b 508 167 500 147 507 154 l 599 678 b 649 719 604 710 617 719 "},"Ů":{"ha":956,"x_min":0,"x_max":0,"o":"m 500 1178 b 678 1326 513 1265 588 1326 b 800 1178 765 1326 815 1265 b 626 1032 788 1093 714 1032 b 500 1178 536 1032 485 1090 m 719 1178 b 665 1247 726 1218 704 1247 b 581 1178 622 1247 588 1218 b 640 1110 574 1138 597 1110 b 719 1178 681 1110 714 1138 m 281 338 b 460 142 258 211 319 142 b 708 338 600 142 686 211 l 814 939 b 869 986 821 974 835 986 l 949 986 b 989 939 983 986 994 974 l 879 322 b 435 -21 840 100 689 -21 b 163 83 310 -21 219 14 b 108 356 106 153 88 243 l 213 939 b 268 986 218 974 233 986 l 347 986 b 386 939 382 986 393 974 "},"ů":{"ha":767,"x_min":0,"x_max":0,"o":"m 368 796 b 343 901 344 822 336 858 b 404 1008 350 944 371 981 b 522 1049 438 1035 476 1049 b 644 900 610 1049 660 988 b 471 754 629 813 558 754 b 368 796 425 754 392 768 m 564 900 b 508 969 571 940 549 969 b 424 900 465 969 433 943 b 483 833 418 861 440 833 b 564 900 524 833 558 861 m 725 719 b 760 678 757 719 765 710 l 660 106 b 592 28 650 61 638 46 b 311 -21 504 -4 411 -21 b 72 269 118 -21 40 88 l 143 678 b 194 719 149 710 161 719 l 269 719 b 304 678 301 719 310 710 l 232 264 b 358 126 215 172 257 126 b 489 143 407 126 451 132 b 508 167 500 147 507 154 l 599 678 b 649 719 604 710 617 719 "},"Ű":{"ha":956,"x_min":0,"x_max":0,"o":"m 546 1240 b 622 1268 569 1267 596 1276 l 668 1251 b 672 1204 696 1242 697 1226 l 508 1076 b 456 1058 486 1058 468 1053 l 433 1067 b 426 1108 411 1074 408 1088 m 781 1240 b 858 1268 806 1267 832 1276 l 907 1251 b 911 1204 939 1242 940 1225 l 733 1071 b 681 1053 711 1054 693 1049 l 658 1060 b 651 1103 633 1068 631 1082 m 281 338 b 460 142 258 211 319 142 b 708 338 600 142 686 211 l 814 939 b 869 986 821 974 835 986 l 949 986 b 989 939 983 986 994 974 l 879 322 b 435 -21 840 100 689 -21 b 163 83 310 -21 219 14 b 108 356 106 153 88 243 l 213 939 b 268 986 218 974 233 986 l 347 986 b 386 939 382 986 393 974 "},"ű":{"ha":767,"x_min":0,"x_max":0,"o":"m 399 986 b 475 1014 422 1013 447 1022 l 521 999 b 525 950 547 989 549 972 l 361 822 b 308 806 338 806 321 800 l 285 813 b 279 856 264 819 261 835 m 635 986 b 711 1014 658 1013 685 1022 l 760 997 b 765 950 790 988 792 971 l 586 818 b 533 800 564 800 546 793 l 511 807 b 504 850 488 814 485 829 m 725 719 b 760 678 757 719 765 710 l 660 106 b 592 28 650 61 638 46 b 311 -21 504 -4 411 -21 b 72 269 118 -21 40 88 l 143 678 b 194 719 149 710 161 719 l 269 719 b 304 678 301 719 310 710 l 232 264 b 358 126 215 172 257 126 b 489 143 407 126 451 132 b 508 167 500 147 507 154 l 599 678 b 649 719 604 710 617 719 "},"Ų":{"ha":956,"x_min":0,"x_max":0,"o":"m 949 986 b 989 939 983 986 994 974 l 879 322 b 708 47 858 207 801 115 b 535 -190 582 -46 529 -144 b 564 -222 536 -211 546 -222 b 604 -208 579 -222 592 -218 b 629 -215 619 -200 628 -203 l 643 -271 b 635 -300 647 -283 644 -293 b 494 -340 603 -326 557 -340 b 385 -242 432 -340 386 -304 b 528 -12 382 -168 429 -92 b 435 -21 499 -18 467 -21 b 163 83 310 -21 219 14 b 108 356 106 153 88 243 l 213 939 b 268 986 218 974 233 986 l 347 986 b 386 939 382 986 393 974 l 281 338 b 460 142 258 211 319 142 b 708 338 600 142 686 211 l 814 939 b 869 986 821 974 835 986 "},"ų":{"ha":767,"x_min":0,"x_max":0,"o":"m 726 719 b 761 678 758 719 767 710 l 661 106 b 636 51 657 82 649 64 b 486 -194 538 -49 482 -156 b 517 -222 489 -212 499 -222 b 557 -208 532 -222 544 -218 b 582 -217 571 -200 579 -203 l 593 -261 b 586 -290 597 -274 594 -283 b 446 -340 546 -324 500 -340 b 336 -257 374 -340 338 -312 b 486 -3 335 -189 393 -86 b 313 -21 435 -15 378 -21 b 74 272 119 -21 40 90 l 144 678 b 196 719 150 710 163 719 l 271 719 b 306 678 303 719 311 710 l 233 264 b 360 126 217 172 258 126 b 490 143 408 126 453 132 b 510 167 501 147 508 154 l 600 678 b 650 719 606 710 618 719 "},"Ŵ":{"ha":1247,"x_min":0,"x_max":0,"o":"m 796 1263 b 865 1225 829 1263 839 1260 l 983 1089 b 957 1054 999 1065 990 1054 l 900 1054 b 835 1079 868 1054 846 1063 l 769 1158 l 671 1079 b 601 1054 647 1057 639 1054 l 539 1054 b 525 1089 504 1054 503 1071 l 689 1225 b 779 1263 729 1260 739 1263 m 1290 986 b 1313 940 1324 986 1328 972 l 932 39 b 865 0 917 7 900 0 l 783 0 b 732 38 750 0 733 13 l 683 589 b 689 746 679 640 682 693 l 679 746 b 629 590 669 700 653 647 l 385 39 b 318 0 369 7 353 0 l 240 0 b 189 38 206 0 190 8 l 121 940 b 160 986 117 974 126 986 l 253 986 b 310 944 296 986 308 978 l 335 426 b 325 240 336 375 333 313 l 333 240 b 393 426 344 299 364 361 l 625 940 b 694 982 638 968 660 982 l 765 982 b 821 940 803 982 819 974 l 867 426 b 864 240 872 369 871 308 l 872 240 b 928 425 879 282 899 343 l 1132 944 b 1201 986 1143 978 1161 986 "},"ŵ":{"ha":1017,"x_min":0,"x_max":0,"o":"m 378 810 b 363 844 344 810 340 826 l 529 981 b 617 1017 567 1014 574 1017 l 633 1017 b 704 981 668 1017 676 1014 l 821 844 b 794 810 838 826 829 810 l 740 810 b 676 833 708 810 688 818 l 610 914 l 514 833 b 444 810 488 811 479 810 m 1010 719 b 1036 669 1050 719 1054 710 l 744 38 b 679 -1 735 11 713 -1 l 626 -1 b 574 38 592 -1 575 8 l 535 393 b 533 536 529 453 533 539 l 529 536 b 476 393 529 538 501 453 l 313 38 b 247 -1 300 11 279 -1 l 201 -1 b 150 38 168 -1 151 8 l 76 669 b 121 719 71 710 81 719 l 171 719 b 240 676 225 719 240 711 l 264 365 b 258 196 267 313 258 194 l 264 196 l 274 226 b 324 367 285 267 306 328 l 469 671 b 549 715 488 710 499 715 l 578 715 b 640 672 628 715 636 710 l 679 367 b 681 196 688 306 681 193 l 686 196 b 740 367 686 196 711 294 l 872 676 b 957 719 888 711 906 719 "},"Ŷ":{"ha":889,"x_min":0,"x_max":0,"o":"m 619 1263 b 689 1225 653 1263 663 1260 l 807 1089 b 781 1054 822 1065 814 1054 l 724 1054 b 658 1079 692 1054 669 1063 l 593 1158 l 494 1079 b 425 1054 471 1057 463 1054 l 363 1054 b 349 1089 328 1054 326 1071 l 513 1225 b 603 1263 553 1260 560 1263 m 956 986 b 971 939 988 986 992 965 l 535 389 l 475 47 b 419 0 468 13 454 0 l 339 0 b 300 47 304 0 294 13 l 361 392 l 118 939 b 151 986 107 967 118 986 l 244 986 b 329 944 304 986 314 983 l 481 569 l 764 944 b 864 986 792 983 804 986 "},"ŷ":{"ha":769,"x_min":0,"x_max":0,"o":"m 265 810 b 251 844 232 810 229 826 l 417 981 b 506 1017 456 1014 463 1017 l 522 1017 b 593 981 557 1017 565 1014 l 710 844 b 683 810 726 826 717 810 l 628 810 b 564 833 596 810 575 818 l 499 914 l 401 833 b 332 810 378 811 369 810 m 722 719 b 757 678 754 719 763 710 l 633 -24 b 275 -326 599 -225 479 -326 b 15 -190 140 -326 54 -281 b 43 -121 0 -161 10 -137 l 97 -94 b 164 -111 135 -78 149 -82 b 297 -182 185 -158 229 -182 b 471 -32 394 -182 453 -132 l 482 33 b 314 14 422 21 367 14 b 76 306 121 14 44 124 l 140 678 b 192 719 147 710 160 719 l 268 719 b 301 678 300 719 308 710 l 235 299 b 363 161 219 207 263 161 b 508 181 410 161 458 168 l 596 678 b 646 719 601 710 614 719 "},"Ÿ":{"ha":889,"x_min":0,"x_max":0,"o":"m 467 1233 b 528 1161 522 1233 538 1215 l 525 1147 b 439 1075 515 1093 494 1075 l 429 1075 b 369 1147 374 1075 360 1093 l 372 1161 b 457 1233 382 1215 401 1233 m 744 1233 b 804 1161 800 1233 814 1215 l 803 1147 b 717 1075 793 1093 772 1075 l 707 1075 b 647 1147 651 1075 638 1093 l 650 1161 b 735 1233 660 1215 679 1233 m 956 986 b 971 939 988 986 992 965 l 535 389 l 475 47 b 419 0 468 13 454 0 l 339 0 b 300 47 304 0 294 13 l 361 392 l 118 939 b 151 986 107 967 118 986 l 244 986 b 329 944 304 986 314 983 l 481 569 l 764 944 b 864 986 792 983 804 986 "},"Ź":{"ha":813,"x_min":0,"x_max":0,"o":"m 615 1256 b 693 1253 653 1275 678 1274 l 721 1208 b 706 1161 738 1185 735 1172 l 447 1060 b 393 1061 418 1050 400 1050 l 379 1088 b 389 1132 365 1108 368 1122 m 817 986 b 856 939 854 986 863 974 l 844 872 b 821 822 840 851 833 835 l 221 163 l 681 163 b 719 115 718 163 726 150 l 708 47 b 653 0 701 13 688 0 l 25 0 b -14 47 -10 0 -21 13 l -3 115 b 22 164 1 133 10 150 l 621 824 l 176 824 b 138 871 142 824 132 836 l 150 939 b 206 986 157 974 171 986 "},"ź":{"ha":650,"x_min":0,"x_max":0,"o":"m 482 1011 b 561 1010 521 1032 547 1031 l 589 965 b 574 918 604 942 606 926 l 315 817 b 261 818 286 806 268 806 l 247 844 b 257 889 233 865 236 879 m 526 146 b 561 103 558 146 567 135 l 551 43 b 500 0 544 11 532 0 l 14 0 b -19 43 -18 0 -26 11 l -10 103 b 13 146 -6 121 1 136 l 428 574 l 122 574 b 88 617 90 574 82 585 l 97 678 b 149 719 104 710 117 719 l 621 719 b 656 678 653 719 661 710 l 646 617 b 621 571 642 599 633 583 l 203 146 "},"Ż":{"ha":813,"x_min":0,"x_max":0,"o":"m 567 1233 b 629 1158 624 1233 639 1215 l 628 1147 b 539 1074 618 1090 599 1074 l 532 1074 b 469 1147 475 1074 460 1090 l 472 1158 b 560 1233 482 1215 503 1233 m 817 986 b 856 939 854 986 863 974 l 844 872 b 821 822 840 851 833 835 l 221 163 l 681 163 b 719 115 718 163 726 150 l 708 47 b 653 0 701 13 688 0 l 25 0 b -14 47 -10 0 -21 13 l -3 115 b 22 164 1 133 10 150 l 621 824 l 176 824 b 138 871 142 824 132 836 l 150 939 b 206 986 157 974 171 986 "},"ż":{"ha":650,"x_min":0,"x_max":0,"o":"m 435 988 b 497 913 492 988 507 969 l 494 903 b 407 828 488 846 467 828 l 399 828 b 338 903 342 828 328 846 l 340 913 b 426 988 350 969 369 988 m 526 146 b 561 103 558 146 567 135 l 551 43 b 500 0 544 11 532 0 l 14 0 b -19 43 -18 0 -26 11 l -10 103 b 13 146 -6 121 1 136 l 428 574 l 122 574 b 88 617 90 574 82 585 l 97 678 b 149 719 104 710 117 719 l 621 719 b 656 678 653 719 661 710 l 646 617 b 621 571 642 599 633 583 l 203 146 "},"Ž":{"ha":813,"x_min":0,"x_max":0,"o":"m 775 1260 b 788 1225 810 1260 810 1244 l 624 1090 b 540 1053 585 1057 575 1053 l 522 1053 b 447 1090 482 1053 475 1056 l 331 1225 b 357 1260 314 1243 324 1260 l 415 1260 b 476 1236 453 1260 460 1258 l 546 1157 l 639 1236 b 713 1260 656 1251 681 1260 m 817 986 b 856 939 854 986 863 974 l 844 872 b 821 822 840 851 833 835 l 221 163 l 681 163 b 719 115 718 163 726 150 l 708 47 b 653 0 701 13 688 0 l 25 0 b -14 47 -10 0 -21 13 l -3 115 b 22 164 1 133 10 150 l 621 824 l 176 824 b 138 871 142 824 132 836 l 150 939 b 206 986 157 974 171 986 "},"ž":{"ha":650,"x_min":0,"x_max":0,"o":"m 199 981 b 225 1015 182 999 192 1015 l 281 1015 b 342 992 318 1015 325 1014 l 411 911 l 504 992 b 578 1015 522 1007 547 1015 l 642 1015 b 657 981 675 1015 681 1004 l 492 844 b 408 807 453 810 442 807 l 392 807 b 315 844 351 807 343 811 m 621 719 b 656 678 653 719 661 710 l 646 617 b 621 571 642 599 633 583 l 203 146 l 526 146 b 561 103 558 146 567 135 l 551 43 b 500 0 544 11 532 0 l 14 0 b -19 43 -18 0 -26 11 l -10 103 b 13 146 -6 121 1 136 l 428 574 l 122 574 b 88 617 90 574 82 585 l 97 678 b 149 719 104 710 117 719 "},"ſ":{"ha":406,"x_min":0,"x_max":0,"o":"m 196 735 b 567 1028 231 931 354 1028 b 601 983 600 1028 608 1017 l 592 922 b 539 878 585 889 572 878 b 356 721 426 878 374 828 l 236 43 b 183 0 229 11 217 0 l 110 0 b 75 43 76 0 68 11 l 168 571 l 89 571 b 53 614 57 571 47 582 l 64 678 b 114 719 69 710 82 719 l 193 719 "},"ƒ":{"ha":608,"x_min":0,"x_max":0,"o":"m 276 725 b 624 1028 315 924 414 1028 b 664 983 657 1028 665 1017 l 658 922 b 610 878 657 889 643 878 b 438 721 503 878 458 825 l 408 571 l 551 571 b 590 528 583 571 594 560 l 585 464 b 539 421 581 432 571 421 l 379 421 l 299 -3 b -50 -306 260 -201 160 -306 b -89 -261 -82 -306 -90 -294 l -83 -200 b -36 -156 -79 -167 -69 -156 b 138 3 71 -156 117 -103 l 218 421 l 82 421 b 43 464 50 421 39 432 l 49 528 b 96 571 50 560 64 571 l 246 571 "},"Ǻ":{"ha":911,"x_min":0,"x_max":0,"o":"m 699 1338 b 774 1336 735 1353 760 1351 l 800 1301 b 788 1267 817 1283 814 1274 l 547 1193 b 499 1194 521 1185 506 1185 l 483 1214 b 503 1253 471 1229 478 1242 m 432 1032 b 618 1175 449 1119 525 1175 b 753 1022 711 1175 768 1117 b 674 919 744 979 718 944 l 858 46 b 819 0 865 15 851 0 l 754 0 b 675 42 694 0 679 8 l 642 224 l 261 224 l 161 42 b 68 0 144 8 128 0 l -1 0 b -25 46 -35 0 -43 15 l 472 919 b 432 1032 440 942 425 988 m 660 1028 b 604 1094 667 1068 643 1094 b 522 1028 561 1094 528 1067 b 581 964 515 990 540 964 b 660 1028 619 964 653 990 m 571 631 b 563 825 557 714 563 826 l 551 825 b 476 632 551 825 519 718 l 335 365 l 618 365 "},"ǻ":{"ha":747,"x_min":0,"x_max":0,"o":"m 554 1251 b 628 1250 590 1265 615 1265 l 654 1217 b 640 1182 669 1199 664 1188 l 399 1106 b 347 1108 371 1099 354 1100 l 333 1126 b 344 1161 322 1142 326 1153 m 375 828 b 350 933 351 854 343 890 b 411 1040 357 976 378 1013 b 529 1081 444 1067 483 1081 b 651 932 617 1081 667 1019 b 478 786 636 844 565 786 b 375 828 432 786 399 800 m 571 933 b 515 1001 578 974 556 1001 b 431 933 472 1001 438 974 b 490 865 425 893 447 865 b 571 933 531 865 565 893 m 90 468 b 450 740 122 657 235 740 b 694 697 556 740 638 726 b 732 621 735 676 739 665 l 633 65 b 582 13 628 33 617 22 b 301 -21 490 -10 397 -21 b 56 279 108 -21 22 97 m 549 578 b 436 593 515 588 478 593 b 246 447 324 593 264 551 l 214 267 b 340 126 199 174 240 126 b 486 144 386 126 435 132 l 560 560 b 549 578 563 568 558 574 "},"Ǽ":{"ha":1192,"x_min":0,"x_max":0,"o":"m 1079 1256 b 1158 1253 1117 1275 1143 1274 l 1185 1208 b 1171 1161 1203 1185 1200 1172 l 911 1060 b 858 1061 882 1050 865 1050 l 843 1088 b 853 1132 831 1108 833 1122 m 1085 163 b 1124 115 1119 163 1131 150 l 1111 47 b 1056 0 1106 13 1090 0 l 592 0 b 553 47 557 0 546 13 l 581 207 l 289 207 l 160 42 b 65 0 136 8 121 0 l -14 0 b -36 46 -47 0 -54 15 l 678 947 b 742 986 701 979 713 986 l 1214 986 b 1253 939 1249 986 1260 974 l 1242 871 b 1186 824 1238 839 1218 824 l 853 824 l 811 581 l 1076 581 b 1117 533 1111 581 1122 568 l 1104 465 b 1047 418 1097 431 1082 418 l 781 418 l 736 163 m 668 706 l 400 350 l 606 350 "},"ǽ":{"ha":1082,"x_min":0,"x_max":0,"o":"m 717 1011 b 796 1010 754 1032 781 1031 l 822 965 b 808 918 838 942 833 926 l 549 817 b 494 818 521 806 503 806 l 481 844 b 492 889 467 864 471 879 m 599 646 b 825 740 653 708 729 740 b 1074 492 1008 740 1103 647 b 753 289 1050 358 936 289 b 600 306 718 289 667 294 l 592 257 b 710 118 575 167 617 118 b 869 192 778 118 832 143 b 936 208 893 221 908 226 l 979 179 b 981 108 1003 161 1004 138 b 685 -21 918 22 819 -21 b 510 33 608 -21 550 -3 b 276 -21 444 -3 367 -21 b 28 215 75 -21 0 64 b 360 428 54 360 156 428 b 475 421 394 428 461 421 l 481 457 b 482 547 488 496 489 514 b 383 597 475 581 440 597 b 244 532 326 597 279 575 b 182 513 218 503 211 500 l 131 536 b 117 597 101 549 97 568 b 413 740 185 693 283 740 b 599 646 517 740 565 707 m 917 500 b 801 604 929 567 890 604 b 628 463 708 604 640 553 l 621 428 b 775 413 675 418 726 413 b 917 500 858 413 906 442 m 451 293 b 319 299 378 297 333 299 b 188 204 243 299 199 267 b 283 113 175 139 204 113 b 442 144 328 113 381 124 b 444 250 438 174 439 210 "},"Ǿ":{"ha":932,"x_min":0,"x_max":0,"o":"m 676 1269 b 756 1267 714 1289 740 1288 l 783 1222 b 768 1175 800 1199 797 1186 l 510 1074 b 456 1075 481 1064 463 1064 l 440 1101 b 450 1146 428 1122 431 1136 m 994 1046 b 1000 1031 1004 1046 1006 1040 l 875 878 b 913 632 918 813 931 731 l 860 328 b 407 -21 821 104 661 -21 b 188 33 314 -21 242 -3 l 126 -40 b 93 -54 119 -50 108 -54 l 3 -54 b -1 -39 -8 -54 -10 -49 l 113 103 b 69 351 67 167 53 250 l 124 656 b 578 1007 163 879 324 1007 b 803 947 671 1007 746 988 l 871 1032 b 901 1046 879 1042 889 1046 m 690 810 b 554 844 657 833 611 844 b 297 646 411 844 319 774 l 243 340 b 247 267 238 311 239 288 m 743 646 b 740 711 747 669 746 692 l 300 174 b 431 142 332 153 376 142 b 688 340 574 142 665 211 "},"ǿ":{"ha":754,"x_min":0,"x_max":0,"o":"m 546 1011 b 624 1010 583 1032 608 1031 l 651 965 b 636 918 667 942 668 926 l 378 817 b 324 818 349 806 331 806 l 310 844 b 319 889 296 865 299 879 m 747 767 b 753 751 758 767 760 761 l 674 656 b 717 454 717 607 732 539 l 681 249 b 315 -21 649 75 522 -21 b 154 11 250 -21 197 -10 l 115 -35 b 83 -49 107 -44 96 -49 l 21 -49 b 17 -33 10 -49 8 -43 l 89 56 b 42 261 43 108 26 176 l 78 467 b 444 740 110 640 239 740 b 614 704 514 740 571 728 l 654 753 b 683 767 661 763 671 767 m 510 576 b 421 594 489 589 458 594 b 239 463 319 594 254 547 l 203 257 b 207 203 199 238 200 219 m 257 140 b 338 125 279 131 306 125 b 521 257 439 125 506 174 l 556 457 b 551 503 558 474 557 489 "},"Ș":{"ha":871,"x_min":0,"x_max":0,"o":"m 117 728 b 542 1007 150 907 293 1007 b 864 792 726 1007 819 929 b 829 733 875 760 867 749 l 751 700 b 694 724 718 688 706 692 b 515 840 668 800 619 840 b 292 714 381 840 307 799 b 349 615 285 665 303 633 b 508 581 394 597 435 588 b 807 264 740 554 839 449 b 369 -21 772 74 626 -21 b 18 211 168 -21 50 57 b 58 272 13 246 24 261 l 139 300 b 193 271 174 311 183 304 b 388 142 214 185 279 142 b 633 286 533 142 615 190 b 436 415 649 371 575 400 b 242 464 360 422 307 433 b 163 518 208 479 182 497 b 117 728 124 561 100 635 m 343 -319 b 286 -358 328 -349 314 -358 l 235 -358 b 213 -329 211 -358 206 -351 l 276 -132 b 335 -86 286 -97 300 -86 l 407 -86 b 440 -132 446 -86 457 -101 "},"ș":{"ha":697,"x_min":0,"x_max":0,"o":"m 79 526 b 403 740 103 661 214 740 b 671 592 549 740 638 690 b 640 529 681 563 669 542 l 579 506 b 524 526 546 493 539 497 b 382 596 504 572 457 596 b 238 521 296 596 247 571 b 385 435 226 460 267 446 b 626 200 561 417 654 356 b 289 -21 603 61 483 -21 b 7 147 125 -21 31 35 b 46 206 1 175 14 194 l 113 225 b 164 199 144 235 151 231 b 308 122 181 147 229 122 b 469 204 406 122 460 150 b 318 293 481 265 440 281 b 139 347 240 300 192 314 b 79 526 86 379 64 442 m 292 -283 b 232 -324 275 -315 264 -324 l 190 -324 b 165 -290 163 -324 158 -314 l 218 -125 b 283 -75 229 -86 244 -75 l 343 -75 b 371 -125 379 -75 389 -92 "},"Ț":{"ha":782,"x_min":0,"x_max":0,"o":"m 821 986 b 860 939 856 986 867 974 l 847 871 b 792 824 842 836 826 824 l 553 824 l 415 47 b 360 0 410 13 394 0 l 281 0 b 242 47 246 0 236 13 l 379 824 l 139 824 b 100 871 104 824 94 836 l 113 939 b 168 986 119 974 133 986 m 292 -317 b 236 -357 279 -343 260 -357 l 183 -357 b 163 -326 160 -357 153 -350 l 225 -129 b 283 -85 235 -94 249 -85 l 357 -85 b 390 -129 394 -85 406 -100 "},"ț":{"ha":535,"x_min":0,"x_max":0,"o":"m 353 886 b 388 844 385 886 393 876 l 365 719 l 525 719 b 558 678 557 719 565 710 l 549 614 b 499 571 544 585 528 571 l 340 571 l 290 292 b 301 163 279 226 283 183 b 419 132 319 142 358 132 b 456 89 453 132 461 122 l 444 25 b 393 -19 438 -8 426 -18 b 157 42 275 -24 197 -3 b 129 286 117 86 107 168 l 179 571 l 83 571 b 47 614 51 571 42 582 l 58 678 b 110 719 64 710 76 719 l 204 719 l 226 844 b 276 886 232 876 244 886 m 221 -317 b 164 -357 207 -343 188 -357 l 113 -357 b 90 -326 89 -357 83 -350 l 154 -129 b 213 -85 164 -94 178 -85 l 285 -85 b 318 -129 324 -85 335 -100 "},"ȷ":{"ha":324,"x_min":0,"x_max":0,"o":"m 256 719 b 292 678 289 719 297 710 l 171 -10 b -200 -319 133 -217 10 -319 b -237 -275 -233 -319 -243 -308 l -226 -214 b -174 -169 -221 -181 -207 -169 b 11 -6 -61 -169 -7 -112 l 131 678 b 183 719 136 710 150 719 "},"ˆ":{"ha":547,"x_min":0,"x_max":0,"o":"m 400 1019 b 471 982 435 1019 443 1017 l 588 846 b 561 811 604 829 594 811 l 507 811 b 443 836 475 811 453 819 l 376 915 l 281 836 b 210 811 254 814 247 811 l 144 811 b 129 846 111 811 107 829 l 294 982 b 383 1019 333 1017 343 1019 "},"ˇ":{"ha":461,"x_min":0,"x_max":0,"o":"m 558 1017 b 572 982 592 1017 594 1000 l 407 847 b 325 810 368 813 358 810 l 308 810 b 231 847 265 810 258 813 l 114 982 b 140 1017 99 1000 107 1017 l 196 1017 b 257 993 233 1017 240 1015 l 326 914 l 421 993 b 493 1017 438 1008 461 1017 "},"˘":{"ha":399,"x_min":0,"x_max":0,"o":"m 518 956 b 283 813 468 860 390 813 b 89 956 178 813 101 867 b 115 994 85 974 94 988 l 168 1014 b 210 999 194 1021 203 1019 b 297 929 215 953 244 929 b 408 1001 346 929 382 953 b 447 1018 418 1018 431 1024 l 507 994 b 518 956 524 986 528 974 "},"˙":{"ha":300,"x_min":0,"x_max":0,"o":"m 271 989 b 333 915 328 989 343 972 l 332 904 b 243 829 322 847 300 829 l 236 829 b 174 904 179 829 164 847 l 176 915 b 264 989 186 972 207 989 "},"˚":{"ha":333,"x_min":0,"x_max":0,"o":"m 126 919 b 306 1068 142 1007 215 1068 b 428 918 393 1068 443 1006 b 254 774 413 833 342 774 b 126 919 164 774 111 835 m 319 871 b 292 988 367 910 356 994 b 207 919 249 988 214 960 b 267 851 200 879 224 851 b 319 871 288 851 304 858 "},"˛":{"ha":350,"x_min":0,"x_max":0,"o":"m 211 0 b 88 -190 125 -87 83 -150 b 118 -222 90 -211 100 -222 b 158 -208 133 -222 146 -218 b 183 -215 172 -200 181 -203 l 197 -271 b 189 -300 200 -283 197 -293 b 47 -340 157 -326 110 -340 b -61 -242 -14 -340 -60 -303 b 107 0 -64 -165 -8 -85 "},"˜":{"ha":424,"x_min":0,"x_max":0,"o":"m 518 1007 b 540 981 536 1007 544 999 b 397 826 522 869 479 826 b 231 906 321 826 278 906 b 189 853 208 906 194 888 b 158 826 185 835 175 826 l 113 826 b 92 853 94 826 88 835 b 233 1007 110 964 156 1007 b 332 968 268 1007 300 994 b 403 928 363 942 386 928 b 444 981 424 928 438 946 b 474 1007 447 999 457 1007 "},"˝":{"ha":549,"x_min":0,"x_max":0,"o":"m 308 988 b 386 1017 332 1015 358 1025 l 431 1000 b 436 953 458 990 460 974 l 272 825 b 218 807 249 808 231 803 l 196 814 b 190 857 174 822 172 836 m 544 988 b 622 1017 568 1015 593 1025 l 669 1000 b 675 953 701 988 703 972 l 496 819 b 443 801 474 801 456 796 l 421 810 b 414 853 397 817 394 832 "},"̦":{"ha":0,"x_min":0,"x_max":0,"o":"m 97 -317 b 42 -357 85 -343 65 -357 l -11 -357 b -33 -326 -35 -357 -40 -350 l 31 -129 b 89 -85 40 -94 54 -85 l 163 -85 b 196 -129 200 -85 211 -100 "},"π":{"ha":888,"x_min":0,"x_max":0,"o":"m 871 719 b 906 678 903 719 911 710 l 894 615 b 846 572 890 583 878 572 l 803 572 l 739 208 b 742 89 731 164 732 124 b 707 26 750 58 739 38 l 640 1 b 585 24 606 -14 592 -8 b 578 215 568 79 565 143 l 642 572 l 371 572 l 278 43 b 226 0 274 14 256 0 l 151 0 b 117 43 119 0 111 11 l 210 572 b 118 547 185 571 154 563 b 65 565 89 535 71 540 l 51 626 b 82 682 42 654 50 669 b 289 719 140 707 210 719 "},"Ё":{"ha":804,"x_min":0,"x_max":0,"o":"m 446 1224 b 506 1151 501 1224 515 1206 l 503 1138 b 418 1065 493 1082 474 1065 l 408 1065 b 349 1138 353 1065 338 1083 l 350 1151 b 436 1224 360 1206 381 1224 m 724 1224 b 783 1151 779 1224 793 1206 l 781 1138 b 696 1065 771 1082 751 1065 l 686 1065 b 625 1138 631 1065 615 1083 l 628 1151 b 714 1224 638 1206 658 1224 m 801 986 b 842 939 839 986 849 974 l 829 871 b 774 824 824 836 808 824 l 347 824 l 306 581 l 665 581 b 704 533 700 581 710 568 l 692 465 b 635 418 685 431 669 418 l 275 418 l 231 163 l 672 163 b 711 115 707 163 718 150 l 699 47 b 643 0 693 13 678 0 l 75 0 b 36 47 40 0 31 13 l 193 939 b 249 986 200 974 214 986 "},"А":{"ha":911,"x_min":0,"x_max":0,"o":"m 858 46 b 819 0 865 15 851 0 l 754 0 b 675 42 694 0 679 8 l 642 221 l 258 221 l 161 42 b 68 0 144 8 128 0 l -1 0 b -25 46 -35 0 -43 15 l 482 949 b 546 988 499 981 513 988 l 619 988 b 672 950 653 988 667 979 m 564 657 b 560 822 549 733 560 807 l 561 826 l 553 826 b 492 658 556 829 533 739 l 333 364 l 618 364 "},"Б":{"ha":882,"x_min":0,"x_max":0,"o":"m 831 986 b 869 939 865 986 876 974 l 857 871 b 801 824 851 836 836 824 l 347 824 l 308 603 l 564 603 b 776 518 657 603 728 575 b 824 293 825 461 840 386 b 472 0 790 106 660 0 l 75 0 b 36 44 42 0 31 11 l 193 939 b 249 986 200 974 214 986 m 588 200 b 643 301 617 225 636 258 b 624 403 650 344 644 378 b 526 440 603 428 571 440 l 279 440 l 231 163 l 476 163 b 588 200 521 163 558 175 "},"В":{"ha":903,"x_min":0,"x_max":0,"o":"m 635 986 b 872 718 811 986 901 878 b 732 517 856 625 808 557 l 731 511 b 829 263 814 478 850 386 b 469 0 797 92 658 0 l 75 0 b 36 47 40 0 31 13 l 193 939 b 249 986 200 974 214 986 m 692 701 b 586 824 706 783 671 824 l 347 824 l 304 579 l 542 579 b 692 701 626 579 676 619 m 649 290 b 539 421 664 378 628 421 l 276 421 l 231 163 l 493 163 b 649 290 583 163 635 206 "},"Г":{"ha":726,"x_min":0,"x_max":0,"o":"m 760 986 b 799 939 794 986 806 974 l 788 871 b 732 824 781 836 767 824 l 347 824 l 211 47 b 156 0 204 13 190 0 l 75 0 b 36 47 40 0 31 13 l 193 939 b 249 986 200 974 214 986 "},"Д":{"ha":1029,"x_min":0,"x_max":0,"o":"m 939 986 b 978 939 974 986 985 974 l 840 163 l 914 163 b 953 115 949 163 960 150 l 903 -165 b 847 -212 897 -200 882 -212 l 772 -212 b 733 -165 738 -212 726 -200 l 761 0 l 128 0 l 99 -165 b 43 -212 92 -200 78 -212 l -33 -212 b -72 -165 -68 -212 -78 -200 l -24 115 b 33 163 -17 150 -1 163 l 65 163 b 183 306 108 189 147 236 b 279 651 218 375 250 490 l 329 939 b 385 986 336 974 350 986 m 478 824 l 447 653 b 268 163 406 419 346 256 l 667 163 l 783 824 "},"Е":{"ha":804,"x_min":0,"x_max":0,"o":"m 801 986 b 842 939 839 986 849 974 l 829 871 b 774 824 824 836 808 824 l 347 824 l 306 581 l 665 581 b 704 533 700 581 710 568 l 692 465 b 635 418 685 431 669 418 l 275 418 l 231 163 l 672 163 b 711 115 707 163 718 150 l 699 47 b 643 0 693 13 678 0 l 75 0 b 36 47 40 0 31 13 l 193 939 b 249 986 200 974 214 986 "},"Ж":{"ha":1306,"x_min":0,"x_max":0,"o":"m 1376 986 b 1392 940 1410 986 1414 964 l 1044 526 b 1135 386 1081 500 1111 453 l 1250 47 b 1218 0 1263 15 1251 0 l 1142 0 b 1057 42 1082 0 1068 7 l 968 324 b 813 421 944 400 908 421 l 776 421 l 710 47 b 654 0 704 13 689 0 l 575 0 b 536 47 540 0 529 13 l 601 421 l 565 421 b 460 401 518 421 483 414 b 385 324 436 389 411 363 l 193 42 b 92 0 169 7 151 0 l 11 0 b -4 47 -22 0 -28 15 l 232 386 b 374 526 279 454 326 500 l 169 940 b 200 986 157 964 168 986 l 283 986 b 367 947 339 986 350 982 l 540 578 b 593 579 553 579 569 579 l 629 579 l 693 939 b 749 986 700 974 714 986 l 828 986 b 867 939 863 986 874 974 l 803 579 l 839 579 b 886 578 860 579 876 579 l 1188 947 b 1288 986 1215 981 1231 986 "},"З":{"ha":878,"x_min":0,"x_max":0,"o":"m 853 708 b 707 514 835 618 786 554 b 807 268 796 463 829 381 b 397 -21 772 75 636 -21 b 18 213 171 -21 44 57 b 58 274 11 242 25 263 l 138 300 b 193 269 172 311 186 304 b 419 142 210 182 271 142 b 625 283 540 142 608 189 b 514 422 640 371 603 422 l 319 422 b 281 469 285 422 275 435 l 292 532 b 347 579 299 569 313 579 l 521 579 b 676 710 606 579 661 628 b 532 844 692 799 643 844 b 279 717 394 844 328 806 b 214 688 263 683 246 676 l 144 714 b 125 775 113 726 107 742 b 558 1007 207 931 338 1007 b 853 708 776 1007 885 890 "},"И":{"ha":975,"x_min":0,"x_max":0,"o":"m 933 986 b 972 939 968 986 979 974 l 815 47 b 760 0 811 15 792 0 l 681 0 b 642 47 646 0 635 13 l 714 454 b 749 617 726 525 738 579 b 803 772 758 654 776 706 l 797 772 b 718 646 768 721 742 679 b 611 508 694 611 658 565 l 208 24 b 157 0 196 8 179 0 l 75 0 b 36 47 40 0 31 13 l 193 939 b 249 986 200 974 214 986 l 329 986 b 368 939 364 986 375 974 l 297 536 b 207 214 279 435 250 328 l 213 214 b 406 489 264 303 328 394 l 801 964 b 851 986 814 979 831 986 "},"Й":{"ha":975,"x_min":0,"x_max":0,"o":"m 607 1056 b 418 1199 503 1056 433 1108 b 443 1238 415 1217 424 1231 l 503 1258 b 542 1244 526 1265 538 1263 b 626 1172 550 1196 578 1172 b 738 1244 676 1172 714 1196 b 776 1260 747 1261 760 1267 l 835 1238 b 849 1199 853 1229 857 1217 b 607 1056 800 1108 713 1056 m 933 986 b 972 939 968 986 979 974 l 815 47 b 760 0 811 15 792 0 l 681 0 b 642 47 646 0 635 13 l 714 454 b 749 617 726 525 738 579 b 803 772 758 654 776 706 l 797 772 b 718 646 768 721 742 679 b 611 508 694 611 658 565 l 208 24 b 157 0 196 8 179 0 l 75 0 b 36 47 40 0 31 13 l 193 939 b 249 986 200 974 214 986 l 329 986 b 368 939 364 986 375 974 l 297 536 b 207 214 279 435 250 328 l 213 214 b 406 489 264 303 328 394 l 801 964 b 851 986 814 979 831 986 "},"К":{"ha":871,"x_min":0,"x_max":0,"o":"m 786 47 b 753 0 796 15 785 0 l 674 0 b 588 42 614 0 599 7 l 497 324 b 349 421 471 400 443 421 l 276 421 l 211 47 b 156 0 204 13 190 0 l 75 0 b 36 47 40 0 31 13 l 193 939 b 249 986 200 974 214 986 l 329 986 b 368 939 364 986 375 974 l 304 579 l 360 579 l 379 579 l 722 947 b 824 986 751 981 768 986 l 913 986 b 928 940 944 986 950 964 l 542 540 b 669 386 607 513 642 465 "},"Л":{"ha":939,"x_min":0,"x_max":0,"o":"m 900 986 b 940 939 938 986 947 974 l 783 47 b 726 0 776 13 761 0 l 647 0 b 608 47 613 0 603 13 l 746 824 l 451 824 l 419 643 b 251 153 376 408 322 246 b 153 50 215 107 182 72 b 42 -12 122 28 85 7 b -18 10 7 -28 -11 -22 l -42 79 b -7 143 -51 111 -42 128 b 122 253 44 167 72 185 b 249 643 172 319 215 450 l 300 939 b 356 986 307 974 321 986 "},"М":{"ha":1129,"x_min":0,"x_max":0,"o":"m 1088 986 b 1126 939 1122 986 1133 974 l 969 47 b 914 0 964 13 949 0 l 843 0 b 804 47 808 0 797 13 l 879 471 b 961 747 893 551 921 643 l 951 747 b 792 493 906 661 853 576 l 614 253 b 553 219 596 231 576 219 l 517 219 b 469 253 489 219 479 225 l 374 494 b 310 747 344 565 324 649 l 300 747 b 282 469 303 646 297 554 l 207 47 b 151 0 201 13 186 0 l 75 0 b 36 47 40 0 31 13 l 193 939 b 249 986 200 974 214 986 l 308 986 b 369 950 347 986 358 979 l 567 433 l 947 949 b 1017 986 968 981 979 986 "},"Н":{"ha":956,"x_min":0,"x_max":0,"o":"m 914 986 b 954 939 951 986 961 974 l 796 47 b 740 0 790 13 775 0 l 661 0 b 622 47 626 0 617 13 l 688 418 l 275 418 l 211 47 b 156 0 204 13 190 0 l 75 0 b 36 47 40 0 31 13 l 193 939 b 249 986 200 974 214 986 l 329 986 b 368 939 364 986 375 974 l 306 581 l 717 581 l 779 939 b 835 986 786 974 800 986 "},"О":{"ha":931,"x_min":0,"x_max":0,"o":"m 140 656 b 594 1007 179 879 340 1007 b 929 632 846 1007 968 860 l 876 328 b 424 -21 838 104 678 -21 b 86 351 172 -21 47 124 m 760 646 b 571 844 781 775 714 844 b 314 646 428 844 336 774 l 260 340 b 447 142 236 213 304 142 b 704 340 590 142 682 211 "},"П":{"ha":949,"x_min":0,"x_max":0,"o":"m 907 986 b 946 939 942 986 953 974 l 789 47 b 733 0 783 13 768 0 l 654 0 b 615 47 619 0 608 13 l 751 824 l 347 824 l 211 47 b 156 0 204 13 190 0 l 75 0 b 36 47 40 0 31 13 l 193 939 b 249 986 200 974 214 986 "},"Р":{"ha":879,"x_min":0,"x_max":0,"o":"m 618 986 b 840 893 717 986 792 956 b 885 649 889 831 903 750 b 504 343 851 453 708 343 l 263 343 l 211 47 b 156 0 204 13 190 0 l 75 0 b 36 47 40 0 31 13 l 193 939 b 249 986 200 974 214 986 m 517 506 b 707 664 618 506 689 564 b 572 824 725 764 674 824 l 347 824 l 292 506 "},"С":{"ha":883,"x_min":0,"x_max":0,"o":"m 139 654 b 596 1007 179 878 342 1007 b 924 771 789 1007 897 928 b 886 711 929 736 921 722 l 817 688 b 761 717 779 675 768 682 b 571 844 744 801 681 844 b 314 647 426 844 335 775 l 260 340 b 447 142 236 213 303 142 b 682 271 557 142 636 185 b 749 300 703 306 717 313 l 824 271 b 842 210 856 260 860 244 b 422 -21 760 56 621 -21 b 86 350 171 -21 47 124 "},"Т":{"ha":782,"x_min":0,"x_max":0,"o":"m 821 986 b 860 939 856 986 867 974 l 847 871 b 792 824 842 836 826 824 l 553 824 l 415 47 b 360 0 410 13 394 0 l 281 0 b 242 47 246 0 236 13 l 379 824 l 139 824 b 100 871 104 824 94 836 l 113 939 b 168 986 119 974 133 986 "},"У":{"ha":850,"x_min":0,"x_max":0,"o":"m 922 986 b 938 939 951 986 957 971 l 365 42 b 281 0 344 7 331 0 l 185 0 b 168 47 153 0 147 15 l 332 289 l 110 939 b 143 986 100 971 111 986 l 224 986 b 306 944 285 986 289 988 l 456 479 l 749 944 b 779 981 760 965 769 976 b 835 986 788 985 806 986 "},"Ф":{"ha":1167,"x_min":0,"x_max":0,"o":"m 765 1021 b 804 974 800 1021 810 1008 l 792 903 l 865 903 b 1176 544 1106 903 1217 767 l 1157 438 b 722 90 1119 217 965 90 l 649 90 l 636 19 b 581 -28 629 -15 615 -28 l 501 -28 b 463 19 467 -28 456 -15 l 475 90 l 401 90 b 90 451 161 90 50 229 l 110 558 b 544 903 149 779 301 903 l 618 903 l 631 974 b 686 1021 636 1008 651 1021 m 517 746 b 285 557 383 746 306 683 l 263 436 b 429 247 242 310 297 247 l 501 247 l 589 746 m 1003 557 b 836 746 1025 683 969 746 l 764 746 l 676 247 l 749 247 b 982 436 882 247 960 310 "},"Х":{"ha":885,"x_min":0,"x_max":0,"o":"m 929 986 b 944 942 961 986 967 964 l 569 503 l 800 49 b 768 0 817 25 801 0 l 675 0 b 590 42 618 0 607 4 l 435 367 l 175 42 b 75 0 143 4 131 0 l -21 0 b -36 49 -54 0 -60 22 l 351 503 l 133 942 b 164 986 118 964 132 986 l 256 986 b 342 947 310 986 319 981 l 486 640 l 738 947 b 831 986 771 981 781 986 "},"Ц":{"ha":990,"x_min":0,"x_max":0,"o":"m 872 163 b 911 115 907 163 918 150 l 861 -165 b 806 -212 856 -200 840 -212 l 733 -212 b 694 -165 699 -212 689 -200 l 724 0 l 75 0 b 36 47 40 0 31 13 l 193 939 b 249 986 200 974 214 986 l 329 986 b 368 939 364 986 375 974 l 231 163 l 629 163 l 765 939 b 821 986 772 974 786 986 l 900 986 b 940 939 938 986 947 974 l 803 163 "},"Ч":{"ha":888,"x_min":0,"x_max":0,"o":"m 904 986 b 943 939 939 986 950 974 l 786 47 b 731 0 779 13 765 0 l 650 0 b 611 47 615 0 606 13 l 669 378 b 458 358 611 365 540 358 b 158 711 218 358 118 476 l 199 939 b 254 986 204 974 219 986 l 333 986 b 372 939 368 986 379 974 l 331 700 b 496 521 308 571 357 521 b 700 543 565 521 633 528 l 768 939 b 824 986 775 974 789 986 "},"Ш":{"ha":1290,"x_min":0,"x_max":0,"o":"m 1249 986 b 1288 939 1283 986 1294 974 l 1131 47 b 1075 0 1125 13 1110 0 l 75 0 b 36 47 40 0 31 13 l 193 939 b 249 986 200 974 214 986 l 329 986 b 368 939 364 986 375 974 l 231 163 l 517 163 l 654 939 b 710 986 661 974 675 986 l 789 986 b 828 939 824 986 835 974 l 690 163 l 976 163 l 1114 939 b 1169 986 1121 974 1135 986 "},"Щ":{"ha":1339,"x_min":0,"x_max":0,"o":"m 1221 163 b 1260 115 1256 163 1267 150 l 1211 -165 b 1154 -212 1204 -200 1189 -212 l 1082 -212 b 1043 -165 1047 -212 1038 -200 l 1072 0 l 75 0 b 36 47 40 0 31 13 l 193 939 b 249 986 200 974 214 986 l 329 986 b 368 939 364 986 375 974 l 231 163 l 517 163 l 654 939 b 710 986 661 974 675 986 l 789 986 b 828 939 824 986 835 974 l 690 163 l 976 163 l 1114 939 b 1169 986 1121 974 1135 986 l 1249 986 b 1288 939 1283 986 1294 974 l 1151 163 "},"Ъ":{"ha":1024,"x_min":0,"x_max":0,"o":"m 697 643 b 925 550 799 643 874 613 b 975 307 976 488 993 407 b 599 0 940 108 800 0 l 225 0 b 186 47 190 0 181 13 l 324 824 l 139 824 b 100 871 104 824 93 836 l 111 939 b 167 986 118 974 132 986 l 478 986 b 518 939 515 986 525 974 l 465 643 m 606 163 b 796 322 707 163 778 222 b 663 481 814 422 763 481 l 438 481 l 381 163 "},"Ы":{"ha":1260,"x_min":0,"x_max":0,"o":"m 825 311 b 446 0 790 113 650 0 l 75 0 b 36 47 40 0 31 13 l 193 939 b 249 986 200 974 214 986 l 329 986 b 368 939 364 986 375 974 l 315 643 l 551 643 b 825 311 753 643 860 513 m 1085 939 b 1140 986 1092 974 1106 986 l 1219 986 b 1258 939 1254 986 1265 974 l 1101 47 b 1046 0 1097 15 1078 0 l 967 0 b 928 47 932 0 921 13 m 646 322 b 513 481 664 422 614 481 l 288 481 l 231 163 l 456 163 b 646 322 557 163 629 222 "},"Ь":{"ha":875,"x_min":0,"x_max":0,"o":"m 825 311 b 446 0 790 113 650 0 l 75 0 b 36 47 40 0 31 13 l 193 939 b 249 986 200 974 214 986 l 329 986 b 368 939 364 986 375 974 l 315 643 l 551 643 b 825 311 753 643 860 513 m 646 322 b 513 481 664 422 614 481 l 288 481 l 231 163 l 456 163 b 646 322 557 163 629 222 "},"Э":{"ha":890,"x_min":0,"x_max":0,"o":"m 115 775 b 533 1007 197 929 336 1007 b 864 631 783 1007 903 858 l 811 326 b 361 -21 771 103 615 -21 b 15 213 158 -21 43 57 b 56 274 10 246 21 261 l 136 300 b 190 271 171 311 183 304 b 382 142 207 185 271 142 b 639 339 525 142 617 211 l 651 418 l 314 418 b 276 465 279 418 269 431 l 289 533 b 344 581 294 568 310 581 l 682 581 l 693 647 b 506 844 715 775 649 844 b 271 717 394 844 317 801 b 206 688 253 683 238 676 l 135 714 b 115 775 103 726 97 742 "},"Ю":{"ha":1306,"x_min":0,"x_max":0,"o":"m 508 654 b 958 1007 543 878 707 1007 b 1279 635 1203 1007 1318 863 l 1226 329 b 778 -21 1188 106 1028 -21 b 456 349 532 -21 417 121 l 467 418 l 275 418 l 211 47 b 156 0 204 13 190 0 l 75 0 b 36 47 40 0 31 13 l 193 939 b 249 986 200 974 214 986 l 329 986 b 368 939 364 986 375 974 l 306 581 l 497 581 m 1108 646 b 931 844 1129 775 1068 844 b 682 646 792 844 704 775 l 628 340 b 807 142 606 211 668 142 b 1053 340 944 142 1031 211 "},"Я":{"ha":904,"x_min":0,"x_max":0,"o":"m 142 694 b 506 986 175 885 310 986 l 890 986 b 929 939 925 986 936 974 l 772 47 b 717 0 768 15 749 0 l 638 0 b 599 47 603 0 592 13 l 657 375 l 549 375 b 367 278 453 375 413 356 l 219 42 b 117 0 197 7 178 0 l 38 0 b 21 47 6 0 0 15 l 215 340 b 272 410 239 375 257 397 b 142 694 167 450 118 554 m 494 824 b 322 681 397 824 340 776 b 443 538 306 590 350 538 l 685 538 l 735 824 "},"а":{"ha":747,"x_min":0,"x_max":0,"o":"m 90 468 b 450 740 122 657 235 740 b 694 697 556 740 638 726 b 732 621 735 676 739 665 l 633 65 b 582 13 628 33 617 22 b 301 -21 490 -10 397 -21 b 56 279 108 -21 22 97 m 549 578 b 436 593 515 588 478 593 b 246 447 324 593 264 551 l 214 267 b 340 126 199 174 240 126 b 486 144 386 126 435 132 l 560 560 b 549 578 563 568 558 574 "},"б":{"ha":769,"x_min":0,"x_max":0,"o":"m 628 1014 b 729 1029 669 1014 703 1019 b 783 1001 764 1046 778 1036 l 793 947 b 756 886 797 914 789 901 b 604 864 725 871 675 864 l 557 864 b 364 815 467 864 401 847 b 285 638 326 782 300 722 l 282 615 b 500 701 335 672 407 701 b 738 413 679 701 771 594 l 708 254 b 346 -21 674 71 553 -21 b 71 271 140 -21 39 93 l 128 603 b 269 918 154 749 201 854 b 583 1014 338 982 443 1014 m 576 418 b 443 556 590 510 546 556 b 263 432 343 556 275 504 l 232 263 b 364 125 215 174 260 125 b 549 263 469 125 531 171 "},"в":{"ha":751,"x_min":0,"x_max":0,"o":"m 197 704 b 435 740 261 728 340 740 b 699 519 628 740 722 654 b 575 381 688 454 646 408 b 679 204 651 353 692 288 b 331 -21 658 54 542 -21 b 74 8 219 -21 133 -11 b 25 88 35 21 18 47 l 117 604 b 197 704 126 656 153 689 m 533 510 b 414 600 543 565 499 600 b 288 585 365 600 322 594 b 271 564 278 581 272 574 l 247 431 l 403 431 b 533 510 479 431 524 457 m 514 215 b 385 307 524 275 479 307 l 225 307 l 197 147 b 206 132 196 140 199 135 b 331 119 249 124 290 119 b 514 215 440 119 501 151 "},"г":{"ha":700,"x_min":0,"x_max":0,"o":"m 114 589 b 435 740 182 690 289 740 b 686 522 622 740 708 650 b 564 344 669 433 629 374 b 365 299 497 315 450 306 b 174 199 253 288 183 264 b 313 117 163 142 207 117 b 490 197 400 117 460 143 b 553 224 511 229 525 235 l 606 204 b 625 144 638 194 643 174 b 290 -21 563 33 461 -21 b 24 201 96 -21 -3 64 b 347 431 51 356 158 413 b 471 453 403 436 435 440 b 533 524 507 465 528 490 b 410 600 543 575 508 600 b 240 524 335 600 278 575 b 178 503 217 494 207 490 l 125 528 b 114 589 99 540 94 560 "},"д":{"ha":768,"x_min":0,"x_max":0,"o":"m 269 989 b 319 1032 275 1022 286 1032 b 624 979 458 1032 560 1014 b 743 544 744 914 783 779 l 692 254 b 326 -21 660 76 533 -21 b 54 269 119 -21 21 92 l 82 428 b 414 701 111 600 240 701 b 603 617 508 701 579 667 b 522 844 621 746 593 801 b 299 886 476 872 403 886 b 260 926 264 886 256 894 m 558 419 b 425 556 574 507 526 556 b 243 419 318 556 257 510 l 214 261 b 347 125 199 174 243 125 b 531 261 451 125 513 171 "},"е":{"ha":738,"x_min":0,"x_max":0,"o":"m 89 458 b 463 740 122 640 256 740 b 679 669 557 740 629 717 b 732 482 729 621 747 558 b 392 289 708 349 596 289 b 221 306 342 289 285 294 l 213 257 b 347 118 197 167 243 118 b 526 190 426 118 486 142 b 600 207 556 222 571 228 l 643 179 b 647 108 669 161 671 138 b 322 -21 579 22 471 -21 b 96 68 214 -21 139 8 b 58 293 53 126 40 201 m 576 500 b 439 604 589 567 540 604 b 249 458 338 604 267 549 l 243 429 b 414 413 308 418 365 413 b 576 500 510 413 564 442 "},"ж":{"ha":1040,"x_min":0,"x_max":0,"o":"m 613 719 b 650 676 647 719 656 710 l 608 442 l 651 442 l 665 442 l 867 688 b 951 719 889 717 900 719 l 1026 719 b 1044 669 1067 719 1074 703 l 803 393 b 869 294 831 375 853 343 l 949 51 b 911 0 960 14 951 0 l 842 0 b 774 39 793 0 783 6 l 721 224 b 624 292 706 272 681 292 l 582 292 l 539 44 b 485 0 533 11 519 0 l 414 0 b 378 44 381 0 372 11 l 421 292 l 383 292 b 261 224 329 292 288 269 l 143 39 b 61 0 121 6 110 0 l -10 0 b -28 51 -50 0 -54 14 l 136 294 b 236 400 174 347 207 382 l 93 669 b 131 719 75 703 88 719 l 194 719 b 272 688 246 719 260 717 l 390 442 l 407 442 l 447 442 l 488 676 b 542 719 494 710 507 719 "},"з":{"ha":704,"x_min":0,"x_max":0,"o":"m 85 572 b 408 740 133 668 240 740 b 667 521 590 740 685 658 b 551 371 656 454 617 397 l 551 368 b 626 199 617 336 642 281 b 293 -21 603 53 492 -21 b 1 163 119 -21 28 56 b 43 225 -6 194 8 215 l 107 243 b 164 215 142 254 157 249 b 311 121 178 153 226 121 b 463 215 403 121 453 153 b 388 297 472 267 447 297 l 254 297 b 219 340 222 297 214 308 l 228 386 b 278 429 233 419 246 429 l 400 429 b 503 506 454 429 493 457 b 392 599 513 563 468 599 b 229 519 314 599 260 572 b 161 490 208 486 194 479 l 103 510 b 85 572 75 521 69 542 "},"и":{"ha":767,"x_min":0,"x_max":0,"o":"m 725 719 b 760 678 757 719 765 710 l 660 106 b 592 28 650 61 638 46 b 311 -21 504 -4 411 -21 b 72 269 118 -21 40 88 l 143 678 b 194 719 149 710 161 719 l 269 719 b 304 678 301 719 310 710 l 232 264 b 358 126 215 172 257 126 b 489 143 407 126 451 132 b 508 167 500 147 507 154 l 599 678 b 649 719 604 710 617 719 "},"й":{"ha":767,"x_min":0,"x_max":0,"o":"m 714 938 b 469 789 663 839 582 789 b 267 938 360 789 282 844 b 294 979 263 957 272 971 l 350 999 b 392 983 374 1006 388 1001 b 483 910 399 935 429 910 b 600 986 535 910 574 935 b 640 1001 610 1003 622 1008 l 701 979 b 714 938 722 968 725 960 m 725 719 b 760 678 757 719 765 710 l 660 106 b 592 28 650 61 638 46 b 311 -21 504 -4 411 -21 b 72 269 118 -21 40 88 l 143 678 b 194 719 149 710 161 719 l 269 719 b 304 678 301 719 310 710 l 232 264 b 358 126 215 172 257 126 b 489 143 407 126 451 132 b 508 167 500 147 507 154 l 599 678 b 649 719 604 710 617 719 "},"к":{"ha":725,"x_min":0,"x_max":0,"o":"m 633 51 b 596 0 644 14 636 0 l 531 0 b 463 39 482 0 474 6 l 410 224 b 311 294 394 274 368 294 l 224 294 l 179 44 b 126 0 174 11 161 0 l 56 0 b 18 44 21 0 13 11 l 129 676 b 183 719 135 710 149 719 l 254 719 b 290 676 288 719 296 710 l 250 442 l 313 442 l 324 442 l 557 688 b 647 719 585 717 593 719 l 715 719 b 726 663 758 719 760 694 l 471 401 b 554 294 508 386 536 350 "},"л":{"ha":760,"x_min":0,"x_max":0,"o":"m 696 719 b 731 678 728 719 736 710 l 619 43 b 569 0 615 14 599 0 l 493 0 b 458 43 461 0 453 11 l 551 571 l 354 571 l 311 394 b 157 53 268 221 217 107 b 42 -11 136 35 97 13 b 32 -15 38 -12 35 -14 b -17 7 7 -26 -10 -19 l -42 79 b -19 125 -49 103 -43 113 b 21 143 -18 126 10 136 b 74 192 31 150 57 165 b 157 407 97 231 132 296 l 221 678 b 272 719 228 710 240 719 "},"м":{"ha":890,"x_min":0,"x_max":0,"o":"m 824 719 b 863 674 861 719 868 708 l 751 43 b 700 0 744 10 732 0 l 635 0 b 600 43 600 0 593 8 l 644 294 b 710 500 654 344 675 413 l 704 500 b 607 346 675 443 642 392 l 479 176 b 421 144 458 150 449 144 l 382 144 b 335 178 354 144 346 150 l 267 344 b 225 501 249 390 235 442 l 219 501 b 211 290 221 403 218 332 l 167 43 b 117 0 161 10 149 0 l 54 0 b 19 43 19 0 13 8 l 129 674 b 186 719 136 708 147 719 l 238 719 b 293 685 272 719 283 713 l 431 324 l 693 683 b 758 719 711 711 725 719 "},"н":{"ha":774,"x_min":0,"x_max":0,"o":"m 708 719 b 743 678 740 719 749 710 l 632 43 b 581 0 626 11 614 0 l 506 0 b 471 43 474 0 465 11 l 515 292 l 224 292 l 179 43 b 129 0 175 14 158 0 l 53 0 b 18 43 21 0 13 11 l 129 678 b 181 719 135 710 147 719 l 256 719 b 290 678 288 719 296 710 l 250 442 l 542 442 l 582 678 b 633 719 588 710 600 719 "},"о":{"ha":754,"x_min":0,"x_max":0,"o":"m 88 467 b 454 740 119 640 250 740 b 726 454 660 740 756 631 l 690 249 b 325 -21 658 75 532 -21 b 51 261 121 -21 22 88 m 567 463 b 431 594 582 547 532 594 b 249 463 329 594 264 547 l 213 257 b 347 125 197 174 246 125 b 531 257 449 125 515 174 "},"п":{"ha":767,"x_min":0,"x_max":0,"o":"m 183 693 b 464 740 268 725 361 740 b 703 449 657 740 735 632 l 632 43 b 581 0 625 11 613 0 l 504 0 b 471 43 472 0 464 11 l 543 457 b 417 593 560 547 518 593 b 279 575 371 593 325 588 b 267 561 275 574 271 568 l 176 43 b 126 0 172 14 156 0 l 50 0 b 15 43 18 0 10 11 l 115 614 b 183 693 125 658 138 675 "},"р":{"ha":751,"x_min":0,"x_max":0,"o":"m 186 700 b 463 740 263 726 356 740 b 704 449 657 740 738 632 l 669 260 b 313 -21 638 72 519 -21 b 171 4 278 -21 231 -12 l 124 -262 b 72 -306 119 -292 101 -306 l -3 -306 b -37 -262 -35 -306 -43 -294 l 118 621 b 186 700 128 665 140 682 m 544 456 b 414 593 560 547 517 593 b 285 578 365 593 322 588 b 268 560 276 575 271 569 l 196 147 b 325 126 247 133 290 126 b 513 275 431 126 493 176 "},"с":{"ha":711,"x_min":0,"x_max":0,"o":"m 89 465 b 449 740 121 649 240 740 b 711 558 606 740 693 668 b 675 496 717 524 708 507 l 619 478 b 564 507 582 465 571 472 b 425 599 551 568 504 599 b 249 461 325 599 267 553 l 213 257 b 340 121 197 167 239 121 b 508 217 417 121 472 153 b 575 244 526 250 542 256 l 633 225 b 651 163 665 213 672 197 b 317 -21 583 40 471 -21 b 56 274 110 -21 22 92 "},"т":{"ha":1147,"x_min":0,"x_max":0,"o":"m 608 693 b 861 740 699 725 782 740 b 1083 453 1044 740 1115 635 l 1011 43 b 961 0 1007 14 990 0 l 885 0 b 850 43 853 0 844 11 l 924 458 b 813 593 940 549 903 593 b 674 568 769 593 724 585 b 669 464 678 539 676 504 l 596 43 b 544 0 592 14 574 0 l 469 0 b 435 43 438 0 429 11 l 507 458 b 396 593 524 554 486 593 b 281 576 356 593 317 588 b 267 560 275 574 271 568 l 176 43 b 126 0 172 14 156 0 l 50 0 b 15 43 18 0 10 11 l 115 614 b 183 693 125 658 138 675 b 443 740 265 725 353 740 b 608 693 517 740 571 725 "},"у":{"ha":769,"x_min":0,"x_max":0,"o":"m 722 719 b 757 678 754 719 763 710 l 633 -24 b 275 -326 599 -225 479 -326 b 15 -190 140 -326 54 -281 b 43 -121 0 -161 10 -137 l 97 -94 b 164 -111 135 -78 149 -82 b 297 -182 185 -158 229 -182 b 471 -32 394 -182 453 -132 l 482 33 b 314 14 422 21 367 14 b 76 306 121 14 44 124 l 140 678 b 192 719 147 710 160 719 l 268 719 b 301 678 300 719 308 710 l 235 299 b 363 161 219 207 263 161 b 508 181 410 161 458 168 l 596 678 b 646 719 601 710 614 719 "},"ф":{"ha":1028,"x_min":0,"x_max":0,"o":"m 678 736 b 751 740 701 739 726 740 b 1000 422 946 740 1038 626 l 974 272 b 618 -21 939 76 821 -21 b 546 -15 589 -21 565 -19 l 503 -262 b 451 -306 496 -294 483 -306 l 375 -306 b 342 -262 343 -306 335 -294 l 385 -15 b 311 -21 364 -19 339 -21 b 61 296 115 -21 24 92 l 88 444 b 443 740 122 642 240 740 b 517 736 468 740 493 739 l 560 983 b 610 1026 567 1017 578 1026 l 686 1026 b 722 983 718 1026 728 1015 m 221 290 b 347 126 201 181 243 126 b 415 131 371 126 393 128 l 496 590 b 431 593 468 592 446 593 b 244 428 326 593 264 538 m 840 431 b 714 593 858 539 817 593 b 647 590 699 593 676 592 l 567 131 b 632 126 588 128 610 126 b 817 289 736 126 797 181 "},"х":{"ha":703,"x_min":0,"x_max":0,"o":"m 688 719 b 708 669 729 719 736 703 l 446 371 l 614 50 b 572 0 631 17 617 0 l 515 0 b 444 36 469 0 460 4 l 333 254 l 153 36 b 67 0 126 4 113 0 l -7 0 b -29 50 -57 0 -61 17 l 249 369 l 88 669 b 131 719 72 703 86 719 l 185 719 b 257 683 233 719 244 713 l 360 488 l 529 683 b 610 719 556 715 565 719 "},"ц":{"ha":825,"x_min":0,"x_max":0,"o":"m 271 719 b 306 678 303 719 311 710 l 233 263 b 360 126 217 172 258 126 b 506 147 397 126 446 133 l 600 678 b 650 719 606 710 618 719 l 726 719 b 761 678 758 719 767 710 l 668 154 b 769 4 767 161 790 115 l 743 -150 b 694 -193 738 -182 726 -193 l 625 -193 b 588 -150 592 -193 582 -182 l 613 -17 b 568 17 618 13 603 26 b 313 -21 482 -8 397 -21 b 74 272 119 -21 40 90 l 144 678 b 196 719 150 710 163 719 "},"ч":{"ha":714,"x_min":0,"x_max":0,"o":"m 104 678 b 156 719 110 710 122 719 l 231 719 b 265 678 263 719 271 710 l 238 519 b 361 388 221 425 257 388 b 493 407 424 388 467 394 l 542 678 b 593 719 547 710 560 719 l 668 719 b 703 678 700 719 708 710 l 592 43 b 540 0 588 14 569 0 l 465 0 b 431 43 433 0 425 11 l 468 256 b 318 240 438 246 388 240 b 79 531 128 240 47 349 "},"ш":{"ha":1146,"x_min":0,"x_max":0,"o":"m 1106 719 b 1139 678 1138 719 1146 710 l 1039 106 b 972 26 1029 61 1017 44 b 711 -21 890 -6 803 -21 b 547 25 638 -21 583 -6 b 296 -21 463 -6 378 -21 b 74 272 113 -21 40 89 l 144 678 b 196 719 150 710 163 719 l 271 719 b 306 678 303 719 311 710 l 233 261 b 343 126 217 171 253 126 b 482 151 383 126 431 135 b 485 256 476 181 478 215 l 560 678 b 610 719 565 710 578 719 l 686 719 b 721 678 718 719 726 710 l 647 260 b 760 126 631 171 668 126 b 871 142 800 126 838 132 b 889 165 881 146 886 153 l 978 678 b 1029 719 985 710 997 719 "},"щ":{"ha":1204,"x_min":0,"x_max":0,"o":"m 144 678 b 196 719 150 710 163 719 l 271 719 b 306 678 303 719 311 710 l 233 261 b 343 126 217 171 253 126 b 482 151 383 126 431 135 b 485 256 476 181 478 215 l 560 678 b 610 719 565 710 578 719 l 686 719 b 721 678 718 719 726 710 l 647 260 b 760 126 631 171 668 126 b 886 149 800 126 842 133 l 978 678 b 1029 719 985 710 997 719 l 1106 719 b 1139 678 1138 719 1146 710 l 1047 154 b 1149 4 1146 161 1169 117 l 1122 -150 b 1074 -193 1117 -182 1106 -193 l 1003 -193 b 967 -150 971 -193 961 -182 l 992 -17 b 947 17 997 13 982 26 b 711 -21 854 -8 775 -21 b 547 25 638 -21 583 -6 b 296 -21 463 -6 378 -21 b 74 272 113 -21 40 89 "},"ъ":{"ha":836,"x_min":0,"x_max":0,"o":"m 383 501 b 529 522 440 515 489 522 b 778 242 717 522 810 418 b 451 -21 749 68 633 -21 b 192 21 342 -21 256 -7 b 150 100 149 39 143 54 l 235 574 l 89 574 b 53 615 57 574 47 583 l 64 678 b 114 719 69 710 82 719 l 379 719 b 413 678 411 719 419 710 m 331 140 b 453 124 364 129 404 124 b 618 251 547 124 603 167 b 493 383 635 339 593 383 b 358 365 456 383 410 378 l 322 157 b 331 140 321 149 324 143 "},"ы":{"ha":989,"x_min":0,"x_max":0,"o":"m 257 501 b 404 522 317 515 365 522 b 653 244 592 522 685 421 b 326 -21 624 71 508 -21 b 67 21 217 -21 131 -7 b 25 100 24 39 18 54 l 129 678 b 181 719 135 710 147 719 l 253 719 b 288 678 285 719 293 710 m 925 719 b 960 678 958 719 967 710 l 850 43 b 799 0 843 11 831 0 l 722 0 b 689 43 690 0 682 11 l 799 678 b 850 719 806 710 818 719 m 206 140 b 328 124 239 129 279 124 b 493 254 422 124 478 167 b 368 383 508 340 467 383 b 233 365 331 383 285 378 l 197 157 b 206 140 194 149 197 143 "},"ь":{"ha":708,"x_min":0,"x_max":0,"o":"m 257 501 b 404 522 317 515 365 522 b 653 244 592 522 685 421 b 326 -21 624 71 508 -21 b 67 21 217 -21 131 -7 b 25 100 24 39 18 54 l 129 678 b 181 719 135 710 147 719 l 253 719 b 288 678 285 719 293 710 m 206 140 b 328 124 239 129 279 124 b 493 254 422 124 478 167 b 368 383 508 340 467 383 b 233 365 331 383 285 378 l 197 157 b 206 140 194 149 197 143 "},"э":{"ha":706,"x_min":0,"x_max":0,"o":"m 81 563 b 400 740 140 681 246 740 b 665 444 610 740 699 626 l 632 254 b 283 -21 600 71 485 -21 b 8 165 125 -21 33 42 b 49 226 1 194 14 215 l 114 246 b 169 218 151 257 163 250 b 299 122 182 154 225 122 b 471 258 397 122 456 168 l 476 293 l 269 294 b 235 336 238 294 229 304 l 246 393 b 294 435 250 425 263 435 l 501 435 l 507 463 b 383 599 524 557 485 599 b 224 510 310 599 257 569 b 157 481 206 479 183 469 l 99 501 b 81 563 71 511 65 532 "},"ю":{"ha":1049,"x_min":0,"x_max":0,"o":"m 382 475 b 738 740 414 647 538 740 b 1003 453 938 740 1032 629 l 967 246 b 613 -21 933 68 815 -21 b 344 260 414 -21 317 88 l 350 290 l 224 290 l 179 43 b 129 0 175 14 158 0 l 53 0 b 18 43 21 0 13 11 l 129 678 b 181 719 135 710 147 719 l 256 719 b 290 678 288 719 296 710 l 250 440 l 376 440 m 842 464 b 715 594 857 549 814 594 b 543 463 617 594 558 550 l 506 256 b 632 125 490 172 536 125 b 806 257 728 125 790 174 "},"я":{"ha":731,"x_min":0,"x_max":0,"o":"m 665 719 b 699 676 697 719 706 710 l 590 43 b 540 0 586 14 569 0 l 463 0 b 429 43 431 0 422 11 l 463 236 l 324 236 l 172 38 b 86 0 149 4 135 0 l 18 0 b -4 51 -32 0 -33 17 l 163 260 b 68 488 85 293 50 378 b 357 719 96 638 201 719 m 351 575 b 233 476 292 575 244 533 b 315 378 222 417 254 378 l 488 378 l 522 575 "},"ё":{"ha":738,"x_min":0,"x_max":0,"o":"m 368 985 b 428 913 424 985 438 967 l 425 900 b 340 828 415 844 396 828 l 331 828 b 271 900 275 828 260 846 l 272 913 b 358 985 282 967 303 985 m 646 985 b 706 913 701 985 715 967 l 703 900 b 618 828 693 844 674 828 l 608 828 b 547 900 553 828 538 846 l 550 913 b 636 985 560 967 581 985 m 89 458 b 463 740 122 640 256 740 b 679 669 557 740 629 717 b 732 482 729 621 747 558 b 392 289 708 349 596 289 b 221 306 342 289 285 294 l 213 257 b 347 118 197 167 243 118 b 526 190 426 118 486 142 b 600 207 556 222 571 228 l 643 179 b 647 108 669 161 671 138 b 322 -21 579 22 471 -21 b 96 68 214 -21 139 8 b 58 293 53 126 40 201 m 576 500 b 439 604 589 567 540 604 b 249 458 338 604 267 549 l 243 429 b 414 413 308 418 365 413 b 576 500 510 413 564 442 "},"Ẁ":{"ha":1247,"x_min":0,"x_max":0,"o":"m 660 1250 b 739 1253 681 1271 707 1272 l 922 1132 b 918 1086 940 1119 940 1108 l 893 1061 b 840 1058 882 1049 864 1049 l 614 1158 b 617 1207 590 1169 590 1181 m 1290 986 b 1313 940 1324 986 1328 972 l 932 39 b 865 0 917 7 900 0 l 783 0 b 732 38 750 0 733 13 l 683 589 b 689 746 679 640 682 693 l 679 746 b 629 590 669 700 653 647 l 385 39 b 318 0 369 7 353 0 l 240 0 b 189 38 206 0 190 8 l 121 940 b 160 986 117 974 126 986 l 253 986 b 310 944 296 986 308 978 l 335 426 b 325 240 336 375 333 313 l 333 240 b 393 426 344 299 364 361 l 625 940 b 694 982 638 968 660 982 l 765 982 b 821 940 803 982 819 974 l 867 426 b 864 240 872 369 871 308 l 872 240 b 928 425 879 282 899 343 l 1132 944 b 1201 986 1143 978 1161 986 "}}}
